M48
; DRILL file {KiCad 8.0.2} date 2024-05-02T10:03:07-0700
; FORMAT={-:-/ absolute / metric / decimal}
; #@! TF.CreationDate,2024-05-02T10:03:07-07:00
; #@! TF.GenerationSoftware,Kicad,Pcbnew,8.0.2
; #@! TF.FileFunction,Plated,1,2,PTH
FMAT,2
METRIC
; #@! TA.AperFunction,Plated,PTH,ComponentDrill
T1C0.800
; #@! TA.AperFunction,Plated,PTH,ComponentDrill
T2C0.900
; #@! TA.AperFunction,Plated,PTH,ComponentDrill
T3C1.000
; #@! TA.AperFunction,Plated,PTH,ComponentDrill
T4C4.300
%
G90
G05
T1
X125.222Y-103.603
X125.222Y-106.143
X140.208Y-103.632
X140.208Y-106.172
X155.208Y-103.632
X155.208Y-106.172
T2
X120.0Y-103.632
X120.0Y-106.172
X135.0Y-103.632
X135.0Y-106.172
X150.0Y-103.632
X150.0Y-106.172
T3
X113.73Y-116.093
X113.73Y-118.633
X113.73Y-121.173
X113.73Y-123.713
X113.73Y-126.253
X113.73Y-128.793
X113.73Y-131.333
X113.73Y-133.873
X116.27Y-116.093
X116.27Y-118.633
X116.27Y-121.173
X116.27Y-123.713
X116.27Y-126.253
X116.27Y-128.793
X116.27Y-131.333
X116.27Y-133.873
X120.0Y-145.0
X122.54Y-145.0
X125.08Y-145.0
X128.73Y-116.093
X128.73Y-118.633
X128.73Y-121.173
X128.73Y-123.713
X128.73Y-126.253
X128.73Y-128.793
X128.73Y-131.333
X128.73Y-133.873
X131.27Y-116.093
X131.27Y-118.633
X131.27Y-121.173
X131.27Y-123.713
X131.27Y-126.253
X131.27Y-128.793
X131.27Y-131.333
X131.27Y-133.873
X135.0Y-145.0
X137.54Y-145.0
X140.08Y-145.0
X143.73Y-116.093
X143.73Y-118.633
X143.73Y-121.173
X143.73Y-123.713
X143.73Y-126.253
X143.73Y-128.793
X143.73Y-131.333
X143.73Y-133.873
X146.27Y-116.093
X146.27Y-118.633
X146.27Y-121.173
X146.27Y-123.713
X146.27Y-126.253
X146.27Y-128.793
X146.27Y-131.333
X146.27Y-133.873
X150.0Y-145.0
X152.54Y-145.0
X155.08Y-145.0
X158.73Y-116.093
X158.73Y-118.633
X158.73Y-121.173
X158.73Y-123.713
X158.73Y-126.253
X158.73Y-128.793
X158.73Y-131.333
X158.73Y-133.873
X161.27Y-116.093
X161.27Y-118.633
X161.27Y-121.173
X161.27Y-123.713
X161.27Y-126.253
X161.27Y-128.793
X161.27Y-131.333
X161.27Y-133.873
X165.0Y-145.0
X167.54Y-145.0
X170.08Y-145.0
X173.73Y-116.093
X173.73Y-118.633
X173.73Y-121.173
X173.73Y-123.713
X173.73Y-126.253
X173.73Y-128.793
X173.73Y-131.333
X173.73Y-133.873
X176.27Y-116.093
X176.27Y-118.633
X176.27Y-121.173
X176.27Y-123.713
X176.27Y-126.253
X176.27Y-128.793
X176.27Y-131.333
X176.27Y-133.873
T4
X105.0Y-105.0
X105.0Y-145.0
X185.0Y-105.0
X185.0Y-145.0
M30
