%TF.GenerationSoftware,KiCad,Pcbnew,8.0.2*%
%TF.CreationDate,2024-05-02T10:02:13-07:00*%
%TF.ProjectId,busboard-1,62757362-6f61-4726-942d-312e6b696361,rev?*%
%TF.SameCoordinates,Original*%
%TF.FileFunction,Legend,Top*%
%TF.FilePolarity,Positive*%
%FSLAX46Y46*%
G04 Gerber Fmt 4.6, Leading zero omitted, Abs format (unit mm)*
G04 Created by KiCad (PCBNEW 8.0.2) date 2024-05-02 10:02:13*
%MOMM*%
%LPD*%
G01*
G04 APERTURE LIST*
G04 Aperture macros list*
%AMRoundRect*
0 Rectangle with rounded corners*
0 $1 Rounding radius*
0 $2 $3 $4 $5 $6 $7 $8 $9 X,Y pos of 4 corners*
0 Add a 4 corners polygon primitive as box body*
4,1,4,$2,$3,$4,$5,$6,$7,$8,$9,$2,$3,0*
0 Add four circle primitives for the rounded corners*
1,1,$1+$1,$2,$3*
1,1,$1+$1,$4,$5*
1,1,$1+$1,$6,$7*
1,1,$1+$1,$8,$9*
0 Add four rect primitives between the rounded corners*
20,1,$1+$1,$2,$3,$4,$5,0*
20,1,$1+$1,$4,$5,$6,$7,0*
20,1,$1+$1,$6,$7,$8,$9,0*
20,1,$1+$1,$8,$9,$2,$3,0*%
G04 Aperture macros list end*
%ADD10C,0.200000*%
%ADD11C,0.150000*%
%ADD12C,0.100000*%
%ADD13C,0.120000*%
%ADD14C,1.600000*%
%ADD15O,1.600000X1.600000*%
%ADD16R,1.700000X1.700000*%
%ADD17O,1.700000X1.700000*%
%ADD18C,7.000000*%
%ADD19R,1.800000X1.800000*%
%ADD20C,1.800000*%
%ADD21RoundRect,0.250000X0.600000X0.600000X-0.600000X0.600000X-0.600000X-0.600000X0.600000X-0.600000X0*%
%ADD22C,1.700000*%
G04 APERTURE END LIST*
D10*
X155702000Y-140208000D02*
X164338000Y-140208000D01*
X125730000Y-140208000D02*
X134366000Y-140208000D01*
X170688000Y-140208000D02*
X179324000Y-140208000D01*
X110744000Y-140208000D02*
X119380000Y-140208000D01*
X140716000Y-140208000D02*
X149352000Y-140208000D01*
X182170149Y-133994600D02*
X183541578Y-133994600D01*
X185341577Y-134680314D02*
X184313006Y-134680314D01*
X184827291Y-134680314D02*
X184827291Y-132880314D01*
X184827291Y-132880314D02*
X184655863Y-133137457D01*
X184655863Y-133137457D02*
X184484434Y-133308885D01*
X184484434Y-133308885D02*
X184313006Y-133394600D01*
X186027292Y-133051742D02*
X186113006Y-132966028D01*
X186113006Y-132966028D02*
X186284435Y-132880314D01*
X186284435Y-132880314D02*
X186713006Y-132880314D01*
X186713006Y-132880314D02*
X186884435Y-132966028D01*
X186884435Y-132966028D02*
X186970149Y-133051742D01*
X186970149Y-133051742D02*
X187055863Y-133223171D01*
X187055863Y-133223171D02*
X187055863Y-133394600D01*
X187055863Y-133394600D02*
X186970149Y-133651742D01*
X186970149Y-133651742D02*
X185941577Y-134680314D01*
X185941577Y-134680314D02*
X187055863Y-134680314D01*
X187570149Y-132880314D02*
X188170149Y-134680314D01*
X188170149Y-134680314D02*
X188770149Y-132880314D01*
X183113006Y-115186028D02*
X182941578Y-115100314D01*
X182941578Y-115100314D02*
X182684435Y-115100314D01*
X182684435Y-115100314D02*
X182427292Y-115186028D01*
X182427292Y-115186028D02*
X182255863Y-115357457D01*
X182255863Y-115357457D02*
X182170149Y-115528885D01*
X182170149Y-115528885D02*
X182084435Y-115871742D01*
X182084435Y-115871742D02*
X182084435Y-116128885D01*
X182084435Y-116128885D02*
X182170149Y-116471742D01*
X182170149Y-116471742D02*
X182255863Y-116643171D01*
X182255863Y-116643171D02*
X182427292Y-116814600D01*
X182427292Y-116814600D02*
X182684435Y-116900314D01*
X182684435Y-116900314D02*
X182855863Y-116900314D01*
X182855863Y-116900314D02*
X183113006Y-116814600D01*
X183113006Y-116814600D02*
X183198720Y-116728885D01*
X183198720Y-116728885D02*
X183198720Y-116128885D01*
X183198720Y-116128885D02*
X182855863Y-116128885D01*
X183884435Y-116386028D02*
X184741578Y-116386028D01*
X183713006Y-116900314D02*
X184313006Y-115100314D01*
X184313006Y-115100314D02*
X184913006Y-116900314D01*
X185255863Y-115100314D02*
X186284435Y-115100314D01*
X185770149Y-116900314D02*
X185770149Y-115100314D01*
X186884435Y-115957457D02*
X187484435Y-115957457D01*
X187741578Y-116900314D02*
X186884435Y-116900314D01*
X186884435Y-116900314D02*
X186884435Y-115100314D01*
X186884435Y-115100314D02*
X187741578Y-115100314D01*
X149228571Y-148001600D02*
X150600000Y-148001600D01*
X152399999Y-148687314D02*
X151371428Y-148687314D01*
X151885713Y-148687314D02*
X151885713Y-146887314D01*
X151885713Y-146887314D02*
X151714285Y-147144457D01*
X151714285Y-147144457D02*
X151542856Y-147315885D01*
X151542856Y-147315885D02*
X151371428Y-147401600D01*
X153085714Y-147058742D02*
X153171428Y-146973028D01*
X153171428Y-146973028D02*
X153342857Y-146887314D01*
X153342857Y-146887314D02*
X153771428Y-146887314D01*
X153771428Y-146887314D02*
X153942857Y-146973028D01*
X153942857Y-146973028D02*
X154028571Y-147058742D01*
X154028571Y-147058742D02*
X154114285Y-147230171D01*
X154114285Y-147230171D02*
X154114285Y-147401600D01*
X154114285Y-147401600D02*
X154028571Y-147658742D01*
X154028571Y-147658742D02*
X152999999Y-148687314D01*
X152999999Y-148687314D02*
X154114285Y-148687314D01*
X154628571Y-146887314D02*
X155228571Y-148687314D01*
X155228571Y-148687314D02*
X155828571Y-146887314D01*
D11*
X160007541Y-105960152D02*
X160245636Y-106626819D01*
X160245636Y-106626819D02*
X160483731Y-105960152D01*
X161388493Y-106626819D02*
X160817065Y-106626819D01*
X161102779Y-106626819D02*
X161102779Y-105626819D01*
X161102779Y-105626819D02*
X161007541Y-105769676D01*
X161007541Y-105769676D02*
X160912303Y-105864914D01*
X160912303Y-105864914D02*
X160817065Y-105912533D01*
X161817065Y-106531580D02*
X161864684Y-106579200D01*
X161864684Y-106579200D02*
X161817065Y-106626819D01*
X161817065Y-106626819D02*
X161769446Y-106579200D01*
X161769446Y-106579200D02*
X161817065Y-106531580D01*
X161817065Y-106531580D02*
X161817065Y-106626819D01*
X162483731Y-105626819D02*
X162578969Y-105626819D01*
X162578969Y-105626819D02*
X162674207Y-105674438D01*
X162674207Y-105674438D02*
X162721826Y-105722057D01*
X162721826Y-105722057D02*
X162769445Y-105817295D01*
X162769445Y-105817295D02*
X162817064Y-106007771D01*
X162817064Y-106007771D02*
X162817064Y-106245866D01*
X162817064Y-106245866D02*
X162769445Y-106436342D01*
X162769445Y-106436342D02*
X162721826Y-106531580D01*
X162721826Y-106531580D02*
X162674207Y-106579200D01*
X162674207Y-106579200D02*
X162578969Y-106626819D01*
X162578969Y-106626819D02*
X162483731Y-106626819D01*
X162483731Y-106626819D02*
X162388493Y-106579200D01*
X162388493Y-106579200D02*
X162340874Y-106531580D01*
X162340874Y-106531580D02*
X162293255Y-106436342D01*
X162293255Y-106436342D02*
X162245636Y-106245866D01*
X162245636Y-106245866D02*
X162245636Y-106007771D01*
X162245636Y-106007771D02*
X162293255Y-105817295D01*
X162293255Y-105817295D02*
X162340874Y-105722057D01*
X162340874Y-105722057D02*
X162388493Y-105674438D01*
X162388493Y-105674438D02*
X162483731Y-105626819D01*
X163245636Y-106531580D02*
X163293255Y-106579200D01*
X163293255Y-106579200D02*
X163245636Y-106626819D01*
X163245636Y-106626819D02*
X163198017Y-106579200D01*
X163198017Y-106579200D02*
X163245636Y-106531580D01*
X163245636Y-106531580D02*
X163245636Y-106626819D01*
X163674207Y-105722057D02*
X163721826Y-105674438D01*
X163721826Y-105674438D02*
X163817064Y-105626819D01*
X163817064Y-105626819D02*
X164055159Y-105626819D01*
X164055159Y-105626819D02*
X164150397Y-105674438D01*
X164150397Y-105674438D02*
X164198016Y-105722057D01*
X164198016Y-105722057D02*
X164245635Y-105817295D01*
X164245635Y-105817295D02*
X164245635Y-105912533D01*
X164245635Y-105912533D02*
X164198016Y-106055390D01*
X164198016Y-106055390D02*
X163626588Y-106626819D01*
X163626588Y-106626819D02*
X164245635Y-106626819D01*
X164864683Y-105626819D02*
X164959921Y-105626819D01*
X164959921Y-105626819D02*
X165055159Y-105674438D01*
X165055159Y-105674438D02*
X165102778Y-105722057D01*
X165102778Y-105722057D02*
X165150397Y-105817295D01*
X165150397Y-105817295D02*
X165198016Y-106007771D01*
X165198016Y-106007771D02*
X165198016Y-106245866D01*
X165198016Y-106245866D02*
X165150397Y-106436342D01*
X165150397Y-106436342D02*
X165102778Y-106531580D01*
X165102778Y-106531580D02*
X165055159Y-106579200D01*
X165055159Y-106579200D02*
X164959921Y-106626819D01*
X164959921Y-106626819D02*
X164864683Y-106626819D01*
X164864683Y-106626819D02*
X164769445Y-106579200D01*
X164769445Y-106579200D02*
X164721826Y-106531580D01*
X164721826Y-106531580D02*
X164674207Y-106436342D01*
X164674207Y-106436342D02*
X164626588Y-106245866D01*
X164626588Y-106245866D02*
X164626588Y-106007771D01*
X164626588Y-106007771D02*
X164674207Y-105817295D01*
X164674207Y-105817295D02*
X164721826Y-105722057D01*
X164721826Y-105722057D02*
X164769445Y-105674438D01*
X164769445Y-105674438D02*
X164864683Y-105626819D01*
X165578969Y-105722057D02*
X165626588Y-105674438D01*
X165626588Y-105674438D02*
X165721826Y-105626819D01*
X165721826Y-105626819D02*
X165959921Y-105626819D01*
X165959921Y-105626819D02*
X166055159Y-105674438D01*
X166055159Y-105674438D02*
X166102778Y-105722057D01*
X166102778Y-105722057D02*
X166150397Y-105817295D01*
X166150397Y-105817295D02*
X166150397Y-105912533D01*
X166150397Y-105912533D02*
X166102778Y-106055390D01*
X166102778Y-106055390D02*
X165531350Y-106626819D01*
X165531350Y-106626819D02*
X166150397Y-106626819D01*
X167007540Y-105960152D02*
X167007540Y-106626819D01*
X166769445Y-105579200D02*
X166531350Y-106293485D01*
X166531350Y-106293485D02*
X167150397Y-106293485D01*
X167531350Y-106531580D02*
X167578969Y-106579200D01*
X167578969Y-106579200D02*
X167531350Y-106626819D01*
X167531350Y-106626819D02*
X167483731Y-106579200D01*
X167483731Y-106579200D02*
X167531350Y-106531580D01*
X167531350Y-106531580D02*
X167531350Y-106626819D01*
X168198016Y-105626819D02*
X168293254Y-105626819D01*
X168293254Y-105626819D02*
X168388492Y-105674438D01*
X168388492Y-105674438D02*
X168436111Y-105722057D01*
X168436111Y-105722057D02*
X168483730Y-105817295D01*
X168483730Y-105817295D02*
X168531349Y-106007771D01*
X168531349Y-106007771D02*
X168531349Y-106245866D01*
X168531349Y-106245866D02*
X168483730Y-106436342D01*
X168483730Y-106436342D02*
X168436111Y-106531580D01*
X168436111Y-106531580D02*
X168388492Y-106579200D01*
X168388492Y-106579200D02*
X168293254Y-106626819D01*
X168293254Y-106626819D02*
X168198016Y-106626819D01*
X168198016Y-106626819D02*
X168102778Y-106579200D01*
X168102778Y-106579200D02*
X168055159Y-106531580D01*
X168055159Y-106531580D02*
X168007540Y-106436342D01*
X168007540Y-106436342D02*
X167959921Y-106245866D01*
X167959921Y-106245866D02*
X167959921Y-106007771D01*
X167959921Y-106007771D02*
X168007540Y-105817295D01*
X168007540Y-105817295D02*
X168055159Y-105722057D01*
X168055159Y-105722057D02*
X168102778Y-105674438D01*
X168102778Y-105674438D02*
X168198016Y-105626819D01*
X169436111Y-105626819D02*
X168959921Y-105626819D01*
X168959921Y-105626819D02*
X168912302Y-106103009D01*
X168912302Y-106103009D02*
X168959921Y-106055390D01*
X168959921Y-106055390D02*
X169055159Y-106007771D01*
X169055159Y-106007771D02*
X169293254Y-106007771D01*
X169293254Y-106007771D02*
X169388492Y-106055390D01*
X169388492Y-106055390D02*
X169436111Y-106103009D01*
X169436111Y-106103009D02*
X169483730Y-106198247D01*
X169483730Y-106198247D02*
X169483730Y-106436342D01*
X169483730Y-106436342D02*
X169436111Y-106531580D01*
X169436111Y-106531580D02*
X169388492Y-106579200D01*
X169388492Y-106579200D02*
X169293254Y-106626819D01*
X169293254Y-106626819D02*
X169055159Y-106626819D01*
X169055159Y-106626819D02*
X168959921Y-106579200D01*
X168959921Y-106579200D02*
X168912302Y-106531580D01*
X169912302Y-106531580D02*
X169959921Y-106579200D01*
X169959921Y-106579200D02*
X169912302Y-106626819D01*
X169912302Y-106626819D02*
X169864683Y-106579200D01*
X169864683Y-106579200D02*
X169912302Y-106531580D01*
X169912302Y-106531580D02*
X169912302Y-106626819D01*
X170578968Y-105626819D02*
X170674206Y-105626819D01*
X170674206Y-105626819D02*
X170769444Y-105674438D01*
X170769444Y-105674438D02*
X170817063Y-105722057D01*
X170817063Y-105722057D02*
X170864682Y-105817295D01*
X170864682Y-105817295D02*
X170912301Y-106007771D01*
X170912301Y-106007771D02*
X170912301Y-106245866D01*
X170912301Y-106245866D02*
X170864682Y-106436342D01*
X170864682Y-106436342D02*
X170817063Y-106531580D01*
X170817063Y-106531580D02*
X170769444Y-106579200D01*
X170769444Y-106579200D02*
X170674206Y-106626819D01*
X170674206Y-106626819D02*
X170578968Y-106626819D01*
X170578968Y-106626819D02*
X170483730Y-106579200D01*
X170483730Y-106579200D02*
X170436111Y-106531580D01*
X170436111Y-106531580D02*
X170388492Y-106436342D01*
X170388492Y-106436342D02*
X170340873Y-106245866D01*
X170340873Y-106245866D02*
X170340873Y-106007771D01*
X170340873Y-106007771D02*
X170388492Y-105817295D01*
X170388492Y-105817295D02*
X170436111Y-105722057D01*
X170436111Y-105722057D02*
X170483730Y-105674438D01*
X170483730Y-105674438D02*
X170578968Y-105626819D01*
X171864682Y-106626819D02*
X171293254Y-106626819D01*
X171578968Y-106626819D02*
X171578968Y-105626819D01*
X171578968Y-105626819D02*
X171483730Y-105769676D01*
X171483730Y-105769676D02*
X171388492Y-105864914D01*
X171388492Y-105864914D02*
X171293254Y-105912533D01*
D10*
X183113006Y-127886028D02*
X182941578Y-127800314D01*
X182941578Y-127800314D02*
X182684435Y-127800314D01*
X182684435Y-127800314D02*
X182427292Y-127886028D01*
X182427292Y-127886028D02*
X182255863Y-128057457D01*
X182255863Y-128057457D02*
X182170149Y-128228885D01*
X182170149Y-128228885D02*
X182084435Y-128571742D01*
X182084435Y-128571742D02*
X182084435Y-128828885D01*
X182084435Y-128828885D02*
X182170149Y-129171742D01*
X182170149Y-129171742D02*
X182255863Y-129343171D01*
X182255863Y-129343171D02*
X182427292Y-129514600D01*
X182427292Y-129514600D02*
X182684435Y-129600314D01*
X182684435Y-129600314D02*
X182855863Y-129600314D01*
X182855863Y-129600314D02*
X183113006Y-129514600D01*
X183113006Y-129514600D02*
X183198720Y-129428885D01*
X183198720Y-129428885D02*
X183198720Y-128828885D01*
X183198720Y-128828885D02*
X182855863Y-128828885D01*
X183970149Y-129600314D02*
X183970149Y-127800314D01*
X183970149Y-127800314D02*
X184998720Y-129600314D01*
X184998720Y-129600314D02*
X184998720Y-127800314D01*
X185855863Y-129600314D02*
X185855863Y-127800314D01*
X185855863Y-127800314D02*
X186284434Y-127800314D01*
X186284434Y-127800314D02*
X186541577Y-127886028D01*
X186541577Y-127886028D02*
X186713006Y-128057457D01*
X186713006Y-128057457D02*
X186798720Y-128228885D01*
X186798720Y-128228885D02*
X186884434Y-128571742D01*
X186884434Y-128571742D02*
X186884434Y-128828885D01*
X186884434Y-128828885D02*
X186798720Y-129171742D01*
X186798720Y-129171742D02*
X186713006Y-129343171D01*
X186713006Y-129343171D02*
X186541577Y-129514600D01*
X186541577Y-129514600D02*
X186284434Y-129600314D01*
X186284434Y-129600314D02*
X185855863Y-129600314D01*
X182170149Y-121294600D02*
X183541578Y-121294600D01*
X182855863Y-121980314D02*
X182855863Y-120608885D01*
X185255863Y-120180314D02*
X184398720Y-120180314D01*
X184398720Y-120180314D02*
X184313006Y-121037457D01*
X184313006Y-121037457D02*
X184398720Y-120951742D01*
X184398720Y-120951742D02*
X184570149Y-120866028D01*
X184570149Y-120866028D02*
X184998720Y-120866028D01*
X184998720Y-120866028D02*
X185170149Y-120951742D01*
X185170149Y-120951742D02*
X185255863Y-121037457D01*
X185255863Y-121037457D02*
X185341577Y-121208885D01*
X185341577Y-121208885D02*
X185341577Y-121637457D01*
X185341577Y-121637457D02*
X185255863Y-121808885D01*
X185255863Y-121808885D02*
X185170149Y-121894600D01*
X185170149Y-121894600D02*
X184998720Y-121980314D01*
X184998720Y-121980314D02*
X184570149Y-121980314D01*
X184570149Y-121980314D02*
X184398720Y-121894600D01*
X184398720Y-121894600D02*
X184313006Y-121808885D01*
X185855863Y-120180314D02*
X186455863Y-121980314D01*
X186455863Y-121980314D02*
X187055863Y-120180314D01*
X103958136Y-127886028D02*
X103786708Y-127800314D01*
X103786708Y-127800314D02*
X103529565Y-127800314D01*
X103529565Y-127800314D02*
X103272422Y-127886028D01*
X103272422Y-127886028D02*
X103100993Y-128057457D01*
X103100993Y-128057457D02*
X103015279Y-128228885D01*
X103015279Y-128228885D02*
X102929565Y-128571742D01*
X102929565Y-128571742D02*
X102929565Y-128828885D01*
X102929565Y-128828885D02*
X103015279Y-129171742D01*
X103015279Y-129171742D02*
X103100993Y-129343171D01*
X103100993Y-129343171D02*
X103272422Y-129514600D01*
X103272422Y-129514600D02*
X103529565Y-129600314D01*
X103529565Y-129600314D02*
X103700993Y-129600314D01*
X103700993Y-129600314D02*
X103958136Y-129514600D01*
X103958136Y-129514600D02*
X104043850Y-129428885D01*
X104043850Y-129428885D02*
X104043850Y-128828885D01*
X104043850Y-128828885D02*
X103700993Y-128828885D01*
X104815279Y-129600314D02*
X104815279Y-127800314D01*
X104815279Y-127800314D02*
X105843850Y-129600314D01*
X105843850Y-129600314D02*
X105843850Y-127800314D01*
X106700993Y-129600314D02*
X106700993Y-127800314D01*
X106700993Y-127800314D02*
X107129564Y-127800314D01*
X107129564Y-127800314D02*
X107386707Y-127886028D01*
X107386707Y-127886028D02*
X107558136Y-128057457D01*
X107558136Y-128057457D02*
X107643850Y-128228885D01*
X107643850Y-128228885D02*
X107729564Y-128571742D01*
X107729564Y-128571742D02*
X107729564Y-128828885D01*
X107729564Y-128828885D02*
X107643850Y-129171742D01*
X107643850Y-129171742D02*
X107558136Y-129343171D01*
X107558136Y-129343171D02*
X107386707Y-129514600D01*
X107386707Y-129514600D02*
X107129564Y-129600314D01*
X107129564Y-129600314D02*
X106700993Y-129600314D01*
X120113714Y-148001600D02*
X121485143Y-148001600D01*
X120799428Y-148687314D02*
X120799428Y-147315885D01*
X123199428Y-146887314D02*
X122342285Y-146887314D01*
X122342285Y-146887314D02*
X122256571Y-147744457D01*
X122256571Y-147744457D02*
X122342285Y-147658742D01*
X122342285Y-147658742D02*
X122513714Y-147573028D01*
X122513714Y-147573028D02*
X122942285Y-147573028D01*
X122942285Y-147573028D02*
X123113714Y-147658742D01*
X123113714Y-147658742D02*
X123199428Y-147744457D01*
X123199428Y-147744457D02*
X123285142Y-147915885D01*
X123285142Y-147915885D02*
X123285142Y-148344457D01*
X123285142Y-148344457D02*
X123199428Y-148515885D01*
X123199428Y-148515885D02*
X123113714Y-148601600D01*
X123113714Y-148601600D02*
X122942285Y-148687314D01*
X122942285Y-148687314D02*
X122513714Y-148687314D01*
X122513714Y-148687314D02*
X122342285Y-148601600D01*
X122342285Y-148601600D02*
X122256571Y-148515885D01*
X123799428Y-146887314D02*
X124399428Y-148687314D01*
X124399428Y-148687314D02*
X124999428Y-146887314D01*
X103100993Y-115186028D02*
X102929565Y-115100314D01*
X102929565Y-115100314D02*
X102672422Y-115100314D01*
X102672422Y-115100314D02*
X102415279Y-115186028D01*
X102415279Y-115186028D02*
X102243850Y-115357457D01*
X102243850Y-115357457D02*
X102158136Y-115528885D01*
X102158136Y-115528885D02*
X102072422Y-115871742D01*
X102072422Y-115871742D02*
X102072422Y-116128885D01*
X102072422Y-116128885D02*
X102158136Y-116471742D01*
X102158136Y-116471742D02*
X102243850Y-116643171D01*
X102243850Y-116643171D02*
X102415279Y-116814600D01*
X102415279Y-116814600D02*
X102672422Y-116900314D01*
X102672422Y-116900314D02*
X102843850Y-116900314D01*
X102843850Y-116900314D02*
X103100993Y-116814600D01*
X103100993Y-116814600D02*
X103186707Y-116728885D01*
X103186707Y-116728885D02*
X103186707Y-116128885D01*
X103186707Y-116128885D02*
X102843850Y-116128885D01*
X103872422Y-116386028D02*
X104729565Y-116386028D01*
X103700993Y-116900314D02*
X104300993Y-115100314D01*
X104300993Y-115100314D02*
X104900993Y-116900314D01*
X105243850Y-115100314D02*
X106272422Y-115100314D01*
X105758136Y-116900314D02*
X105758136Y-115100314D01*
X106872422Y-115957457D02*
X107472422Y-115957457D01*
X107729565Y-116900314D02*
X106872422Y-116900314D01*
X106872422Y-116900314D02*
X106872422Y-115100314D01*
X106872422Y-115100314D02*
X107729565Y-115100314D01*
X101300993Y-123834600D02*
X102672422Y-123834600D01*
X101986707Y-124520314D02*
X101986707Y-123148885D01*
X104472421Y-124520314D02*
X103443850Y-124520314D01*
X103958135Y-124520314D02*
X103958135Y-122720314D01*
X103958135Y-122720314D02*
X103786707Y-122977457D01*
X103786707Y-122977457D02*
X103615278Y-123148885D01*
X103615278Y-123148885D02*
X103443850Y-123234600D01*
X105158136Y-122891742D02*
X105243850Y-122806028D01*
X105243850Y-122806028D02*
X105415279Y-122720314D01*
X105415279Y-122720314D02*
X105843850Y-122720314D01*
X105843850Y-122720314D02*
X106015279Y-122806028D01*
X106015279Y-122806028D02*
X106100993Y-122891742D01*
X106100993Y-122891742D02*
X106186707Y-123063171D01*
X106186707Y-123063171D02*
X106186707Y-123234600D01*
X106186707Y-123234600D02*
X106100993Y-123491742D01*
X106100993Y-123491742D02*
X105072421Y-124520314D01*
X105072421Y-124520314D02*
X106186707Y-124520314D01*
X106700993Y-122720314D02*
X107300993Y-124520314D01*
X107300993Y-124520314D02*
X107900993Y-122720314D01*
X160532435Y-103345219D02*
X160818149Y-103440457D01*
X160818149Y-103440457D02*
X160913387Y-103535695D01*
X160913387Y-103535695D02*
X161008625Y-103726171D01*
X161008625Y-103726171D02*
X161008625Y-104011885D01*
X161008625Y-104011885D02*
X160913387Y-104202361D01*
X160913387Y-104202361D02*
X160818149Y-104297600D01*
X160818149Y-104297600D02*
X160627673Y-104392838D01*
X160627673Y-104392838D02*
X159865768Y-104392838D01*
X159865768Y-104392838D02*
X159865768Y-102392838D01*
X159865768Y-102392838D02*
X160532435Y-102392838D01*
X160532435Y-102392838D02*
X160722911Y-102488076D01*
X160722911Y-102488076D02*
X160818149Y-102583314D01*
X160818149Y-102583314D02*
X160913387Y-102773790D01*
X160913387Y-102773790D02*
X160913387Y-102964266D01*
X160913387Y-102964266D02*
X160818149Y-103154742D01*
X160818149Y-103154742D02*
X160722911Y-103249980D01*
X160722911Y-103249980D02*
X160532435Y-103345219D01*
X160532435Y-103345219D02*
X159865768Y-103345219D01*
X161865768Y-102392838D02*
X161865768Y-104011885D01*
X161865768Y-104011885D02*
X161961006Y-104202361D01*
X161961006Y-104202361D02*
X162056244Y-104297600D01*
X162056244Y-104297600D02*
X162246720Y-104392838D01*
X162246720Y-104392838D02*
X162627673Y-104392838D01*
X162627673Y-104392838D02*
X162818149Y-104297600D01*
X162818149Y-104297600D02*
X162913387Y-104202361D01*
X162913387Y-104202361D02*
X163008625Y-104011885D01*
X163008625Y-104011885D02*
X163008625Y-102392838D01*
X163865768Y-104297600D02*
X164151482Y-104392838D01*
X164151482Y-104392838D02*
X164627673Y-104392838D01*
X164627673Y-104392838D02*
X164818149Y-104297600D01*
X164818149Y-104297600D02*
X164913387Y-104202361D01*
X164913387Y-104202361D02*
X165008625Y-104011885D01*
X165008625Y-104011885D02*
X165008625Y-103821409D01*
X165008625Y-103821409D02*
X164913387Y-103630933D01*
X164913387Y-103630933D02*
X164818149Y-103535695D01*
X164818149Y-103535695D02*
X164627673Y-103440457D01*
X164627673Y-103440457D02*
X164246720Y-103345219D01*
X164246720Y-103345219D02*
X164056244Y-103249980D01*
X164056244Y-103249980D02*
X163961006Y-103154742D01*
X163961006Y-103154742D02*
X163865768Y-102964266D01*
X163865768Y-102964266D02*
X163865768Y-102773790D01*
X163865768Y-102773790D02*
X163961006Y-102583314D01*
X163961006Y-102583314D02*
X164056244Y-102488076D01*
X164056244Y-102488076D02*
X164246720Y-102392838D01*
X164246720Y-102392838D02*
X164722911Y-102392838D01*
X164722911Y-102392838D02*
X165008625Y-102488076D01*
X166532435Y-103345219D02*
X166818149Y-103440457D01*
X166818149Y-103440457D02*
X166913387Y-103535695D01*
X166913387Y-103535695D02*
X167008625Y-103726171D01*
X167008625Y-103726171D02*
X167008625Y-104011885D01*
X167008625Y-104011885D02*
X166913387Y-104202361D01*
X166913387Y-104202361D02*
X166818149Y-104297600D01*
X166818149Y-104297600D02*
X166627673Y-104392838D01*
X166627673Y-104392838D02*
X165865768Y-104392838D01*
X165865768Y-104392838D02*
X165865768Y-102392838D01*
X165865768Y-102392838D02*
X166532435Y-102392838D01*
X166532435Y-102392838D02*
X166722911Y-102488076D01*
X166722911Y-102488076D02*
X166818149Y-102583314D01*
X166818149Y-102583314D02*
X166913387Y-102773790D01*
X166913387Y-102773790D02*
X166913387Y-102964266D01*
X166913387Y-102964266D02*
X166818149Y-103154742D01*
X166818149Y-103154742D02*
X166722911Y-103249980D01*
X166722911Y-103249980D02*
X166532435Y-103345219D01*
X166532435Y-103345219D02*
X165865768Y-103345219D01*
X168246720Y-102392838D02*
X168627673Y-102392838D01*
X168627673Y-102392838D02*
X168818149Y-102488076D01*
X168818149Y-102488076D02*
X169008625Y-102678552D01*
X169008625Y-102678552D02*
X169103863Y-103059504D01*
X169103863Y-103059504D02*
X169103863Y-103726171D01*
X169103863Y-103726171D02*
X169008625Y-104107123D01*
X169008625Y-104107123D02*
X168818149Y-104297600D01*
X168818149Y-104297600D02*
X168627673Y-104392838D01*
X168627673Y-104392838D02*
X168246720Y-104392838D01*
X168246720Y-104392838D02*
X168056244Y-104297600D01*
X168056244Y-104297600D02*
X167865768Y-104107123D01*
X167865768Y-104107123D02*
X167770530Y-103726171D01*
X167770530Y-103726171D02*
X167770530Y-103059504D01*
X167770530Y-103059504D02*
X167865768Y-102678552D01*
X167865768Y-102678552D02*
X168056244Y-102488076D01*
X168056244Y-102488076D02*
X168246720Y-102392838D01*
X169865768Y-103821409D02*
X170818149Y-103821409D01*
X169675292Y-104392838D02*
X170341958Y-102392838D01*
X170341958Y-102392838D02*
X171008625Y-104392838D01*
X172818149Y-104392838D02*
X172151482Y-103440457D01*
X171675292Y-104392838D02*
X171675292Y-102392838D01*
X171675292Y-102392838D02*
X172437197Y-102392838D01*
X172437197Y-102392838D02*
X172627673Y-102488076D01*
X172627673Y-102488076D02*
X172722911Y-102583314D01*
X172722911Y-102583314D02*
X172818149Y-102773790D01*
X172818149Y-102773790D02*
X172818149Y-103059504D01*
X172818149Y-103059504D02*
X172722911Y-103249980D01*
X172722911Y-103249980D02*
X172627673Y-103345219D01*
X172627673Y-103345219D02*
X172437197Y-103440457D01*
X172437197Y-103440457D02*
X171675292Y-103440457D01*
X173675292Y-104392838D02*
X173675292Y-102392838D01*
X173675292Y-102392838D02*
X174151482Y-102392838D01*
X174151482Y-102392838D02*
X174437197Y-102488076D01*
X174437197Y-102488076D02*
X174627673Y-102678552D01*
X174627673Y-102678552D02*
X174722911Y-102869028D01*
X174722911Y-102869028D02*
X174818149Y-103249980D01*
X174818149Y-103249980D02*
X174818149Y-103535695D01*
X174818149Y-103535695D02*
X174722911Y-103916647D01*
X174722911Y-103916647D02*
X174627673Y-104107123D01*
X174627673Y-104107123D02*
X174437197Y-104297600D01*
X174437197Y-104297600D02*
X174151482Y-104392838D01*
X174151482Y-104392838D02*
X173675292Y-104392838D01*
X175675292Y-103630933D02*
X177199102Y-103630933D01*
X179199101Y-104392838D02*
X178056244Y-104392838D01*
X178627672Y-104392838D02*
X178627672Y-102392838D01*
X178627672Y-102392838D02*
X178437196Y-102678552D01*
X178437196Y-102678552D02*
X178246720Y-102869028D01*
X178246720Y-102869028D02*
X178056244Y-102964266D01*
D12*
X170576419Y-138094401D02*
X171290704Y-138094401D01*
X171290704Y-138094401D02*
X171433561Y-138142020D01*
X171433561Y-138142020D02*
X171528800Y-138237258D01*
X171528800Y-138237258D02*
X171576419Y-138380115D01*
X171576419Y-138380115D02*
X171576419Y-138475353D01*
X171576419Y-137142020D02*
X171576419Y-137618210D01*
X171576419Y-137618210D02*
X170576419Y-137618210D01*
X171481180Y-136237258D02*
X171528800Y-136284877D01*
X171528800Y-136284877D02*
X171576419Y-136427734D01*
X171576419Y-136427734D02*
X171576419Y-136522972D01*
X171576419Y-136522972D02*
X171528800Y-136665829D01*
X171528800Y-136665829D02*
X171433561Y-136761067D01*
X171433561Y-136761067D02*
X171338323Y-136808686D01*
X171338323Y-136808686D02*
X171147847Y-136856305D01*
X171147847Y-136856305D02*
X171004990Y-136856305D01*
X171004990Y-136856305D02*
X170814514Y-136808686D01*
X170814514Y-136808686D02*
X170719276Y-136761067D01*
X170719276Y-136761067D02*
X170624038Y-136665829D01*
X170624038Y-136665829D02*
X170576419Y-136522972D01*
X170576419Y-136522972D02*
X170576419Y-136427734D01*
X170576419Y-136427734D02*
X170624038Y-136284877D01*
X170624038Y-136284877D02*
X170671657Y-136237258D01*
X170576419Y-135522972D02*
X171290704Y-135522972D01*
X171290704Y-135522972D02*
X171433561Y-135570591D01*
X171433561Y-135570591D02*
X171528800Y-135665829D01*
X171528800Y-135665829D02*
X171576419Y-135808686D01*
X171576419Y-135808686D02*
X171576419Y-135903924D01*
X171576419Y-134570591D02*
X171576419Y-135046781D01*
X171576419Y-135046781D02*
X170576419Y-135046781D01*
X171481180Y-133665829D02*
X171528800Y-133713448D01*
X171528800Y-133713448D02*
X171576419Y-133856305D01*
X171576419Y-133856305D02*
X171576419Y-133951543D01*
X171576419Y-133951543D02*
X171528800Y-134094400D01*
X171528800Y-134094400D02*
X171433561Y-134189638D01*
X171433561Y-134189638D02*
X171338323Y-134237257D01*
X171338323Y-134237257D02*
X171147847Y-134284876D01*
X171147847Y-134284876D02*
X171004990Y-134284876D01*
X171004990Y-134284876D02*
X170814514Y-134237257D01*
X170814514Y-134237257D02*
X170719276Y-134189638D01*
X170719276Y-134189638D02*
X170624038Y-134094400D01*
X170624038Y-134094400D02*
X170576419Y-133951543D01*
X170576419Y-133951543D02*
X170576419Y-133856305D01*
X170576419Y-133856305D02*
X170624038Y-133713448D01*
X170624038Y-133713448D02*
X170671657Y-133665829D01*
X170576419Y-132951543D02*
X171290704Y-132951543D01*
X171290704Y-132951543D02*
X171433561Y-132999162D01*
X171433561Y-132999162D02*
X171528800Y-133094400D01*
X171528800Y-133094400D02*
X171576419Y-133237257D01*
X171576419Y-133237257D02*
X171576419Y-133332495D01*
X171576419Y-131999162D02*
X171576419Y-132475352D01*
X171576419Y-132475352D02*
X170576419Y-132475352D01*
X171481180Y-131094400D02*
X171528800Y-131142019D01*
X171528800Y-131142019D02*
X171576419Y-131284876D01*
X171576419Y-131284876D02*
X171576419Y-131380114D01*
X171576419Y-131380114D02*
X171528800Y-131522971D01*
X171528800Y-131522971D02*
X171433561Y-131618209D01*
X171433561Y-131618209D02*
X171338323Y-131665828D01*
X171338323Y-131665828D02*
X171147847Y-131713447D01*
X171147847Y-131713447D02*
X171004990Y-131713447D01*
X171004990Y-131713447D02*
X170814514Y-131665828D01*
X170814514Y-131665828D02*
X170719276Y-131618209D01*
X170719276Y-131618209D02*
X170624038Y-131522971D01*
X170624038Y-131522971D02*
X170576419Y-131380114D01*
X170576419Y-131380114D02*
X170576419Y-131284876D01*
X170576419Y-131284876D02*
X170624038Y-131142019D01*
X170624038Y-131142019D02*
X170671657Y-131094400D01*
X170576419Y-130380114D02*
X171290704Y-130380114D01*
X171290704Y-130380114D02*
X171433561Y-130427733D01*
X171433561Y-130427733D02*
X171528800Y-130522971D01*
X171528800Y-130522971D02*
X171576419Y-130665828D01*
X171576419Y-130665828D02*
X171576419Y-130761066D01*
X171576419Y-129427733D02*
X171576419Y-129903923D01*
X171576419Y-129903923D02*
X170576419Y-129903923D01*
X171481180Y-128522971D02*
X171528800Y-128570590D01*
X171528800Y-128570590D02*
X171576419Y-128713447D01*
X171576419Y-128713447D02*
X171576419Y-128808685D01*
X171576419Y-128808685D02*
X171528800Y-128951542D01*
X171528800Y-128951542D02*
X171433561Y-129046780D01*
X171433561Y-129046780D02*
X171338323Y-129094399D01*
X171338323Y-129094399D02*
X171147847Y-129142018D01*
X171147847Y-129142018D02*
X171004990Y-129142018D01*
X171004990Y-129142018D02*
X170814514Y-129094399D01*
X170814514Y-129094399D02*
X170719276Y-129046780D01*
X170719276Y-129046780D02*
X170624038Y-128951542D01*
X170624038Y-128951542D02*
X170576419Y-128808685D01*
X170576419Y-128808685D02*
X170576419Y-128713447D01*
X170576419Y-128713447D02*
X170624038Y-128570590D01*
X170624038Y-128570590D02*
X170671657Y-128522971D01*
D10*
X134496571Y-148001600D02*
X135868000Y-148001600D01*
X135182285Y-148687314D02*
X135182285Y-147315885D01*
X137667999Y-148687314D02*
X136639428Y-148687314D01*
X137153713Y-148687314D02*
X137153713Y-146887314D01*
X137153713Y-146887314D02*
X136982285Y-147144457D01*
X136982285Y-147144457D02*
X136810856Y-147315885D01*
X136810856Y-147315885D02*
X136639428Y-147401600D01*
X138353714Y-147058742D02*
X138439428Y-146973028D01*
X138439428Y-146973028D02*
X138610857Y-146887314D01*
X138610857Y-146887314D02*
X139039428Y-146887314D01*
X139039428Y-146887314D02*
X139210857Y-146973028D01*
X139210857Y-146973028D02*
X139296571Y-147058742D01*
X139296571Y-147058742D02*
X139382285Y-147230171D01*
X139382285Y-147230171D02*
X139382285Y-147401600D01*
X139382285Y-147401600D02*
X139296571Y-147658742D01*
X139296571Y-147658742D02*
X138267999Y-148687314D01*
X138267999Y-148687314D02*
X139382285Y-148687314D01*
X139896571Y-146887314D02*
X140496571Y-148687314D01*
X140496571Y-148687314D02*
X141096571Y-146887314D01*
X183198720Y-119268885D02*
X183113006Y-119354600D01*
X183113006Y-119354600D02*
X182855863Y-119440314D01*
X182855863Y-119440314D02*
X182684435Y-119440314D01*
X182684435Y-119440314D02*
X182427292Y-119354600D01*
X182427292Y-119354600D02*
X182255863Y-119183171D01*
X182255863Y-119183171D02*
X182170149Y-119011742D01*
X182170149Y-119011742D02*
X182084435Y-118668885D01*
X182084435Y-118668885D02*
X182084435Y-118411742D01*
X182084435Y-118411742D02*
X182170149Y-118068885D01*
X182170149Y-118068885D02*
X182255863Y-117897457D01*
X182255863Y-117897457D02*
X182427292Y-117726028D01*
X182427292Y-117726028D02*
X182684435Y-117640314D01*
X182684435Y-117640314D02*
X182855863Y-117640314D01*
X182855863Y-117640314D02*
X183113006Y-117726028D01*
X183113006Y-117726028D02*
X183198720Y-117811742D01*
X183713006Y-117640314D02*
X184313006Y-119440314D01*
X184313006Y-119440314D02*
X184913006Y-117640314D01*
X103958136Y-125346028D02*
X103786708Y-125260314D01*
X103786708Y-125260314D02*
X103529565Y-125260314D01*
X103529565Y-125260314D02*
X103272422Y-125346028D01*
X103272422Y-125346028D02*
X103100993Y-125517457D01*
X103100993Y-125517457D02*
X103015279Y-125688885D01*
X103015279Y-125688885D02*
X102929565Y-126031742D01*
X102929565Y-126031742D02*
X102929565Y-126288885D01*
X102929565Y-126288885D02*
X103015279Y-126631742D01*
X103015279Y-126631742D02*
X103100993Y-126803171D01*
X103100993Y-126803171D02*
X103272422Y-126974600D01*
X103272422Y-126974600D02*
X103529565Y-127060314D01*
X103529565Y-127060314D02*
X103700993Y-127060314D01*
X103700993Y-127060314D02*
X103958136Y-126974600D01*
X103958136Y-126974600D02*
X104043850Y-126888885D01*
X104043850Y-126888885D02*
X104043850Y-126288885D01*
X104043850Y-126288885D02*
X103700993Y-126288885D01*
X104815279Y-127060314D02*
X104815279Y-125260314D01*
X104815279Y-125260314D02*
X105843850Y-127060314D01*
X105843850Y-127060314D02*
X105843850Y-125260314D01*
X106700993Y-127060314D02*
X106700993Y-125260314D01*
X106700993Y-125260314D02*
X107129564Y-125260314D01*
X107129564Y-125260314D02*
X107386707Y-125346028D01*
X107386707Y-125346028D02*
X107558136Y-125517457D01*
X107558136Y-125517457D02*
X107643850Y-125688885D01*
X107643850Y-125688885D02*
X107729564Y-126031742D01*
X107729564Y-126031742D02*
X107729564Y-126288885D01*
X107729564Y-126288885D02*
X107643850Y-126631742D01*
X107643850Y-126631742D02*
X107558136Y-126803171D01*
X107558136Y-126803171D02*
X107386707Y-126974600D01*
X107386707Y-126974600D02*
X107129564Y-127060314D01*
X107129564Y-127060314D02*
X106700993Y-127060314D01*
X103015279Y-121294600D02*
X104386708Y-121294600D01*
X103700993Y-121980314D02*
X103700993Y-120608885D01*
X106100993Y-120180314D02*
X105243850Y-120180314D01*
X105243850Y-120180314D02*
X105158136Y-121037457D01*
X105158136Y-121037457D02*
X105243850Y-120951742D01*
X105243850Y-120951742D02*
X105415279Y-120866028D01*
X105415279Y-120866028D02*
X105843850Y-120866028D01*
X105843850Y-120866028D02*
X106015279Y-120951742D01*
X106015279Y-120951742D02*
X106100993Y-121037457D01*
X106100993Y-121037457D02*
X106186707Y-121208885D01*
X106186707Y-121208885D02*
X106186707Y-121637457D01*
X106186707Y-121637457D02*
X106100993Y-121808885D01*
X106100993Y-121808885D02*
X106015279Y-121894600D01*
X106015279Y-121894600D02*
X105843850Y-121980314D01*
X105843850Y-121980314D02*
X105415279Y-121980314D01*
X105415279Y-121980314D02*
X105243850Y-121894600D01*
X105243850Y-121894600D02*
X105158136Y-121808885D01*
X106700993Y-120180314D02*
X107300993Y-121980314D01*
X107300993Y-121980314D02*
X107900993Y-120180314D01*
X106186707Y-119268885D02*
X106100993Y-119354600D01*
X106100993Y-119354600D02*
X105843850Y-119440314D01*
X105843850Y-119440314D02*
X105672422Y-119440314D01*
X105672422Y-119440314D02*
X105415279Y-119354600D01*
X105415279Y-119354600D02*
X105243850Y-119183171D01*
X105243850Y-119183171D02*
X105158136Y-119011742D01*
X105158136Y-119011742D02*
X105072422Y-118668885D01*
X105072422Y-118668885D02*
X105072422Y-118411742D01*
X105072422Y-118411742D02*
X105158136Y-118068885D01*
X105158136Y-118068885D02*
X105243850Y-117897457D01*
X105243850Y-117897457D02*
X105415279Y-117726028D01*
X105415279Y-117726028D02*
X105672422Y-117640314D01*
X105672422Y-117640314D02*
X105843850Y-117640314D01*
X105843850Y-117640314D02*
X106100993Y-117726028D01*
X106100993Y-117726028D02*
X106186707Y-117811742D01*
X106700993Y-117640314D02*
X107300993Y-119440314D01*
X107300993Y-119440314D02*
X107900993Y-117640314D01*
X130274600Y-108503006D02*
X130274600Y-107131578D01*
X130960314Y-107817292D02*
X129588885Y-107817292D01*
X130960314Y-105331578D02*
X130960314Y-106360149D01*
X130960314Y-105845864D02*
X129160314Y-105845864D01*
X129160314Y-105845864D02*
X129417457Y-106017292D01*
X129417457Y-106017292D02*
X129588885Y-106188721D01*
X129588885Y-106188721D02*
X129674600Y-106360149D01*
X129331742Y-104645863D02*
X129246028Y-104560149D01*
X129246028Y-104560149D02*
X129160314Y-104388721D01*
X129160314Y-104388721D02*
X129160314Y-103960149D01*
X129160314Y-103960149D02*
X129246028Y-103788721D01*
X129246028Y-103788721D02*
X129331742Y-103703006D01*
X129331742Y-103703006D02*
X129503171Y-103617292D01*
X129503171Y-103617292D02*
X129674600Y-103617292D01*
X129674600Y-103617292D02*
X129931742Y-103703006D01*
X129931742Y-103703006D02*
X130960314Y-104731578D01*
X130960314Y-104731578D02*
X130960314Y-103617292D01*
X129160314Y-103103006D02*
X130960314Y-102503006D01*
X130960314Y-102503006D02*
X129160314Y-101903006D01*
X183113006Y-125346028D02*
X182941578Y-125260314D01*
X182941578Y-125260314D02*
X182684435Y-125260314D01*
X182684435Y-125260314D02*
X182427292Y-125346028D01*
X182427292Y-125346028D02*
X182255863Y-125517457D01*
X182255863Y-125517457D02*
X182170149Y-125688885D01*
X182170149Y-125688885D02*
X182084435Y-126031742D01*
X182084435Y-126031742D02*
X182084435Y-126288885D01*
X182084435Y-126288885D02*
X182170149Y-126631742D01*
X182170149Y-126631742D02*
X182255863Y-126803171D01*
X182255863Y-126803171D02*
X182427292Y-126974600D01*
X182427292Y-126974600D02*
X182684435Y-127060314D01*
X182684435Y-127060314D02*
X182855863Y-127060314D01*
X182855863Y-127060314D02*
X183113006Y-126974600D01*
X183113006Y-126974600D02*
X183198720Y-126888885D01*
X183198720Y-126888885D02*
X183198720Y-126288885D01*
X183198720Y-126288885D02*
X182855863Y-126288885D01*
X183970149Y-127060314D02*
X183970149Y-125260314D01*
X183970149Y-125260314D02*
X184998720Y-127060314D01*
X184998720Y-127060314D02*
X184998720Y-125260314D01*
X185855863Y-127060314D02*
X185855863Y-125260314D01*
X185855863Y-125260314D02*
X186284434Y-125260314D01*
X186284434Y-125260314D02*
X186541577Y-125346028D01*
X186541577Y-125346028D02*
X186713006Y-125517457D01*
X186713006Y-125517457D02*
X186798720Y-125688885D01*
X186798720Y-125688885D02*
X186884434Y-126031742D01*
X186884434Y-126031742D02*
X186884434Y-126288885D01*
X186884434Y-126288885D02*
X186798720Y-126631742D01*
X186798720Y-126631742D02*
X186713006Y-126803171D01*
X186713006Y-126803171D02*
X186541577Y-126974600D01*
X186541577Y-126974600D02*
X186284434Y-127060314D01*
X186284434Y-127060314D02*
X185855863Y-127060314D01*
X183113006Y-130426028D02*
X182941578Y-130340314D01*
X182941578Y-130340314D02*
X182684435Y-130340314D01*
X182684435Y-130340314D02*
X182427292Y-130426028D01*
X182427292Y-130426028D02*
X182255863Y-130597457D01*
X182255863Y-130597457D02*
X182170149Y-130768885D01*
X182170149Y-130768885D02*
X182084435Y-131111742D01*
X182084435Y-131111742D02*
X182084435Y-131368885D01*
X182084435Y-131368885D02*
X182170149Y-131711742D01*
X182170149Y-131711742D02*
X182255863Y-131883171D01*
X182255863Y-131883171D02*
X182427292Y-132054600D01*
X182427292Y-132054600D02*
X182684435Y-132140314D01*
X182684435Y-132140314D02*
X182855863Y-132140314D01*
X182855863Y-132140314D02*
X183113006Y-132054600D01*
X183113006Y-132054600D02*
X183198720Y-131968885D01*
X183198720Y-131968885D02*
X183198720Y-131368885D01*
X183198720Y-131368885D02*
X182855863Y-131368885D01*
X183970149Y-132140314D02*
X183970149Y-130340314D01*
X183970149Y-130340314D02*
X184998720Y-132140314D01*
X184998720Y-132140314D02*
X184998720Y-130340314D01*
X185855863Y-132140314D02*
X185855863Y-130340314D01*
X185855863Y-130340314D02*
X186284434Y-130340314D01*
X186284434Y-130340314D02*
X186541577Y-130426028D01*
X186541577Y-130426028D02*
X186713006Y-130597457D01*
X186713006Y-130597457D02*
X186798720Y-130768885D01*
X186798720Y-130768885D02*
X186884434Y-131111742D01*
X186884434Y-131111742D02*
X186884434Y-131368885D01*
X186884434Y-131368885D02*
X186798720Y-131711742D01*
X186798720Y-131711742D02*
X186713006Y-131883171D01*
X186713006Y-131883171D02*
X186541577Y-132054600D01*
X186541577Y-132054600D02*
X186284434Y-132140314D01*
X186284434Y-132140314D02*
X185855863Y-132140314D01*
X145424600Y-108503006D02*
X145424600Y-107131578D01*
X146110314Y-105331578D02*
X146110314Y-106360149D01*
X146110314Y-105845864D02*
X144310314Y-105845864D01*
X144310314Y-105845864D02*
X144567457Y-106017292D01*
X144567457Y-106017292D02*
X144738885Y-106188721D01*
X144738885Y-106188721D02*
X144824600Y-106360149D01*
X144481742Y-104645863D02*
X144396028Y-104560149D01*
X144396028Y-104560149D02*
X144310314Y-104388721D01*
X144310314Y-104388721D02*
X144310314Y-103960149D01*
X144310314Y-103960149D02*
X144396028Y-103788721D01*
X144396028Y-103788721D02*
X144481742Y-103703006D01*
X144481742Y-103703006D02*
X144653171Y-103617292D01*
X144653171Y-103617292D02*
X144824600Y-103617292D01*
X144824600Y-103617292D02*
X145081742Y-103703006D01*
X145081742Y-103703006D02*
X146110314Y-104731578D01*
X146110314Y-104731578D02*
X146110314Y-103617292D01*
X144310314Y-103103006D02*
X146110314Y-102503006D01*
X146110314Y-102503006D02*
X144310314Y-101903006D01*
X182170149Y-123834600D02*
X183541578Y-123834600D01*
X182855863Y-124520314D02*
X182855863Y-123148885D01*
X185341577Y-124520314D02*
X184313006Y-124520314D01*
X184827291Y-124520314D02*
X184827291Y-122720314D01*
X184827291Y-122720314D02*
X184655863Y-122977457D01*
X184655863Y-122977457D02*
X184484434Y-123148885D01*
X184484434Y-123148885D02*
X184313006Y-123234600D01*
X186027292Y-122891742D02*
X186113006Y-122806028D01*
X186113006Y-122806028D02*
X186284435Y-122720314D01*
X186284435Y-122720314D02*
X186713006Y-122720314D01*
X186713006Y-122720314D02*
X186884435Y-122806028D01*
X186884435Y-122806028D02*
X186970149Y-122891742D01*
X186970149Y-122891742D02*
X187055863Y-123063171D01*
X187055863Y-123063171D02*
X187055863Y-123234600D01*
X187055863Y-123234600D02*
X186970149Y-123491742D01*
X186970149Y-123491742D02*
X185941577Y-124520314D01*
X185941577Y-124520314D02*
X187055863Y-124520314D01*
X187570149Y-122720314D02*
X188170149Y-124520314D01*
X188170149Y-124520314D02*
X188770149Y-122720314D01*
X166268571Y-146973028D02*
X166097143Y-146887314D01*
X166097143Y-146887314D02*
X165840000Y-146887314D01*
X165840000Y-146887314D02*
X165582857Y-146973028D01*
X165582857Y-146973028D02*
X165411428Y-147144457D01*
X165411428Y-147144457D02*
X165325714Y-147315885D01*
X165325714Y-147315885D02*
X165240000Y-147658742D01*
X165240000Y-147658742D02*
X165240000Y-147915885D01*
X165240000Y-147915885D02*
X165325714Y-148258742D01*
X165325714Y-148258742D02*
X165411428Y-148430171D01*
X165411428Y-148430171D02*
X165582857Y-148601600D01*
X165582857Y-148601600D02*
X165840000Y-148687314D01*
X165840000Y-148687314D02*
X166011428Y-148687314D01*
X166011428Y-148687314D02*
X166268571Y-148601600D01*
X166268571Y-148601600D02*
X166354285Y-148515885D01*
X166354285Y-148515885D02*
X166354285Y-147915885D01*
X166354285Y-147915885D02*
X166011428Y-147915885D01*
X167125714Y-148687314D02*
X167125714Y-146887314D01*
X167125714Y-146887314D02*
X168154285Y-148687314D01*
X168154285Y-148687314D02*
X168154285Y-146887314D01*
X169011428Y-148687314D02*
X169011428Y-146887314D01*
X169011428Y-146887314D02*
X169439999Y-146887314D01*
X169439999Y-146887314D02*
X169697142Y-146973028D01*
X169697142Y-146973028D02*
X169868571Y-147144457D01*
X169868571Y-147144457D02*
X169954285Y-147315885D01*
X169954285Y-147315885D02*
X170039999Y-147658742D01*
X170039999Y-147658742D02*
X170039999Y-147915885D01*
X170039999Y-147915885D02*
X169954285Y-148258742D01*
X169954285Y-148258742D02*
X169868571Y-148430171D01*
X169868571Y-148430171D02*
X169697142Y-148601600D01*
X169697142Y-148601600D02*
X169439999Y-148687314D01*
X169439999Y-148687314D02*
X169011428Y-148687314D01*
X115452600Y-106788720D02*
X115452600Y-105417292D01*
X116138314Y-106103006D02*
X114766885Y-106103006D01*
X114338314Y-103703006D02*
X114338314Y-104560149D01*
X114338314Y-104560149D02*
X115195457Y-104645863D01*
X115195457Y-104645863D02*
X115109742Y-104560149D01*
X115109742Y-104560149D02*
X115024028Y-104388721D01*
X115024028Y-104388721D02*
X115024028Y-103960149D01*
X115024028Y-103960149D02*
X115109742Y-103788721D01*
X115109742Y-103788721D02*
X115195457Y-103703006D01*
X115195457Y-103703006D02*
X115366885Y-103617292D01*
X115366885Y-103617292D02*
X115795457Y-103617292D01*
X115795457Y-103617292D02*
X115966885Y-103703006D01*
X115966885Y-103703006D02*
X116052600Y-103788721D01*
X116052600Y-103788721D02*
X116138314Y-103960149D01*
X116138314Y-103960149D02*
X116138314Y-104388721D01*
X116138314Y-104388721D02*
X116052600Y-104560149D01*
X116052600Y-104560149D02*
X115966885Y-104645863D01*
X114338314Y-103103006D02*
X116138314Y-102503006D01*
X116138314Y-102503006D02*
X114338314Y-101903006D01*
X103958136Y-130426028D02*
X103786708Y-130340314D01*
X103786708Y-130340314D02*
X103529565Y-130340314D01*
X103529565Y-130340314D02*
X103272422Y-130426028D01*
X103272422Y-130426028D02*
X103100993Y-130597457D01*
X103100993Y-130597457D02*
X103015279Y-130768885D01*
X103015279Y-130768885D02*
X102929565Y-131111742D01*
X102929565Y-131111742D02*
X102929565Y-131368885D01*
X102929565Y-131368885D02*
X103015279Y-131711742D01*
X103015279Y-131711742D02*
X103100993Y-131883171D01*
X103100993Y-131883171D02*
X103272422Y-132054600D01*
X103272422Y-132054600D02*
X103529565Y-132140314D01*
X103529565Y-132140314D02*
X103700993Y-132140314D01*
X103700993Y-132140314D02*
X103958136Y-132054600D01*
X103958136Y-132054600D02*
X104043850Y-131968885D01*
X104043850Y-131968885D02*
X104043850Y-131368885D01*
X104043850Y-131368885D02*
X103700993Y-131368885D01*
X104815279Y-132140314D02*
X104815279Y-130340314D01*
X104815279Y-130340314D02*
X105843850Y-132140314D01*
X105843850Y-132140314D02*
X105843850Y-130340314D01*
X106700993Y-132140314D02*
X106700993Y-130340314D01*
X106700993Y-130340314D02*
X107129564Y-130340314D01*
X107129564Y-130340314D02*
X107386707Y-130426028D01*
X107386707Y-130426028D02*
X107558136Y-130597457D01*
X107558136Y-130597457D02*
X107643850Y-130768885D01*
X107643850Y-130768885D02*
X107729564Y-131111742D01*
X107729564Y-131111742D02*
X107729564Y-131368885D01*
X107729564Y-131368885D02*
X107643850Y-131711742D01*
X107643850Y-131711742D02*
X107558136Y-131883171D01*
X107558136Y-131883171D02*
X107386707Y-132054600D01*
X107386707Y-132054600D02*
X107129564Y-132140314D01*
X107129564Y-132140314D02*
X106700993Y-132140314D01*
X101300993Y-133994600D02*
X102672422Y-133994600D01*
X104472421Y-134680314D02*
X103443850Y-134680314D01*
X103958135Y-134680314D02*
X103958135Y-132880314D01*
X103958135Y-132880314D02*
X103786707Y-133137457D01*
X103786707Y-133137457D02*
X103615278Y-133308885D01*
X103615278Y-133308885D02*
X103443850Y-133394600D01*
X105158136Y-133051742D02*
X105243850Y-132966028D01*
X105243850Y-132966028D02*
X105415279Y-132880314D01*
X105415279Y-132880314D02*
X105843850Y-132880314D01*
X105843850Y-132880314D02*
X106015279Y-132966028D01*
X106015279Y-132966028D02*
X106100993Y-133051742D01*
X106100993Y-133051742D02*
X106186707Y-133223171D01*
X106186707Y-133223171D02*
X106186707Y-133394600D01*
X106186707Y-133394600D02*
X106100993Y-133651742D01*
X106100993Y-133651742D02*
X105072421Y-134680314D01*
X105072421Y-134680314D02*
X106186707Y-134680314D01*
X106700993Y-132880314D02*
X107300993Y-134680314D01*
X107300993Y-134680314D02*
X107900993Y-132880314D01*
D11*
X125055333Y-108404819D02*
X124722000Y-107928628D01*
X124483905Y-108404819D02*
X124483905Y-107404819D01*
X124483905Y-107404819D02*
X124864857Y-107404819D01*
X124864857Y-107404819D02*
X124960095Y-107452438D01*
X124960095Y-107452438D02*
X125007714Y-107500057D01*
X125007714Y-107500057D02*
X125055333Y-107595295D01*
X125055333Y-107595295D02*
X125055333Y-107738152D01*
X125055333Y-107738152D02*
X125007714Y-107833390D01*
X125007714Y-107833390D02*
X124960095Y-107881009D01*
X124960095Y-107881009D02*
X124864857Y-107928628D01*
X124864857Y-107928628D02*
X124483905Y-107928628D01*
X126007714Y-108404819D02*
X125436286Y-108404819D01*
X125722000Y-108404819D02*
X125722000Y-107404819D01*
X125722000Y-107404819D02*
X125626762Y-107547676D01*
X125626762Y-107547676D02*
X125531524Y-107642914D01*
X125531524Y-107642914D02*
X125436286Y-107690533D01*
X117336666Y-144454819D02*
X117336666Y-145169104D01*
X117336666Y-145169104D02*
X117289047Y-145311961D01*
X117289047Y-145311961D02*
X117193809Y-145407200D01*
X117193809Y-145407200D02*
X117050952Y-145454819D01*
X117050952Y-145454819D02*
X116955714Y-145454819D01*
X118241428Y-144454819D02*
X118050952Y-144454819D01*
X118050952Y-144454819D02*
X117955714Y-144502438D01*
X117955714Y-144502438D02*
X117908095Y-144550057D01*
X117908095Y-144550057D02*
X117812857Y-144692914D01*
X117812857Y-144692914D02*
X117765238Y-144883390D01*
X117765238Y-144883390D02*
X117765238Y-145264342D01*
X117765238Y-145264342D02*
X117812857Y-145359580D01*
X117812857Y-145359580D02*
X117860476Y-145407200D01*
X117860476Y-145407200D02*
X117955714Y-145454819D01*
X117955714Y-145454819D02*
X118146190Y-145454819D01*
X118146190Y-145454819D02*
X118241428Y-145407200D01*
X118241428Y-145407200D02*
X118289047Y-145359580D01*
X118289047Y-145359580D02*
X118336666Y-145264342D01*
X118336666Y-145264342D02*
X118336666Y-145026247D01*
X118336666Y-145026247D02*
X118289047Y-144931009D01*
X118289047Y-144931009D02*
X118241428Y-144883390D01*
X118241428Y-144883390D02*
X118146190Y-144835771D01*
X118146190Y-144835771D02*
X117955714Y-144835771D01*
X117955714Y-144835771D02*
X117860476Y-144883390D01*
X117860476Y-144883390D02*
X117812857Y-144931009D01*
X117812857Y-144931009D02*
X117765238Y-145026247D01*
X149375905Y-109420819D02*
X149375905Y-108420819D01*
X149375905Y-108420819D02*
X149614000Y-108420819D01*
X149614000Y-108420819D02*
X149756857Y-108468438D01*
X149756857Y-108468438D02*
X149852095Y-108563676D01*
X149852095Y-108563676D02*
X149899714Y-108658914D01*
X149899714Y-108658914D02*
X149947333Y-108849390D01*
X149947333Y-108849390D02*
X149947333Y-108992247D01*
X149947333Y-108992247D02*
X149899714Y-109182723D01*
X149899714Y-109182723D02*
X149852095Y-109277961D01*
X149852095Y-109277961D02*
X149756857Y-109373200D01*
X149756857Y-109373200D02*
X149614000Y-109420819D01*
X149614000Y-109420819D02*
X149375905Y-109420819D01*
X150280667Y-108420819D02*
X150899714Y-108420819D01*
X150899714Y-108420819D02*
X150566381Y-108801771D01*
X150566381Y-108801771D02*
X150709238Y-108801771D01*
X150709238Y-108801771D02*
X150804476Y-108849390D01*
X150804476Y-108849390D02*
X150852095Y-108897009D01*
X150852095Y-108897009D02*
X150899714Y-108992247D01*
X150899714Y-108992247D02*
X150899714Y-109230342D01*
X150899714Y-109230342D02*
X150852095Y-109325580D01*
X150852095Y-109325580D02*
X150804476Y-109373200D01*
X150804476Y-109373200D02*
X150709238Y-109420819D01*
X150709238Y-109420819D02*
X150423524Y-109420819D01*
X150423524Y-109420819D02*
X150328286Y-109373200D01*
X150328286Y-109373200D02*
X150280667Y-109325580D01*
X180316666Y-135090819D02*
X180316666Y-135805104D01*
X180316666Y-135805104D02*
X180269047Y-135947961D01*
X180269047Y-135947961D02*
X180173809Y-136043200D01*
X180173809Y-136043200D02*
X180030952Y-136090819D01*
X180030952Y-136090819D02*
X179935714Y-136090819D01*
X181269047Y-135090819D02*
X180792857Y-135090819D01*
X180792857Y-135090819D02*
X180745238Y-135567009D01*
X180745238Y-135567009D02*
X180792857Y-135519390D01*
X180792857Y-135519390D02*
X180888095Y-135471771D01*
X180888095Y-135471771D02*
X181126190Y-135471771D01*
X181126190Y-135471771D02*
X181221428Y-135519390D01*
X181221428Y-135519390D02*
X181269047Y-135567009D01*
X181269047Y-135567009D02*
X181316666Y-135662247D01*
X181316666Y-135662247D02*
X181316666Y-135900342D01*
X181316666Y-135900342D02*
X181269047Y-135995580D01*
X181269047Y-135995580D02*
X181221428Y-136043200D01*
X181221428Y-136043200D02*
X181126190Y-136090819D01*
X181126190Y-136090819D02*
X180888095Y-136090819D01*
X180888095Y-136090819D02*
X180792857Y-136043200D01*
X180792857Y-136043200D02*
X180745238Y-135995580D01*
X155027333Y-108404819D02*
X154694000Y-107928628D01*
X154455905Y-108404819D02*
X154455905Y-107404819D01*
X154455905Y-107404819D02*
X154836857Y-107404819D01*
X154836857Y-107404819D02*
X154932095Y-107452438D01*
X154932095Y-107452438D02*
X154979714Y-107500057D01*
X154979714Y-107500057D02*
X155027333Y-107595295D01*
X155027333Y-107595295D02*
X155027333Y-107738152D01*
X155027333Y-107738152D02*
X154979714Y-107833390D01*
X154979714Y-107833390D02*
X154932095Y-107881009D01*
X154932095Y-107881009D02*
X154836857Y-107928628D01*
X154836857Y-107928628D02*
X154455905Y-107928628D01*
X155360667Y-107404819D02*
X155979714Y-107404819D01*
X155979714Y-107404819D02*
X155646381Y-107785771D01*
X155646381Y-107785771D02*
X155789238Y-107785771D01*
X155789238Y-107785771D02*
X155884476Y-107833390D01*
X155884476Y-107833390D02*
X155932095Y-107881009D01*
X155932095Y-107881009D02*
X155979714Y-107976247D01*
X155979714Y-107976247D02*
X155979714Y-108214342D01*
X155979714Y-108214342D02*
X155932095Y-108309580D01*
X155932095Y-108309580D02*
X155884476Y-108357200D01*
X155884476Y-108357200D02*
X155789238Y-108404819D01*
X155789238Y-108404819D02*
X155503524Y-108404819D01*
X155503524Y-108404819D02*
X155408286Y-108357200D01*
X155408286Y-108357200D02*
X155360667Y-108309580D01*
X132336666Y-144454819D02*
X132336666Y-145169104D01*
X132336666Y-145169104D02*
X132289047Y-145311961D01*
X132289047Y-145311961D02*
X132193809Y-145407200D01*
X132193809Y-145407200D02*
X132050952Y-145454819D01*
X132050952Y-145454819D02*
X131955714Y-145454819D01*
X132717619Y-144454819D02*
X133384285Y-144454819D01*
X133384285Y-144454819D02*
X132955714Y-145454819D01*
X140041333Y-108404819D02*
X139708000Y-107928628D01*
X139469905Y-108404819D02*
X139469905Y-107404819D01*
X139469905Y-107404819D02*
X139850857Y-107404819D01*
X139850857Y-107404819D02*
X139946095Y-107452438D01*
X139946095Y-107452438D02*
X139993714Y-107500057D01*
X139993714Y-107500057D02*
X140041333Y-107595295D01*
X140041333Y-107595295D02*
X140041333Y-107738152D01*
X140041333Y-107738152D02*
X139993714Y-107833390D01*
X139993714Y-107833390D02*
X139946095Y-107881009D01*
X139946095Y-107881009D02*
X139850857Y-107928628D01*
X139850857Y-107928628D02*
X139469905Y-107928628D01*
X140422286Y-107500057D02*
X140469905Y-107452438D01*
X140469905Y-107452438D02*
X140565143Y-107404819D01*
X140565143Y-107404819D02*
X140803238Y-107404819D01*
X140803238Y-107404819D02*
X140898476Y-107452438D01*
X140898476Y-107452438D02*
X140946095Y-107500057D01*
X140946095Y-107500057D02*
X140993714Y-107595295D01*
X140993714Y-107595295D02*
X140993714Y-107690533D01*
X140993714Y-107690533D02*
X140946095Y-107833390D01*
X140946095Y-107833390D02*
X140374667Y-108404819D01*
X140374667Y-108404819D02*
X140993714Y-108404819D01*
X147336666Y-144454819D02*
X147336666Y-145169104D01*
X147336666Y-145169104D02*
X147289047Y-145311961D01*
X147289047Y-145311961D02*
X147193809Y-145407200D01*
X147193809Y-145407200D02*
X147050952Y-145454819D01*
X147050952Y-145454819D02*
X146955714Y-145454819D01*
X147955714Y-144883390D02*
X147860476Y-144835771D01*
X147860476Y-144835771D02*
X147812857Y-144788152D01*
X147812857Y-144788152D02*
X147765238Y-144692914D01*
X147765238Y-144692914D02*
X147765238Y-144645295D01*
X147765238Y-144645295D02*
X147812857Y-144550057D01*
X147812857Y-144550057D02*
X147860476Y-144502438D01*
X147860476Y-144502438D02*
X147955714Y-144454819D01*
X147955714Y-144454819D02*
X148146190Y-144454819D01*
X148146190Y-144454819D02*
X148241428Y-144502438D01*
X148241428Y-144502438D02*
X148289047Y-144550057D01*
X148289047Y-144550057D02*
X148336666Y-144645295D01*
X148336666Y-144645295D02*
X148336666Y-144692914D01*
X148336666Y-144692914D02*
X148289047Y-144788152D01*
X148289047Y-144788152D02*
X148241428Y-144835771D01*
X148241428Y-144835771D02*
X148146190Y-144883390D01*
X148146190Y-144883390D02*
X147955714Y-144883390D01*
X147955714Y-144883390D02*
X147860476Y-144931009D01*
X147860476Y-144931009D02*
X147812857Y-144978628D01*
X147812857Y-144978628D02*
X147765238Y-145073866D01*
X147765238Y-145073866D02*
X147765238Y-145264342D01*
X147765238Y-145264342D02*
X147812857Y-145359580D01*
X147812857Y-145359580D02*
X147860476Y-145407200D01*
X147860476Y-145407200D02*
X147955714Y-145454819D01*
X147955714Y-145454819D02*
X148146190Y-145454819D01*
X148146190Y-145454819D02*
X148241428Y-145407200D01*
X148241428Y-145407200D02*
X148289047Y-145359580D01*
X148289047Y-145359580D02*
X148336666Y-145264342D01*
X148336666Y-145264342D02*
X148336666Y-145073866D01*
X148336666Y-145073866D02*
X148289047Y-144978628D01*
X148289047Y-144978628D02*
X148241428Y-144931009D01*
X148241428Y-144931009D02*
X148146190Y-144883390D01*
X134389905Y-109166819D02*
X134389905Y-108166819D01*
X134389905Y-108166819D02*
X134628000Y-108166819D01*
X134628000Y-108166819D02*
X134770857Y-108214438D01*
X134770857Y-108214438D02*
X134866095Y-108309676D01*
X134866095Y-108309676D02*
X134913714Y-108404914D01*
X134913714Y-108404914D02*
X134961333Y-108595390D01*
X134961333Y-108595390D02*
X134961333Y-108738247D01*
X134961333Y-108738247D02*
X134913714Y-108928723D01*
X134913714Y-108928723D02*
X134866095Y-109023961D01*
X134866095Y-109023961D02*
X134770857Y-109119200D01*
X134770857Y-109119200D02*
X134628000Y-109166819D01*
X134628000Y-109166819D02*
X134389905Y-109166819D01*
X135342286Y-108262057D02*
X135389905Y-108214438D01*
X135389905Y-108214438D02*
X135485143Y-108166819D01*
X135485143Y-108166819D02*
X135723238Y-108166819D01*
X135723238Y-108166819D02*
X135818476Y-108214438D01*
X135818476Y-108214438D02*
X135866095Y-108262057D01*
X135866095Y-108262057D02*
X135913714Y-108357295D01*
X135913714Y-108357295D02*
X135913714Y-108452533D01*
X135913714Y-108452533D02*
X135866095Y-108595390D01*
X135866095Y-108595390D02*
X135294667Y-109166819D01*
X135294667Y-109166819D02*
X135913714Y-109166819D01*
X150316666Y-135090819D02*
X150316666Y-135805104D01*
X150316666Y-135805104D02*
X150269047Y-135947961D01*
X150269047Y-135947961D02*
X150173809Y-136043200D01*
X150173809Y-136043200D02*
X150030952Y-136090819D01*
X150030952Y-136090819D02*
X149935714Y-136090819D01*
X150697619Y-135090819D02*
X151316666Y-135090819D01*
X151316666Y-135090819D02*
X150983333Y-135471771D01*
X150983333Y-135471771D02*
X151126190Y-135471771D01*
X151126190Y-135471771D02*
X151221428Y-135519390D01*
X151221428Y-135519390D02*
X151269047Y-135567009D01*
X151269047Y-135567009D02*
X151316666Y-135662247D01*
X151316666Y-135662247D02*
X151316666Y-135900342D01*
X151316666Y-135900342D02*
X151269047Y-135995580D01*
X151269047Y-135995580D02*
X151221428Y-136043200D01*
X151221428Y-136043200D02*
X151126190Y-136090819D01*
X151126190Y-136090819D02*
X150840476Y-136090819D01*
X150840476Y-136090819D02*
X150745238Y-136043200D01*
X150745238Y-136043200D02*
X150697619Y-135995580D01*
X162336666Y-144454819D02*
X162336666Y-145169104D01*
X162336666Y-145169104D02*
X162289047Y-145311961D01*
X162289047Y-145311961D02*
X162193809Y-145407200D01*
X162193809Y-145407200D02*
X162050952Y-145454819D01*
X162050952Y-145454819D02*
X161955714Y-145454819D01*
X162860476Y-145454819D02*
X163050952Y-145454819D01*
X163050952Y-145454819D02*
X163146190Y-145407200D01*
X163146190Y-145407200D02*
X163193809Y-145359580D01*
X163193809Y-145359580D02*
X163289047Y-145216723D01*
X163289047Y-145216723D02*
X163336666Y-145026247D01*
X163336666Y-145026247D02*
X163336666Y-144645295D01*
X163336666Y-144645295D02*
X163289047Y-144550057D01*
X163289047Y-144550057D02*
X163241428Y-144502438D01*
X163241428Y-144502438D02*
X163146190Y-144454819D01*
X163146190Y-144454819D02*
X162955714Y-144454819D01*
X162955714Y-144454819D02*
X162860476Y-144502438D01*
X162860476Y-144502438D02*
X162812857Y-144550057D01*
X162812857Y-144550057D02*
X162765238Y-144645295D01*
X162765238Y-144645295D02*
X162765238Y-144883390D01*
X162765238Y-144883390D02*
X162812857Y-144978628D01*
X162812857Y-144978628D02*
X162860476Y-145026247D01*
X162860476Y-145026247D02*
X162955714Y-145073866D01*
X162955714Y-145073866D02*
X163146190Y-145073866D01*
X163146190Y-145073866D02*
X163241428Y-145026247D01*
X163241428Y-145026247D02*
X163289047Y-144978628D01*
X163289047Y-144978628D02*
X163336666Y-144883390D01*
X119403905Y-109420819D02*
X119403905Y-108420819D01*
X119403905Y-108420819D02*
X119642000Y-108420819D01*
X119642000Y-108420819D02*
X119784857Y-108468438D01*
X119784857Y-108468438D02*
X119880095Y-108563676D01*
X119880095Y-108563676D02*
X119927714Y-108658914D01*
X119927714Y-108658914D02*
X119975333Y-108849390D01*
X119975333Y-108849390D02*
X119975333Y-108992247D01*
X119975333Y-108992247D02*
X119927714Y-109182723D01*
X119927714Y-109182723D02*
X119880095Y-109277961D01*
X119880095Y-109277961D02*
X119784857Y-109373200D01*
X119784857Y-109373200D02*
X119642000Y-109420819D01*
X119642000Y-109420819D02*
X119403905Y-109420819D01*
X120927714Y-109420819D02*
X120356286Y-109420819D01*
X120642000Y-109420819D02*
X120642000Y-108420819D01*
X120642000Y-108420819D02*
X120546762Y-108563676D01*
X120546762Y-108563676D02*
X120451524Y-108658914D01*
X120451524Y-108658914D02*
X120356286Y-108706533D01*
X120316666Y-135090819D02*
X120316666Y-135805104D01*
X120316666Y-135805104D02*
X120269047Y-135947961D01*
X120269047Y-135947961D02*
X120173809Y-136043200D01*
X120173809Y-136043200D02*
X120030952Y-136090819D01*
X120030952Y-136090819D02*
X119935714Y-136090819D01*
X121316666Y-136090819D02*
X120745238Y-136090819D01*
X121030952Y-136090819D02*
X121030952Y-135090819D01*
X121030952Y-135090819D02*
X120935714Y-135233676D01*
X120935714Y-135233676D02*
X120840476Y-135328914D01*
X120840476Y-135328914D02*
X120745238Y-135376533D01*
X165316666Y-135090819D02*
X165316666Y-135805104D01*
X165316666Y-135805104D02*
X165269047Y-135947961D01*
X165269047Y-135947961D02*
X165173809Y-136043200D01*
X165173809Y-136043200D02*
X165030952Y-136090819D01*
X165030952Y-136090819D02*
X164935714Y-136090819D01*
X166221428Y-135424152D02*
X166221428Y-136090819D01*
X165983333Y-135043200D02*
X165745238Y-135757485D01*
X165745238Y-135757485D02*
X166364285Y-135757485D01*
X135316666Y-135090819D02*
X135316666Y-135805104D01*
X135316666Y-135805104D02*
X135269047Y-135947961D01*
X135269047Y-135947961D02*
X135173809Y-136043200D01*
X135173809Y-136043200D02*
X135030952Y-136090819D01*
X135030952Y-136090819D02*
X134935714Y-136090819D01*
X135745238Y-135186057D02*
X135792857Y-135138438D01*
X135792857Y-135138438D02*
X135888095Y-135090819D01*
X135888095Y-135090819D02*
X136126190Y-135090819D01*
X136126190Y-135090819D02*
X136221428Y-135138438D01*
X136221428Y-135138438D02*
X136269047Y-135186057D01*
X136269047Y-135186057D02*
X136316666Y-135281295D01*
X136316666Y-135281295D02*
X136316666Y-135376533D01*
X136316666Y-135376533D02*
X136269047Y-135519390D01*
X136269047Y-135519390D02*
X135697619Y-136090819D01*
X135697619Y-136090819D02*
X136316666Y-136090819D01*
D13*
%TO.C,R1*%
X125222000Y-104973000D02*
X125222000Y-105043000D01*
X126592000Y-103603000D02*
G75*
G02*
X123852000Y-103603000I-1370000J0D01*
G01*
X123852000Y-103603000D02*
G75*
G02*
X126592000Y-103603000I1370000J0D01*
G01*
%TO.C,J6*%
X118670000Y-146330000D02*
X118670000Y-145000000D01*
X120000000Y-146330000D02*
X118670000Y-146330000D01*
X121270000Y-143670000D02*
X126410000Y-143670000D01*
X121270000Y-146330000D02*
X121270000Y-143670000D01*
X121270000Y-146330000D02*
X126410000Y-146330000D01*
X126410000Y-146330000D02*
X126410000Y-143670000D01*
%TO.C,D3*%
X151545000Y-102342000D02*
X148455000Y-102342000D01*
X150000462Y-107892000D02*
G75*
G02*
X148455170Y-102342000I-462J2990000D01*
G01*
X151544830Y-102342000D02*
G75*
G02*
X149999538Y-107892000I-1544830J-2560000D01*
G01*
X152500000Y-104902000D02*
G75*
G02*
X147500000Y-104902000I-2500000J0D01*
G01*
X147500000Y-104902000D02*
G75*
G02*
X152500000Y-104902000I2500000J0D01*
G01*
%TO.C,J5*%
X170440000Y-110883000D02*
X179560000Y-110883000D01*
X170440000Y-139083000D02*
X170440000Y-110883000D01*
X171750000Y-112183000D02*
X178250000Y-112183000D01*
X171750000Y-137783000D02*
X171750000Y-112183000D01*
X178250000Y-112183000D02*
X178250000Y-122933000D01*
X178250000Y-122933000D02*
X178250000Y-122933000D01*
X178250000Y-122933000D02*
X179560000Y-122933000D01*
X178250000Y-127033000D02*
X178250000Y-137783000D01*
X178250000Y-137783000D02*
X171750000Y-137783000D01*
X179560000Y-110883000D02*
X179560000Y-139083000D01*
X179560000Y-127033000D02*
X178250000Y-127033000D01*
X179560000Y-139083000D02*
X170440000Y-139083000D01*
X179950000Y-133873000D02*
X180950000Y-134373000D01*
X180950000Y-133373000D02*
X179950000Y-133873000D01*
X180950000Y-134373000D02*
X180950000Y-133373000D01*
%TO.C,R3*%
X155208000Y-105002000D02*
X155208000Y-105072000D01*
X156578000Y-103632000D02*
G75*
G02*
X153838000Y-103632000I-1370000J0D01*
G01*
X153838000Y-103632000D02*
G75*
G02*
X156578000Y-103632000I1370000J0D01*
G01*
%TO.C,J7*%
X133670000Y-146330000D02*
X133670000Y-145000000D01*
X135000000Y-146330000D02*
X133670000Y-146330000D01*
X136270000Y-143670000D02*
X141410000Y-143670000D01*
X136270000Y-146330000D02*
X136270000Y-143670000D01*
X136270000Y-146330000D02*
X141410000Y-146330000D01*
X141410000Y-146330000D02*
X141410000Y-143670000D01*
%TO.C,R2*%
X140208000Y-105002000D02*
X140208000Y-105072000D01*
X141578000Y-103632000D02*
G75*
G02*
X138838000Y-103632000I-1370000J0D01*
G01*
X138838000Y-103632000D02*
G75*
G02*
X141578000Y-103632000I1370000J0D01*
G01*
%TO.C,J8*%
X148670000Y-146330000D02*
X148670000Y-145000000D01*
X150000000Y-146330000D02*
X148670000Y-146330000D01*
X151270000Y-143670000D02*
X156410000Y-143670000D01*
X151270000Y-146330000D02*
X151270000Y-143670000D01*
X151270000Y-146330000D02*
X156410000Y-146330000D01*
X156410000Y-146330000D02*
X156410000Y-143670000D01*
%TO.C,D2*%
X136545000Y-102342000D02*
X133455000Y-102342000D01*
X135000462Y-107892000D02*
G75*
G02*
X133455170Y-102342000I-462J2990000D01*
G01*
X136544830Y-102342000D02*
G75*
G02*
X134999538Y-107892000I-1544830J-2560000D01*
G01*
X137500000Y-104902000D02*
G75*
G02*
X132500000Y-104902000I-2500000J0D01*
G01*
X132500000Y-104902000D02*
G75*
G02*
X137500000Y-104902000I2500000J0D01*
G01*
%TO.C,J3*%
X140440000Y-110883000D02*
X149560000Y-110883000D01*
X140440000Y-139083000D02*
X140440000Y-110883000D01*
X141750000Y-112183000D02*
X148250000Y-112183000D01*
X141750000Y-137783000D02*
X141750000Y-112183000D01*
X148250000Y-112183000D02*
X148250000Y-122933000D01*
X148250000Y-122933000D02*
X148250000Y-122933000D01*
X148250000Y-122933000D02*
X149560000Y-122933000D01*
X148250000Y-127033000D02*
X148250000Y-137783000D01*
X148250000Y-137783000D02*
X141750000Y-137783000D01*
X149560000Y-110883000D02*
X149560000Y-139083000D01*
X149560000Y-127033000D02*
X148250000Y-127033000D01*
X149560000Y-139083000D02*
X140440000Y-139083000D01*
X149950000Y-133873000D02*
X150950000Y-134373000D01*
X150950000Y-133373000D02*
X149950000Y-133873000D01*
X150950000Y-134373000D02*
X150950000Y-133373000D01*
%TO.C,J9*%
X163670000Y-146330000D02*
X163670000Y-145000000D01*
X165000000Y-146330000D02*
X163670000Y-146330000D01*
X166270000Y-143670000D02*
X171410000Y-143670000D01*
X166270000Y-146330000D02*
X166270000Y-143670000D01*
X166270000Y-146330000D02*
X171410000Y-146330000D01*
X171410000Y-146330000D02*
X171410000Y-143670000D01*
%TO.C,D1*%
X121545000Y-102342000D02*
X118455000Y-102342000D01*
X120000462Y-107892000D02*
G75*
G02*
X118455170Y-102342000I-462J2990000D01*
G01*
X121544830Y-102342000D02*
G75*
G02*
X119999538Y-107892000I-1544830J-2560000D01*
G01*
X122500000Y-104902000D02*
G75*
G02*
X117500000Y-104902000I-2500000J0D01*
G01*
X117500000Y-104902000D02*
G75*
G02*
X122500000Y-104902000I2500000J0D01*
G01*
%TO.C,J1*%
X110440000Y-110883000D02*
X119560000Y-110883000D01*
X110440000Y-139083000D02*
X110440000Y-110883000D01*
X111750000Y-112183000D02*
X118250000Y-112183000D01*
X111750000Y-137783000D02*
X111750000Y-112183000D01*
X118250000Y-112183000D02*
X118250000Y-122933000D01*
X118250000Y-122933000D02*
X118250000Y-122933000D01*
X118250000Y-122933000D02*
X119560000Y-122933000D01*
X118250000Y-127033000D02*
X118250000Y-137783000D01*
X118250000Y-137783000D02*
X111750000Y-137783000D01*
X119560000Y-110883000D02*
X119560000Y-139083000D01*
X119560000Y-127033000D02*
X118250000Y-127033000D01*
X119560000Y-139083000D02*
X110440000Y-139083000D01*
X119950000Y-133873000D02*
X120950000Y-134373000D01*
X120950000Y-133373000D02*
X119950000Y-133873000D01*
X120950000Y-134373000D02*
X120950000Y-133373000D01*
%TO.C,J4*%
X155440000Y-110883000D02*
X164560000Y-110883000D01*
X155440000Y-139083000D02*
X155440000Y-110883000D01*
X156750000Y-112183000D02*
X163250000Y-112183000D01*
X156750000Y-137783000D02*
X156750000Y-112183000D01*
X163250000Y-112183000D02*
X163250000Y-122933000D01*
X163250000Y-122933000D02*
X163250000Y-122933000D01*
X163250000Y-122933000D02*
X164560000Y-122933000D01*
X163250000Y-127033000D02*
X163250000Y-137783000D01*
X163250000Y-137783000D02*
X156750000Y-137783000D01*
X164560000Y-110883000D02*
X164560000Y-139083000D01*
X164560000Y-127033000D02*
X163250000Y-127033000D01*
X164560000Y-139083000D02*
X155440000Y-139083000D01*
X164950000Y-133873000D02*
X165950000Y-134373000D01*
X165950000Y-133373000D02*
X164950000Y-133873000D01*
X165950000Y-134373000D02*
X165950000Y-133373000D01*
%TO.C,J2*%
X125440000Y-110883000D02*
X134560000Y-110883000D01*
X125440000Y-139083000D02*
X125440000Y-110883000D01*
X126750000Y-112183000D02*
X133250000Y-112183000D01*
X126750000Y-137783000D02*
X126750000Y-112183000D01*
X133250000Y-112183000D02*
X133250000Y-122933000D01*
X133250000Y-122933000D02*
X133250000Y-122933000D01*
X133250000Y-122933000D02*
X134560000Y-122933000D01*
X133250000Y-127033000D02*
X133250000Y-137783000D01*
X133250000Y-137783000D02*
X126750000Y-137783000D01*
X134560000Y-110883000D02*
X134560000Y-139083000D01*
X134560000Y-127033000D02*
X133250000Y-127033000D01*
X134560000Y-139083000D02*
X125440000Y-139083000D01*
X134950000Y-133873000D02*
X135950000Y-134373000D01*
X135950000Y-133373000D02*
X134950000Y-133873000D01*
X135950000Y-134373000D02*
X135950000Y-133373000D01*
%TD*%
%LPC*%
D14*
%TO.C,R1*%
X125222000Y-103603000D03*
D15*
X125222000Y-106143000D03*
%TD*%
D16*
%TO.C,J6*%
X120000000Y-145000000D03*
D17*
X122540000Y-145000000D03*
X125080000Y-145000000D03*
%TD*%
D18*
%TO.C,H4*%
X185000000Y-145000000D03*
%TD*%
D19*
%TO.C,D3*%
X150000000Y-103632000D03*
D20*
X150000000Y-106172000D03*
%TD*%
D18*
%TO.C,H1*%
X105000000Y-105000000D03*
%TD*%
D21*
%TO.C,J5*%
X176270000Y-133873000D03*
D22*
X173730000Y-133873000D03*
X176270000Y-131333000D03*
X173730000Y-131333000D03*
X176270000Y-128793000D03*
X173730000Y-128793000D03*
X176270000Y-126253000D03*
X173730000Y-126253000D03*
X176270000Y-123713000D03*
X173730000Y-123713000D03*
X176270000Y-121173000D03*
X173730000Y-121173000D03*
X176270000Y-118633000D03*
X173730000Y-118633000D03*
X176270000Y-116093000D03*
X173730000Y-116093000D03*
%TD*%
D14*
%TO.C,R3*%
X155208000Y-103632000D03*
D15*
X155208000Y-106172000D03*
%TD*%
D16*
%TO.C,J7*%
X135000000Y-145000000D03*
D17*
X137540000Y-145000000D03*
X140080000Y-145000000D03*
%TD*%
D14*
%TO.C,R2*%
X140208000Y-103632000D03*
D15*
X140208000Y-106172000D03*
%TD*%
D16*
%TO.C,J8*%
X150000000Y-145000000D03*
D17*
X152540000Y-145000000D03*
X155080000Y-145000000D03*
%TD*%
D19*
%TO.C,D2*%
X135000000Y-103632000D03*
D20*
X135000000Y-106172000D03*
%TD*%
D21*
%TO.C,J3*%
X146270000Y-133873000D03*
D22*
X143730000Y-133873000D03*
X146270000Y-131333000D03*
X143730000Y-131333000D03*
X146270000Y-128793000D03*
X143730000Y-128793000D03*
X146270000Y-126253000D03*
X143730000Y-126253000D03*
X146270000Y-123713000D03*
X143730000Y-123713000D03*
X146270000Y-121173000D03*
X143730000Y-121173000D03*
X146270000Y-118633000D03*
X143730000Y-118633000D03*
X146270000Y-116093000D03*
X143730000Y-116093000D03*
%TD*%
D18*
%TO.C,H3*%
X185000000Y-105000000D03*
%TD*%
D16*
%TO.C,J9*%
X165000000Y-145000000D03*
D17*
X167540000Y-145000000D03*
X170080000Y-145000000D03*
%TD*%
D18*
%TO.C,H2*%
X105000000Y-145000000D03*
%TD*%
D19*
%TO.C,D1*%
X120000000Y-103632000D03*
D20*
X120000000Y-106172000D03*
%TD*%
D21*
%TO.C,J1*%
X116270000Y-133873000D03*
D22*
X113730000Y-133873000D03*
X116270000Y-131333000D03*
X113730000Y-131333000D03*
X116270000Y-128793000D03*
X113730000Y-128793000D03*
X116270000Y-126253000D03*
X113730000Y-126253000D03*
X116270000Y-123713000D03*
X113730000Y-123713000D03*
X116270000Y-121173000D03*
X113730000Y-121173000D03*
X116270000Y-118633000D03*
X113730000Y-118633000D03*
X116270000Y-116093000D03*
X113730000Y-116093000D03*
%TD*%
D21*
%TO.C,J4*%
X161270000Y-133873000D03*
D22*
X158730000Y-133873000D03*
X161270000Y-131333000D03*
X158730000Y-131333000D03*
X161270000Y-128793000D03*
X158730000Y-128793000D03*
X161270000Y-126253000D03*
X158730000Y-126253000D03*
X161270000Y-123713000D03*
X158730000Y-123713000D03*
X161270000Y-121173000D03*
X158730000Y-121173000D03*
X161270000Y-118633000D03*
X158730000Y-118633000D03*
X161270000Y-116093000D03*
X158730000Y-116093000D03*
%TD*%
D21*
%TO.C,J2*%
X131270000Y-133873000D03*
D22*
X128730000Y-133873000D03*
X131270000Y-131333000D03*
X128730000Y-131333000D03*
X131270000Y-128793000D03*
X128730000Y-128793000D03*
X131270000Y-126253000D03*
X128730000Y-126253000D03*
X131270000Y-123713000D03*
X128730000Y-123713000D03*
X131270000Y-121173000D03*
X128730000Y-121173000D03*
X131270000Y-118633000D03*
X128730000Y-118633000D03*
X131270000Y-116093000D03*
X128730000Y-116093000D03*
%TD*%
%LPD*%
M02*
