%TF.GenerationSoftware,KiCad,Pcbnew,8.0.2*%
%TF.CreationDate,2024-05-02T10:02:12-07:00*%
%TF.ProjectId,busboard-1,62757362-6f61-4726-942d-312e6b696361,rev?*%
%TF.SameCoordinates,Original*%
%TF.FileFunction,Copper,L2,Bot*%
%TF.FilePolarity,Positive*%
%FSLAX46Y46*%
G04 Gerber Fmt 4.6, Leading zero omitted, Abs format (unit mm)*
G04 Created by KiCad (PCBNEW 8.0.2) date 2024-05-02 10:02:12*
%MOMM*%
%LPD*%
G01*
G04 APERTURE LIST*
G04 Aperture macros list*
%AMRoundRect*
0 Rectangle with rounded corners*
0 $1 Rounding radius*
0 $2 $3 $4 $5 $6 $7 $8 $9 X,Y pos of 4 corners*
0 Add a 4 corners polygon primitive as box body*
4,1,4,$2,$3,$4,$5,$6,$7,$8,$9,$2,$3,0*
0 Add four circle primitives for the rounded corners*
1,1,$1+$1,$2,$3*
1,1,$1+$1,$4,$5*
1,1,$1+$1,$6,$7*
1,1,$1+$1,$8,$9*
0 Add four rect primitives between the rounded corners*
20,1,$1+$1,$2,$3,$4,$5,0*
20,1,$1+$1,$4,$5,$6,$7,0*
20,1,$1+$1,$6,$7,$8,$9,0*
20,1,$1+$1,$8,$9,$2,$3,0*%
G04 Aperture macros list end*
%TA.AperFunction,ComponentPad*%
%ADD10C,1.600000*%
%TD*%
%TA.AperFunction,ComponentPad*%
%ADD11O,1.600000X1.600000*%
%TD*%
%TA.AperFunction,ComponentPad*%
%ADD12R,1.700000X1.700000*%
%TD*%
%TA.AperFunction,ComponentPad*%
%ADD13O,1.700000X1.700000*%
%TD*%
%TA.AperFunction,ComponentPad*%
%ADD14C,7.000000*%
%TD*%
%TA.AperFunction,ComponentPad*%
%ADD15R,1.800000X1.800000*%
%TD*%
%TA.AperFunction,ComponentPad*%
%ADD16C,1.800000*%
%TD*%
%TA.AperFunction,ComponentPad*%
%ADD17RoundRect,0.250000X0.600000X0.600000X-0.600000X0.600000X-0.600000X-0.600000X0.600000X-0.600000X0*%
%TD*%
%TA.AperFunction,ComponentPad*%
%ADD18C,1.700000*%
%TD*%
G04 APERTURE END LIST*
D10*
%TO.P,R1,1*%
%TO.N,Net-(D1-K)*%
X125222000Y-103603000D03*
D11*
%TO.P,R1,2*%
%TO.N,GND*%
X125222000Y-106143000D03*
%TD*%
D12*
%TO.P,J6,1,Pin_1*%
%TO.N,+5V*%
X120000000Y-145000000D03*
D13*
%TO.P,J6,2,Pin_2*%
X122540000Y-145000000D03*
%TO.P,J6,3,Pin_3*%
X125080000Y-145000000D03*
%TD*%
D14*
%TO.P,H4,1,1*%
%TO.N,GND*%
X185000000Y-145000000D03*
%TD*%
D15*
%TO.P,D3,1,K*%
%TO.N,-12V*%
X150000000Y-103632000D03*
D16*
%TO.P,D3,2,A*%
%TO.N,Net-(D3-A)*%
X150000000Y-106172000D03*
%TD*%
D14*
%TO.P,H1,1,1*%
%TO.N,GND*%
X105000000Y-105000000D03*
%TD*%
D17*
%TO.P,J5,1,Pin_1*%
%TO.N,-12V*%
X176270000Y-133873000D03*
D18*
%TO.P,J5,2,Pin_2*%
X173730000Y-133873000D03*
%TO.P,J5,3,Pin_3*%
%TO.N,GND*%
X176270000Y-131333000D03*
%TO.P,J5,4,Pin_4*%
X173730000Y-131333000D03*
%TO.P,J5,5,Pin_5*%
X176270000Y-128793000D03*
%TO.P,J5,6,Pin_6*%
X173730000Y-128793000D03*
%TO.P,J5,7,Pin_7*%
X176270000Y-126253000D03*
%TO.P,J5,8,Pin_8*%
X173730000Y-126253000D03*
%TO.P,J5,9,Pin_9*%
%TO.N,+12V*%
X176270000Y-123713000D03*
%TO.P,J5,10,Pin_10*%
X173730000Y-123713000D03*
%TO.P,J5,11,Pin_11*%
%TO.N,+5V*%
X176270000Y-121173000D03*
%TO.P,J5,12,Pin_12*%
X173730000Y-121173000D03*
%TO.P,J5,13,Pin_13*%
%TO.N,/CV*%
X176270000Y-118633000D03*
%TO.P,J5,14,Pin_14*%
X173730000Y-118633000D03*
%TO.P,J5,15,Pin_15*%
%TO.N,/GATE*%
X176270000Y-116093000D03*
%TO.P,J5,16,Pin_16*%
X173730000Y-116093000D03*
%TD*%
D10*
%TO.P,R3,1*%
%TO.N,GND*%
X155208000Y-103632000D03*
D11*
%TO.P,R3,2*%
%TO.N,Net-(D3-A)*%
X155208000Y-106172000D03*
%TD*%
D12*
%TO.P,J7,1,Pin_1*%
%TO.N,+12V*%
X135000000Y-145000000D03*
D13*
%TO.P,J7,2,Pin_2*%
X137540000Y-145000000D03*
%TO.P,J7,3,Pin_3*%
X140080000Y-145000000D03*
%TD*%
D10*
%TO.P,R2,1*%
%TO.N,Net-(D2-K)*%
X140208000Y-103632000D03*
D11*
%TO.P,R2,2*%
%TO.N,GND*%
X140208000Y-106172000D03*
%TD*%
D12*
%TO.P,J8,1,Pin_1*%
%TO.N,-12V*%
X150000000Y-145000000D03*
D13*
%TO.P,J8,2,Pin_2*%
X152540000Y-145000000D03*
%TO.P,J8,3,Pin_3*%
X155080000Y-145000000D03*
%TD*%
D15*
%TO.P,D2,1,K*%
%TO.N,Net-(D2-K)*%
X135000000Y-103632000D03*
D16*
%TO.P,D2,2,A*%
%TO.N,+12V*%
X135000000Y-106172000D03*
%TD*%
D17*
%TO.P,J3,1,Pin_1*%
%TO.N,-12V*%
X146270000Y-133873000D03*
D18*
%TO.P,J3,2,Pin_2*%
X143730000Y-133873000D03*
%TO.P,J3,3,Pin_3*%
%TO.N,GND*%
X146270000Y-131333000D03*
%TO.P,J3,4,Pin_4*%
X143730000Y-131333000D03*
%TO.P,J3,5,Pin_5*%
X146270000Y-128793000D03*
%TO.P,J3,6,Pin_6*%
X143730000Y-128793000D03*
%TO.P,J3,7,Pin_7*%
X146270000Y-126253000D03*
%TO.P,J3,8,Pin_8*%
X143730000Y-126253000D03*
%TO.P,J3,9,Pin_9*%
%TO.N,+12V*%
X146270000Y-123713000D03*
%TO.P,J3,10,Pin_10*%
X143730000Y-123713000D03*
%TO.P,J3,11,Pin_11*%
%TO.N,+5V*%
X146270000Y-121173000D03*
%TO.P,J3,12,Pin_12*%
X143730000Y-121173000D03*
%TO.P,J3,13,Pin_13*%
%TO.N,/CV*%
X146270000Y-118633000D03*
%TO.P,J3,14,Pin_14*%
X143730000Y-118633000D03*
%TO.P,J3,15,Pin_15*%
%TO.N,/GATE*%
X146270000Y-116093000D03*
%TO.P,J3,16,Pin_16*%
X143730000Y-116093000D03*
%TD*%
D14*
%TO.P,H3,1,1*%
%TO.N,GND*%
X185000000Y-105000000D03*
%TD*%
D12*
%TO.P,J9,1,Pin_1*%
%TO.N,GND*%
X165000000Y-145000000D03*
D13*
%TO.P,J9,2,Pin_2*%
X167540000Y-145000000D03*
%TO.P,J9,3,Pin_3*%
X170080000Y-145000000D03*
%TD*%
D14*
%TO.P,H2,1,1*%
%TO.N,GND*%
X105000000Y-145000000D03*
%TD*%
D15*
%TO.P,D1,1,K*%
%TO.N,Net-(D1-K)*%
X120000000Y-103632000D03*
D16*
%TO.P,D1,2,A*%
%TO.N,+5V*%
X120000000Y-106172000D03*
%TD*%
D17*
%TO.P,J1,1,Pin_1*%
%TO.N,-12V*%
X116270000Y-133873000D03*
D18*
%TO.P,J1,2,Pin_2*%
X113730000Y-133873000D03*
%TO.P,J1,3,Pin_3*%
%TO.N,GND*%
X116270000Y-131333000D03*
%TO.P,J1,4,Pin_4*%
X113730000Y-131333000D03*
%TO.P,J1,5,Pin_5*%
X116270000Y-128793000D03*
%TO.P,J1,6,Pin_6*%
X113730000Y-128793000D03*
%TO.P,J1,7,Pin_7*%
X116270000Y-126253000D03*
%TO.P,J1,8,Pin_8*%
X113730000Y-126253000D03*
%TO.P,J1,9,Pin_9*%
%TO.N,+12V*%
X116270000Y-123713000D03*
%TO.P,J1,10,Pin_10*%
X113730000Y-123713000D03*
%TO.P,J1,11,Pin_11*%
%TO.N,+5V*%
X116270000Y-121173000D03*
%TO.P,J1,12,Pin_12*%
X113730000Y-121173000D03*
%TO.P,J1,13,Pin_13*%
%TO.N,/CV*%
X116270000Y-118633000D03*
%TO.P,J1,14,Pin_14*%
X113730000Y-118633000D03*
%TO.P,J1,15,Pin_15*%
%TO.N,/GATE*%
X116270000Y-116093000D03*
%TO.P,J1,16,Pin_16*%
X113730000Y-116093000D03*
%TD*%
D17*
%TO.P,J4,1,Pin_1*%
%TO.N,-12V*%
X161270000Y-133873000D03*
D18*
%TO.P,J4,2,Pin_2*%
X158730000Y-133873000D03*
%TO.P,J4,3,Pin_3*%
%TO.N,GND*%
X161270000Y-131333000D03*
%TO.P,J4,4,Pin_4*%
X158730000Y-131333000D03*
%TO.P,J4,5,Pin_5*%
X161270000Y-128793000D03*
%TO.P,J4,6,Pin_6*%
X158730000Y-128793000D03*
%TO.P,J4,7,Pin_7*%
X161270000Y-126253000D03*
%TO.P,J4,8,Pin_8*%
X158730000Y-126253000D03*
%TO.P,J4,9,Pin_9*%
%TO.N,+12V*%
X161270000Y-123713000D03*
%TO.P,J4,10,Pin_10*%
X158730000Y-123713000D03*
%TO.P,J4,11,Pin_11*%
%TO.N,+5V*%
X161270000Y-121173000D03*
%TO.P,J4,12,Pin_12*%
X158730000Y-121173000D03*
%TO.P,J4,13,Pin_13*%
%TO.N,/CV*%
X161270000Y-118633000D03*
%TO.P,J4,14,Pin_14*%
X158730000Y-118633000D03*
%TO.P,J4,15,Pin_15*%
%TO.N,/GATE*%
X161270000Y-116093000D03*
%TO.P,J4,16,Pin_16*%
X158730000Y-116093000D03*
%TD*%
D17*
%TO.P,J2,1,Pin_1*%
%TO.N,-12V*%
X131270000Y-133873000D03*
D18*
%TO.P,J2,2,Pin_2*%
X128730000Y-133873000D03*
%TO.P,J2,3,Pin_3*%
%TO.N,GND*%
X131270000Y-131333000D03*
%TO.P,J2,4,Pin_4*%
X128730000Y-131333000D03*
%TO.P,J2,5,Pin_5*%
X131270000Y-128793000D03*
%TO.P,J2,6,Pin_6*%
X128730000Y-128793000D03*
%TO.P,J2,7,Pin_7*%
X131270000Y-126253000D03*
%TO.P,J2,8,Pin_8*%
X128730000Y-126253000D03*
%TO.P,J2,9,Pin_9*%
%TO.N,+12V*%
X131270000Y-123713000D03*
%TO.P,J2,10,Pin_10*%
X128730000Y-123713000D03*
%TO.P,J2,11,Pin_11*%
%TO.N,+5V*%
X131270000Y-121173000D03*
%TO.P,J2,12,Pin_12*%
X128730000Y-121173000D03*
%TO.P,J2,13,Pin_13*%
%TO.N,/CV*%
X131270000Y-118633000D03*
%TO.P,J2,14,Pin_14*%
X128730000Y-118633000D03*
%TO.P,J2,15,Pin_15*%
%TO.N,/GATE*%
X131270000Y-116093000D03*
%TO.P,J2,16,Pin_16*%
X128730000Y-116093000D03*
%TD*%
%TA.AperFunction,Conductor*%
%TO.N,GND*%
G36*
X167074075Y-144807007D02*
G01*
X167040000Y-144934174D01*
X167040000Y-145065826D01*
X167074075Y-145192993D01*
X167106988Y-145250000D01*
X165433012Y-145250000D01*
X165465925Y-145192993D01*
X165500000Y-145065826D01*
X165500000Y-144934174D01*
X165465925Y-144807007D01*
X165433012Y-144750000D01*
X167106988Y-144750000D01*
X167074075Y-144807007D01*
G37*
%TD.AperFunction*%
%TA.AperFunction,Conductor*%
G36*
X169614075Y-144807007D02*
G01*
X169580000Y-144934174D01*
X169580000Y-145065826D01*
X169614075Y-145192993D01*
X169646988Y-145250000D01*
X167973012Y-145250000D01*
X168005925Y-145192993D01*
X168040000Y-145065826D01*
X168040000Y-144934174D01*
X168005925Y-144807007D01*
X167973012Y-144750000D01*
X169646988Y-144750000D01*
X169614075Y-144807007D01*
G37*
%TD.AperFunction*%
%TA.AperFunction,Conductor*%
G36*
X115804075Y-131525993D02*
G01*
X115869901Y-131640007D01*
X115962993Y-131733099D01*
X116077007Y-131798925D01*
X116140590Y-131815962D01*
X115504208Y-132452342D01*
X115493788Y-132504193D01*
X115445172Y-132554376D01*
X115423032Y-132564205D01*
X115350674Y-132588182D01*
X115350663Y-132588187D01*
X115201342Y-132680289D01*
X115077289Y-132804342D01*
X114985187Y-132953663D01*
X114985183Y-132953673D01*
X114982335Y-132962268D01*
X114942560Y-133019711D01*
X114878044Y-133046531D01*
X114809268Y-133034214D01*
X114772517Y-133005233D01*
X114772324Y-133005427D01*
X114770682Y-133003785D01*
X114769642Y-133002965D01*
X114768494Y-133001597D01*
X114601402Y-132834506D01*
X114601401Y-132834505D01*
X114415405Y-132704269D01*
X114371781Y-132649692D01*
X114364588Y-132580193D01*
X114396110Y-132517839D01*
X114415405Y-132501119D01*
X114491373Y-132447925D01*
X113859409Y-131815962D01*
X113922993Y-131798925D01*
X114037007Y-131733099D01*
X114130099Y-131640007D01*
X114195925Y-131525993D01*
X114212962Y-131462410D01*
X114844925Y-132094373D01*
X114898425Y-132017968D01*
X114953002Y-131974344D01*
X115022501Y-131967151D01*
X115084855Y-131998673D01*
X115101576Y-132017969D01*
X115155073Y-132094372D01*
X115787037Y-131462409D01*
X115804075Y-131525993D01*
G37*
%TD.AperFunction*%
%TA.AperFunction,Conductor*%
G36*
X115804075Y-128985993D02*
G01*
X115869901Y-129100007D01*
X115962993Y-129193099D01*
X116077007Y-129258925D01*
X116140590Y-129275962D01*
X115508625Y-129907925D01*
X115585031Y-129961425D01*
X115628655Y-130016002D01*
X115635848Y-130085501D01*
X115604326Y-130147855D01*
X115585029Y-130164576D01*
X115508625Y-130218072D01*
X116140590Y-130850037D01*
X116077007Y-130867075D01*
X115962993Y-130932901D01*
X115869901Y-131025993D01*
X115804075Y-131140007D01*
X115787037Y-131203590D01*
X115155072Y-130571625D01*
X115155072Y-130571626D01*
X115101574Y-130648030D01*
X115046998Y-130691655D01*
X114977499Y-130698849D01*
X114915144Y-130667326D01*
X114898424Y-130648030D01*
X114844925Y-130571626D01*
X114844925Y-130571625D01*
X114212962Y-131203589D01*
X114195925Y-131140007D01*
X114130099Y-131025993D01*
X114037007Y-130932901D01*
X113922993Y-130867075D01*
X113859410Y-130850037D01*
X114491373Y-130218073D01*
X114414969Y-130164576D01*
X114371344Y-130109999D01*
X114364150Y-130040501D01*
X114395672Y-129978146D01*
X114414968Y-129961425D01*
X114491373Y-129907925D01*
X113859409Y-129275962D01*
X113922993Y-129258925D01*
X114037007Y-129193099D01*
X114130099Y-129100007D01*
X114195925Y-128985993D01*
X114212962Y-128922410D01*
X114844925Y-129554373D01*
X114898425Y-129477968D01*
X114953002Y-129434344D01*
X115022501Y-129427151D01*
X115084855Y-129458673D01*
X115101576Y-129477969D01*
X115155073Y-129554372D01*
X115787037Y-128922409D01*
X115804075Y-128985993D01*
G37*
%TD.AperFunction*%
%TA.AperFunction,Conductor*%
G36*
X115804075Y-126445993D02*
G01*
X115869901Y-126560007D01*
X115962993Y-126653099D01*
X116077007Y-126718925D01*
X116140590Y-126735962D01*
X115508625Y-127367925D01*
X115585031Y-127421425D01*
X115628655Y-127476002D01*
X115635848Y-127545501D01*
X115604326Y-127607855D01*
X115585029Y-127624576D01*
X115508625Y-127678072D01*
X116140590Y-128310037D01*
X116077007Y-128327075D01*
X115962993Y-128392901D01*
X115869901Y-128485993D01*
X115804075Y-128600007D01*
X115787037Y-128663590D01*
X115155072Y-128031625D01*
X115155072Y-128031626D01*
X115101574Y-128108030D01*
X115046998Y-128151655D01*
X114977499Y-128158849D01*
X114915144Y-128127326D01*
X114898424Y-128108030D01*
X114844925Y-128031626D01*
X114844925Y-128031625D01*
X114212962Y-128663589D01*
X114195925Y-128600007D01*
X114130099Y-128485993D01*
X114037007Y-128392901D01*
X113922993Y-128327075D01*
X113859410Y-128310037D01*
X114491373Y-127678073D01*
X114414969Y-127624576D01*
X114371344Y-127569999D01*
X114364150Y-127500501D01*
X114395672Y-127438146D01*
X114414968Y-127421425D01*
X114491373Y-127367925D01*
X113859409Y-126735962D01*
X113922993Y-126718925D01*
X114037007Y-126653099D01*
X114130099Y-126560007D01*
X114195925Y-126445993D01*
X114212962Y-126382410D01*
X114844925Y-127014373D01*
X114898425Y-126937968D01*
X114953002Y-126894344D01*
X115022501Y-126887151D01*
X115084855Y-126918673D01*
X115101576Y-126937969D01*
X115155073Y-127014372D01*
X115787037Y-126382409D01*
X115804075Y-126445993D01*
G37*
%TD.AperFunction*%
%TA.AperFunction,Conductor*%
G36*
X115084855Y-124379546D02*
G01*
X115101575Y-124398842D01*
X115231500Y-124584395D01*
X115231505Y-124584401D01*
X115398599Y-124751495D01*
X115584594Y-124881730D01*
X115628218Y-124936307D01*
X115635411Y-125005806D01*
X115603889Y-125068160D01*
X115584593Y-125084880D01*
X115508626Y-125138072D01*
X115508625Y-125138072D01*
X116140590Y-125770037D01*
X116077007Y-125787075D01*
X115962993Y-125852901D01*
X115869901Y-125945993D01*
X115804075Y-126060007D01*
X115787037Y-126123590D01*
X115155072Y-125491625D01*
X115155072Y-125491626D01*
X115101574Y-125568030D01*
X115046998Y-125611655D01*
X114977499Y-125618849D01*
X114915144Y-125587326D01*
X114898424Y-125568030D01*
X114844925Y-125491626D01*
X114844925Y-125491625D01*
X114212962Y-126123589D01*
X114195925Y-126060007D01*
X114130099Y-125945993D01*
X114037007Y-125852901D01*
X113922993Y-125787075D01*
X113859410Y-125770037D01*
X114491373Y-125138073D01*
X114491373Y-125138072D01*
X114415405Y-125084880D01*
X114371780Y-125030304D01*
X114364586Y-124960805D01*
X114396108Y-124898451D01*
X114415399Y-124881734D01*
X114601401Y-124751495D01*
X114768495Y-124584401D01*
X114898425Y-124398842D01*
X114953002Y-124355217D01*
X115022500Y-124348023D01*
X115084855Y-124379546D01*
G37*
%TD.AperFunction*%
%TA.AperFunction,Conductor*%
G36*
X130804075Y-131525993D02*
G01*
X130869901Y-131640007D01*
X130962993Y-131733099D01*
X131077007Y-131798925D01*
X131140590Y-131815962D01*
X130504208Y-132452342D01*
X130493788Y-132504193D01*
X130445172Y-132554376D01*
X130423032Y-132564205D01*
X130350674Y-132588182D01*
X130350663Y-132588187D01*
X130201342Y-132680289D01*
X130077289Y-132804342D01*
X129985187Y-132953663D01*
X129985183Y-132953673D01*
X129982335Y-132962268D01*
X129942560Y-133019711D01*
X129878044Y-133046531D01*
X129809268Y-133034214D01*
X129772517Y-133005233D01*
X129772324Y-133005427D01*
X129770682Y-133003785D01*
X129769642Y-133002965D01*
X129768494Y-133001597D01*
X129601402Y-132834506D01*
X129601401Y-132834505D01*
X129415405Y-132704269D01*
X129371781Y-132649692D01*
X129364588Y-132580193D01*
X129396110Y-132517839D01*
X129415405Y-132501119D01*
X129491373Y-132447925D01*
X128859409Y-131815962D01*
X128922993Y-131798925D01*
X129037007Y-131733099D01*
X129130099Y-131640007D01*
X129195925Y-131525993D01*
X129212962Y-131462410D01*
X129844925Y-132094373D01*
X129898425Y-132017968D01*
X129953002Y-131974344D01*
X130022501Y-131967151D01*
X130084855Y-131998673D01*
X130101576Y-132017969D01*
X130155073Y-132094372D01*
X130787037Y-131462409D01*
X130804075Y-131525993D01*
G37*
%TD.AperFunction*%
%TA.AperFunction,Conductor*%
G36*
X130804075Y-128985993D02*
G01*
X130869901Y-129100007D01*
X130962993Y-129193099D01*
X131077007Y-129258925D01*
X131140590Y-129275962D01*
X130508625Y-129907925D01*
X130585031Y-129961425D01*
X130628655Y-130016002D01*
X130635848Y-130085501D01*
X130604326Y-130147855D01*
X130585029Y-130164576D01*
X130508625Y-130218072D01*
X131140590Y-130850037D01*
X131077007Y-130867075D01*
X130962993Y-130932901D01*
X130869901Y-131025993D01*
X130804075Y-131140007D01*
X130787037Y-131203589D01*
X130155073Y-130571625D01*
X130155072Y-130571626D01*
X130101574Y-130648030D01*
X130046998Y-130691655D01*
X129977499Y-130698849D01*
X129915144Y-130667326D01*
X129898424Y-130648030D01*
X129844925Y-130571626D01*
X129844925Y-130571625D01*
X129212962Y-131203589D01*
X129195925Y-131140007D01*
X129130099Y-131025993D01*
X129037007Y-130932901D01*
X128922993Y-130867075D01*
X128859410Y-130850037D01*
X129491373Y-130218073D01*
X129414969Y-130164576D01*
X129371344Y-130109999D01*
X129364150Y-130040501D01*
X129395672Y-129978146D01*
X129414968Y-129961425D01*
X129491373Y-129907925D01*
X128859409Y-129275962D01*
X128922993Y-129258925D01*
X129037007Y-129193099D01*
X129130099Y-129100007D01*
X129195925Y-128985993D01*
X129212962Y-128922410D01*
X129844925Y-129554373D01*
X129898425Y-129477968D01*
X129953002Y-129434344D01*
X130022501Y-129427151D01*
X130084855Y-129458673D01*
X130101576Y-129477969D01*
X130155073Y-129554372D01*
X130787037Y-128922409D01*
X130804075Y-128985993D01*
G37*
%TD.AperFunction*%
%TA.AperFunction,Conductor*%
G36*
X130804075Y-126445993D02*
G01*
X130869901Y-126560007D01*
X130962993Y-126653099D01*
X131077007Y-126718925D01*
X131140590Y-126735962D01*
X130508625Y-127367925D01*
X130585031Y-127421425D01*
X130628655Y-127476002D01*
X130635848Y-127545501D01*
X130604326Y-127607855D01*
X130585029Y-127624576D01*
X130508625Y-127678072D01*
X131140590Y-128310037D01*
X131077007Y-128327075D01*
X130962993Y-128392901D01*
X130869901Y-128485993D01*
X130804075Y-128600007D01*
X130787037Y-128663589D01*
X130155073Y-128031625D01*
X130155072Y-128031626D01*
X130101574Y-128108030D01*
X130046998Y-128151655D01*
X129977499Y-128158849D01*
X129915144Y-128127326D01*
X129898424Y-128108030D01*
X129844925Y-128031626D01*
X129844925Y-128031625D01*
X129212962Y-128663589D01*
X129195925Y-128600007D01*
X129130099Y-128485993D01*
X129037007Y-128392901D01*
X128922993Y-128327075D01*
X128859410Y-128310037D01*
X129491373Y-127678073D01*
X129414969Y-127624576D01*
X129371344Y-127569999D01*
X129364150Y-127500501D01*
X129395672Y-127438146D01*
X129414968Y-127421425D01*
X129491373Y-127367925D01*
X128859409Y-126735962D01*
X128922993Y-126718925D01*
X129037007Y-126653099D01*
X129130099Y-126560007D01*
X129195925Y-126445993D01*
X129212962Y-126382410D01*
X129844925Y-127014373D01*
X129898425Y-126937968D01*
X129953002Y-126894344D01*
X130022501Y-126887151D01*
X130084855Y-126918673D01*
X130101576Y-126937969D01*
X130155073Y-127014372D01*
X130787037Y-126382409D01*
X130804075Y-126445993D01*
G37*
%TD.AperFunction*%
%TA.AperFunction,Conductor*%
G36*
X130084855Y-124379546D02*
G01*
X130101575Y-124398842D01*
X130231500Y-124584395D01*
X130231505Y-124584401D01*
X130398599Y-124751495D01*
X130584594Y-124881730D01*
X130628218Y-124936307D01*
X130635411Y-125005806D01*
X130603889Y-125068160D01*
X130584593Y-125084880D01*
X130508626Y-125138072D01*
X130508625Y-125138072D01*
X131140590Y-125770037D01*
X131077007Y-125787075D01*
X130962993Y-125852901D01*
X130869901Y-125945993D01*
X130804075Y-126060007D01*
X130787037Y-126123589D01*
X130155073Y-125491625D01*
X130155072Y-125491626D01*
X130101574Y-125568030D01*
X130046998Y-125611655D01*
X129977499Y-125618849D01*
X129915144Y-125587326D01*
X129898424Y-125568030D01*
X129844925Y-125491626D01*
X129844925Y-125491625D01*
X129212962Y-126123589D01*
X129195925Y-126060007D01*
X129130099Y-125945993D01*
X129037007Y-125852901D01*
X128922993Y-125787075D01*
X128859410Y-125770037D01*
X129491373Y-125138073D01*
X129491373Y-125138072D01*
X129415405Y-125084880D01*
X129371780Y-125030304D01*
X129364586Y-124960805D01*
X129396108Y-124898451D01*
X129415399Y-124881734D01*
X129601401Y-124751495D01*
X129768495Y-124584401D01*
X129898425Y-124398842D01*
X129953002Y-124355217D01*
X130022500Y-124348023D01*
X130084855Y-124379546D01*
G37*
%TD.AperFunction*%
%TA.AperFunction,Conductor*%
G36*
X145804075Y-131525993D02*
G01*
X145869901Y-131640007D01*
X145962993Y-131733099D01*
X146077007Y-131798925D01*
X146140590Y-131815962D01*
X145504208Y-132452342D01*
X145493788Y-132504193D01*
X145445172Y-132554376D01*
X145423032Y-132564205D01*
X145350674Y-132588182D01*
X145350663Y-132588187D01*
X145201342Y-132680289D01*
X145077289Y-132804342D01*
X144985187Y-132953663D01*
X144985183Y-132953673D01*
X144982335Y-132962268D01*
X144942560Y-133019711D01*
X144878044Y-133046531D01*
X144809268Y-133034214D01*
X144772517Y-133005233D01*
X144772324Y-133005427D01*
X144770682Y-133003785D01*
X144769642Y-133002965D01*
X144768494Y-133001597D01*
X144601402Y-132834506D01*
X144601401Y-132834505D01*
X144415405Y-132704269D01*
X144371781Y-132649692D01*
X144364588Y-132580193D01*
X144396110Y-132517839D01*
X144415405Y-132501119D01*
X144491373Y-132447925D01*
X143859409Y-131815962D01*
X143922993Y-131798925D01*
X144037007Y-131733099D01*
X144130099Y-131640007D01*
X144195925Y-131525993D01*
X144212962Y-131462410D01*
X144844925Y-132094373D01*
X144898425Y-132017968D01*
X144953002Y-131974344D01*
X145022501Y-131967151D01*
X145084855Y-131998673D01*
X145101576Y-132017969D01*
X145155073Y-132094372D01*
X145787037Y-131462409D01*
X145804075Y-131525993D01*
G37*
%TD.AperFunction*%
%TA.AperFunction,Conductor*%
G36*
X145804075Y-128985993D02*
G01*
X145869901Y-129100007D01*
X145962993Y-129193099D01*
X146077007Y-129258925D01*
X146140590Y-129275962D01*
X145508625Y-129907925D01*
X145585031Y-129961425D01*
X145628655Y-130016002D01*
X145635848Y-130085501D01*
X145604326Y-130147855D01*
X145585029Y-130164576D01*
X145508625Y-130218072D01*
X146140590Y-130850037D01*
X146077007Y-130867075D01*
X145962993Y-130932901D01*
X145869901Y-131025993D01*
X145804075Y-131140007D01*
X145787037Y-131203590D01*
X145155072Y-130571625D01*
X145155072Y-130571626D01*
X145101574Y-130648030D01*
X145046998Y-130691655D01*
X144977499Y-130698849D01*
X144915144Y-130667326D01*
X144898424Y-130648030D01*
X144844925Y-130571626D01*
X144844925Y-130571625D01*
X144212962Y-131203589D01*
X144195925Y-131140007D01*
X144130099Y-131025993D01*
X144037007Y-130932901D01*
X143922993Y-130867075D01*
X143859410Y-130850037D01*
X144491373Y-130218073D01*
X144414969Y-130164576D01*
X144371344Y-130109999D01*
X144364150Y-130040501D01*
X144395672Y-129978146D01*
X144414968Y-129961425D01*
X144491373Y-129907925D01*
X143859409Y-129275962D01*
X143922993Y-129258925D01*
X144037007Y-129193099D01*
X144130099Y-129100007D01*
X144195925Y-128985993D01*
X144212962Y-128922410D01*
X144844925Y-129554373D01*
X144898425Y-129477968D01*
X144953002Y-129434344D01*
X145022501Y-129427151D01*
X145084855Y-129458673D01*
X145101576Y-129477969D01*
X145155073Y-129554372D01*
X145787037Y-128922409D01*
X145804075Y-128985993D01*
G37*
%TD.AperFunction*%
%TA.AperFunction,Conductor*%
G36*
X145804075Y-126445993D02*
G01*
X145869901Y-126560007D01*
X145962993Y-126653099D01*
X146077007Y-126718925D01*
X146140590Y-126735962D01*
X145508625Y-127367925D01*
X145585031Y-127421425D01*
X145628655Y-127476002D01*
X145635848Y-127545501D01*
X145604326Y-127607855D01*
X145585029Y-127624576D01*
X145508625Y-127678072D01*
X146140590Y-128310037D01*
X146077007Y-128327075D01*
X145962993Y-128392901D01*
X145869901Y-128485993D01*
X145804075Y-128600007D01*
X145787037Y-128663590D01*
X145155072Y-128031625D01*
X145155072Y-128031626D01*
X145101574Y-128108030D01*
X145046998Y-128151655D01*
X144977499Y-128158849D01*
X144915144Y-128127326D01*
X144898424Y-128108030D01*
X144844925Y-128031626D01*
X144844925Y-128031625D01*
X144212962Y-128663589D01*
X144195925Y-128600007D01*
X144130099Y-128485993D01*
X144037007Y-128392901D01*
X143922993Y-128327075D01*
X143859410Y-128310037D01*
X144491373Y-127678073D01*
X144414969Y-127624576D01*
X144371344Y-127569999D01*
X144364150Y-127500501D01*
X144395672Y-127438146D01*
X144414968Y-127421425D01*
X144491373Y-127367925D01*
X143859409Y-126735962D01*
X143922993Y-126718925D01*
X144037007Y-126653099D01*
X144130099Y-126560007D01*
X144195925Y-126445993D01*
X144212962Y-126382410D01*
X144844925Y-127014373D01*
X144898425Y-126937968D01*
X144953002Y-126894344D01*
X145022501Y-126887151D01*
X145084855Y-126918673D01*
X145101576Y-126937969D01*
X145155073Y-127014372D01*
X145787037Y-126382409D01*
X145804075Y-126445993D01*
G37*
%TD.AperFunction*%
%TA.AperFunction,Conductor*%
G36*
X145084855Y-124379546D02*
G01*
X145101575Y-124398842D01*
X145231500Y-124584395D01*
X145231505Y-124584401D01*
X145398599Y-124751495D01*
X145584594Y-124881730D01*
X145628218Y-124936307D01*
X145635411Y-125005806D01*
X145603889Y-125068160D01*
X145584593Y-125084880D01*
X145508626Y-125138072D01*
X145508625Y-125138072D01*
X146140590Y-125770037D01*
X146077007Y-125787075D01*
X145962993Y-125852901D01*
X145869901Y-125945993D01*
X145804075Y-126060007D01*
X145787037Y-126123590D01*
X145155072Y-125491625D01*
X145155072Y-125491626D01*
X145101574Y-125568030D01*
X145046998Y-125611655D01*
X144977499Y-125618849D01*
X144915144Y-125587326D01*
X144898424Y-125568030D01*
X144844925Y-125491626D01*
X144844925Y-125491625D01*
X144212962Y-126123589D01*
X144195925Y-126060007D01*
X144130099Y-125945993D01*
X144037007Y-125852901D01*
X143922993Y-125787075D01*
X143859410Y-125770037D01*
X144491373Y-125138073D01*
X144491373Y-125138072D01*
X144415405Y-125084880D01*
X144371780Y-125030304D01*
X144364586Y-124960805D01*
X144396108Y-124898451D01*
X144415399Y-124881734D01*
X144601401Y-124751495D01*
X144768495Y-124584401D01*
X144898425Y-124398842D01*
X144953002Y-124355217D01*
X145022500Y-124348023D01*
X145084855Y-124379546D01*
G37*
%TD.AperFunction*%
%TA.AperFunction,Conductor*%
G36*
X160804075Y-131525993D02*
G01*
X160869901Y-131640007D01*
X160962993Y-131733099D01*
X161077007Y-131798925D01*
X161140590Y-131815962D01*
X160504208Y-132452342D01*
X160493788Y-132504193D01*
X160445172Y-132554376D01*
X160423032Y-132564205D01*
X160350674Y-132588182D01*
X160350663Y-132588187D01*
X160201342Y-132680289D01*
X160077289Y-132804342D01*
X159985187Y-132953663D01*
X159985183Y-132953673D01*
X159982335Y-132962268D01*
X159942560Y-133019711D01*
X159878044Y-133046531D01*
X159809268Y-133034214D01*
X159772517Y-133005233D01*
X159772324Y-133005427D01*
X159770682Y-133003785D01*
X159769642Y-133002965D01*
X159768494Y-133001597D01*
X159601402Y-132834506D01*
X159601401Y-132834505D01*
X159415405Y-132704269D01*
X159371781Y-132649692D01*
X159364588Y-132580193D01*
X159396110Y-132517839D01*
X159415405Y-132501119D01*
X159491373Y-132447925D01*
X158859409Y-131815962D01*
X158922993Y-131798925D01*
X159037007Y-131733099D01*
X159130099Y-131640007D01*
X159195925Y-131525993D01*
X159212962Y-131462410D01*
X159844925Y-132094373D01*
X159898425Y-132017968D01*
X159953002Y-131974344D01*
X160022501Y-131967151D01*
X160084855Y-131998673D01*
X160101576Y-132017969D01*
X160155073Y-132094372D01*
X160787037Y-131462409D01*
X160804075Y-131525993D01*
G37*
%TD.AperFunction*%
%TA.AperFunction,Conductor*%
G36*
X160804075Y-128985993D02*
G01*
X160869901Y-129100007D01*
X160962993Y-129193099D01*
X161077007Y-129258925D01*
X161140590Y-129275962D01*
X160508625Y-129907925D01*
X160585031Y-129961425D01*
X160628655Y-130016002D01*
X160635848Y-130085501D01*
X160604326Y-130147855D01*
X160585029Y-130164576D01*
X160508625Y-130218072D01*
X161140590Y-130850037D01*
X161077007Y-130867075D01*
X160962993Y-130932901D01*
X160869901Y-131025993D01*
X160804075Y-131140007D01*
X160787037Y-131203590D01*
X160155072Y-130571625D01*
X160155072Y-130571626D01*
X160101574Y-130648030D01*
X160046998Y-130691655D01*
X159977499Y-130698849D01*
X159915144Y-130667326D01*
X159898424Y-130648030D01*
X159844925Y-130571626D01*
X159844925Y-130571625D01*
X159212962Y-131203589D01*
X159195925Y-131140007D01*
X159130099Y-131025993D01*
X159037007Y-130932901D01*
X158922993Y-130867075D01*
X158859410Y-130850037D01*
X159491373Y-130218073D01*
X159414969Y-130164576D01*
X159371344Y-130109999D01*
X159364150Y-130040501D01*
X159395672Y-129978146D01*
X159414968Y-129961425D01*
X159491373Y-129907925D01*
X158859409Y-129275962D01*
X158922993Y-129258925D01*
X159037007Y-129193099D01*
X159130099Y-129100007D01*
X159195925Y-128985993D01*
X159212962Y-128922410D01*
X159844925Y-129554373D01*
X159898425Y-129477968D01*
X159953002Y-129434344D01*
X160022501Y-129427151D01*
X160084855Y-129458673D01*
X160101576Y-129477969D01*
X160155073Y-129554372D01*
X160787037Y-128922409D01*
X160804075Y-128985993D01*
G37*
%TD.AperFunction*%
%TA.AperFunction,Conductor*%
G36*
X160804075Y-126445993D02*
G01*
X160869901Y-126560007D01*
X160962993Y-126653099D01*
X161077007Y-126718925D01*
X161140590Y-126735962D01*
X160508625Y-127367925D01*
X160585031Y-127421425D01*
X160628655Y-127476002D01*
X160635848Y-127545501D01*
X160604326Y-127607855D01*
X160585029Y-127624576D01*
X160508625Y-127678072D01*
X161140590Y-128310037D01*
X161077007Y-128327075D01*
X160962993Y-128392901D01*
X160869901Y-128485993D01*
X160804075Y-128600007D01*
X160787037Y-128663590D01*
X160155072Y-128031625D01*
X160155072Y-128031626D01*
X160101574Y-128108030D01*
X160046998Y-128151655D01*
X159977499Y-128158849D01*
X159915144Y-128127326D01*
X159898424Y-128108030D01*
X159844925Y-128031626D01*
X159844925Y-128031625D01*
X159212962Y-128663589D01*
X159195925Y-128600007D01*
X159130099Y-128485993D01*
X159037007Y-128392901D01*
X158922993Y-128327075D01*
X158859410Y-128310037D01*
X159491373Y-127678073D01*
X159414969Y-127624576D01*
X159371344Y-127569999D01*
X159364150Y-127500501D01*
X159395672Y-127438146D01*
X159414968Y-127421425D01*
X159491373Y-127367925D01*
X158859409Y-126735962D01*
X158922993Y-126718925D01*
X159037007Y-126653099D01*
X159130099Y-126560007D01*
X159195925Y-126445993D01*
X159212962Y-126382410D01*
X159844925Y-127014373D01*
X159898425Y-126937968D01*
X159953002Y-126894344D01*
X160022501Y-126887151D01*
X160084855Y-126918673D01*
X160101576Y-126937969D01*
X160155073Y-127014372D01*
X160787037Y-126382409D01*
X160804075Y-126445993D01*
G37*
%TD.AperFunction*%
%TA.AperFunction,Conductor*%
G36*
X160084855Y-124379546D02*
G01*
X160101575Y-124398842D01*
X160231500Y-124584395D01*
X160231505Y-124584401D01*
X160398599Y-124751495D01*
X160584594Y-124881730D01*
X160628218Y-124936307D01*
X160635411Y-125005806D01*
X160603889Y-125068160D01*
X160584593Y-125084880D01*
X160508626Y-125138072D01*
X160508625Y-125138072D01*
X161140590Y-125770037D01*
X161077007Y-125787075D01*
X160962993Y-125852901D01*
X160869901Y-125945993D01*
X160804075Y-126060007D01*
X160787037Y-126123590D01*
X160155072Y-125491625D01*
X160155072Y-125491626D01*
X160101574Y-125568030D01*
X160046998Y-125611655D01*
X159977499Y-125618849D01*
X159915144Y-125587326D01*
X159898424Y-125568030D01*
X159844925Y-125491626D01*
X159844925Y-125491625D01*
X159212962Y-126123589D01*
X159195925Y-126060007D01*
X159130099Y-125945993D01*
X159037007Y-125852901D01*
X158922993Y-125787075D01*
X158859410Y-125770037D01*
X159491373Y-125138073D01*
X159491373Y-125138072D01*
X159415405Y-125084880D01*
X159371780Y-125030304D01*
X159364586Y-124960805D01*
X159396108Y-124898451D01*
X159415399Y-124881734D01*
X159601401Y-124751495D01*
X159768495Y-124584401D01*
X159898425Y-124398842D01*
X159953002Y-124355217D01*
X160022500Y-124348023D01*
X160084855Y-124379546D01*
G37*
%TD.AperFunction*%
%TA.AperFunction,Conductor*%
G36*
X175804075Y-131525993D02*
G01*
X175869901Y-131640007D01*
X175962993Y-131733099D01*
X176077007Y-131798925D01*
X176140590Y-131815962D01*
X175504208Y-132452342D01*
X175493788Y-132504193D01*
X175445172Y-132554376D01*
X175423032Y-132564205D01*
X175350674Y-132588182D01*
X175350663Y-132588187D01*
X175201342Y-132680289D01*
X175077289Y-132804342D01*
X174985187Y-132953663D01*
X174985183Y-132953673D01*
X174982335Y-132962268D01*
X174942560Y-133019711D01*
X174878044Y-133046531D01*
X174809268Y-133034214D01*
X174772517Y-133005233D01*
X174772324Y-133005427D01*
X174770682Y-133003785D01*
X174769642Y-133002965D01*
X174768494Y-133001597D01*
X174601402Y-132834506D01*
X174601401Y-132834505D01*
X174415405Y-132704269D01*
X174371781Y-132649692D01*
X174364588Y-132580193D01*
X174396110Y-132517839D01*
X174415405Y-132501119D01*
X174491373Y-132447925D01*
X173859409Y-131815962D01*
X173922993Y-131798925D01*
X174037007Y-131733099D01*
X174130099Y-131640007D01*
X174195925Y-131525993D01*
X174212962Y-131462409D01*
X174844925Y-132094373D01*
X174898425Y-132017968D01*
X174953002Y-131974344D01*
X175022501Y-131967151D01*
X175084855Y-131998673D01*
X175101576Y-132017969D01*
X175155073Y-132094372D01*
X175787037Y-131462409D01*
X175804075Y-131525993D01*
G37*
%TD.AperFunction*%
%TA.AperFunction,Conductor*%
G36*
X175804075Y-128985993D02*
G01*
X175869901Y-129100007D01*
X175962993Y-129193099D01*
X176077007Y-129258925D01*
X176140590Y-129275962D01*
X175508625Y-129907925D01*
X175585031Y-129961425D01*
X175628655Y-130016002D01*
X175635848Y-130085501D01*
X175604326Y-130147855D01*
X175585029Y-130164576D01*
X175508625Y-130218072D01*
X176140590Y-130850037D01*
X176077007Y-130867075D01*
X175962993Y-130932901D01*
X175869901Y-131025993D01*
X175804075Y-131140007D01*
X175787037Y-131203589D01*
X175155073Y-130571625D01*
X175155072Y-130571626D01*
X175101574Y-130648030D01*
X175046998Y-130691655D01*
X174977499Y-130698849D01*
X174915144Y-130667326D01*
X174898424Y-130648030D01*
X174844925Y-130571626D01*
X174844925Y-130571625D01*
X174212962Y-131203589D01*
X174195925Y-131140007D01*
X174130099Y-131025993D01*
X174037007Y-130932901D01*
X173922993Y-130867075D01*
X173859410Y-130850037D01*
X174491373Y-130218073D01*
X174414969Y-130164576D01*
X174371344Y-130109999D01*
X174364150Y-130040501D01*
X174395672Y-129978146D01*
X174414968Y-129961425D01*
X174491373Y-129907925D01*
X173859409Y-129275962D01*
X173922993Y-129258925D01*
X174037007Y-129193099D01*
X174130099Y-129100007D01*
X174195925Y-128985993D01*
X174212962Y-128922409D01*
X174844925Y-129554373D01*
X174898425Y-129477968D01*
X174953002Y-129434344D01*
X175022501Y-129427151D01*
X175084855Y-129458673D01*
X175101576Y-129477969D01*
X175155073Y-129554372D01*
X175787037Y-128922409D01*
X175804075Y-128985993D01*
G37*
%TD.AperFunction*%
%TA.AperFunction,Conductor*%
G36*
X175804075Y-126445993D02*
G01*
X175869901Y-126560007D01*
X175962993Y-126653099D01*
X176077007Y-126718925D01*
X176140590Y-126735962D01*
X175508625Y-127367925D01*
X175585031Y-127421425D01*
X175628655Y-127476002D01*
X175635848Y-127545501D01*
X175604326Y-127607855D01*
X175585029Y-127624576D01*
X175508625Y-127678072D01*
X176140590Y-128310037D01*
X176077007Y-128327075D01*
X175962993Y-128392901D01*
X175869901Y-128485993D01*
X175804075Y-128600007D01*
X175787037Y-128663589D01*
X175155073Y-128031625D01*
X175155072Y-128031626D01*
X175101574Y-128108030D01*
X175046998Y-128151655D01*
X174977499Y-128158849D01*
X174915144Y-128127326D01*
X174898424Y-128108030D01*
X174844925Y-128031626D01*
X174844925Y-128031625D01*
X174212962Y-128663589D01*
X174195925Y-128600007D01*
X174130099Y-128485993D01*
X174037007Y-128392901D01*
X173922993Y-128327075D01*
X173859410Y-128310037D01*
X174491373Y-127678073D01*
X174414969Y-127624576D01*
X174371344Y-127569999D01*
X174364150Y-127500501D01*
X174395672Y-127438146D01*
X174414968Y-127421425D01*
X174491373Y-127367925D01*
X173859409Y-126735962D01*
X173922993Y-126718925D01*
X174037007Y-126653099D01*
X174130099Y-126560007D01*
X174195925Y-126445993D01*
X174212962Y-126382409D01*
X174844925Y-127014373D01*
X174898425Y-126937968D01*
X174953002Y-126894344D01*
X175022501Y-126887151D01*
X175084855Y-126918673D01*
X175101576Y-126937969D01*
X175155073Y-127014372D01*
X175787037Y-126382409D01*
X175804075Y-126445993D01*
G37*
%TD.AperFunction*%
%TA.AperFunction,Conductor*%
G36*
X175084855Y-124379546D02*
G01*
X175101575Y-124398842D01*
X175231500Y-124584395D01*
X175231505Y-124584401D01*
X175398599Y-124751495D01*
X175584594Y-124881730D01*
X175628218Y-124936307D01*
X175635411Y-125005806D01*
X175603889Y-125068160D01*
X175584593Y-125084880D01*
X175508626Y-125138072D01*
X175508625Y-125138072D01*
X176140590Y-125770037D01*
X176077007Y-125787075D01*
X175962993Y-125852901D01*
X175869901Y-125945993D01*
X175804075Y-126060007D01*
X175787037Y-126123589D01*
X175155073Y-125491625D01*
X175155072Y-125491626D01*
X175101574Y-125568030D01*
X175046998Y-125611655D01*
X174977499Y-125618849D01*
X174915144Y-125587326D01*
X174898424Y-125568030D01*
X174844925Y-125491626D01*
X174844925Y-125491625D01*
X174212962Y-126123589D01*
X174195925Y-126060007D01*
X174130099Y-125945993D01*
X174037007Y-125852901D01*
X173922993Y-125787075D01*
X173859410Y-125770037D01*
X174491373Y-125138073D01*
X174491373Y-125138072D01*
X174415405Y-125084880D01*
X174371780Y-125030304D01*
X174364586Y-124960805D01*
X174396108Y-124898451D01*
X174415399Y-124881734D01*
X174601401Y-124751495D01*
X174768495Y-124584401D01*
X174898425Y-124398842D01*
X174953002Y-124355217D01*
X175022500Y-124348023D01*
X175084855Y-124379546D01*
G37*
%TD.AperFunction*%
%TA.AperFunction,Conductor*%
G36*
X185002702Y-100500617D02*
G01*
X185386771Y-100517386D01*
X185397506Y-100518326D01*
X185775971Y-100568152D01*
X185786597Y-100570025D01*
X186159284Y-100652648D01*
X186169710Y-100655442D01*
X186533765Y-100770227D01*
X186543911Y-100773920D01*
X186896578Y-100920000D01*
X186906369Y-100924566D01*
X187042010Y-100995176D01*
X187244942Y-101100816D01*
X187254309Y-101106223D01*
X187350690Y-101167625D01*
X187576244Y-101311318D01*
X187585105Y-101317523D01*
X187887930Y-101549889D01*
X187896217Y-101556843D01*
X188177635Y-101814715D01*
X188185284Y-101822364D01*
X188443156Y-102103782D01*
X188450110Y-102112069D01*
X188682476Y-102414894D01*
X188688681Y-102423755D01*
X188893775Y-102745689D01*
X188899183Y-102755057D01*
X189075430Y-103093623D01*
X189080002Y-103103427D01*
X189226075Y-103456078D01*
X189229775Y-103466244D01*
X189344554Y-103830278D01*
X189347354Y-103840727D01*
X189429971Y-104213389D01*
X189431849Y-104224042D01*
X189481671Y-104602473D01*
X189482614Y-104613249D01*
X189499382Y-104997297D01*
X189499500Y-105002706D01*
X189499500Y-144997293D01*
X189499382Y-145002702D01*
X189482614Y-145386750D01*
X189481671Y-145397526D01*
X189431849Y-145775957D01*
X189429971Y-145786610D01*
X189347354Y-146159272D01*
X189344554Y-146169721D01*
X189229775Y-146533755D01*
X189226075Y-146543921D01*
X189080002Y-146896572D01*
X189075430Y-146906376D01*
X188899183Y-147244942D01*
X188893775Y-147254310D01*
X188688681Y-147576244D01*
X188682476Y-147585105D01*
X188450110Y-147887930D01*
X188443156Y-147896217D01*
X188185284Y-148177635D01*
X188177635Y-148185284D01*
X187896217Y-148443156D01*
X187887930Y-148450110D01*
X187585105Y-148682476D01*
X187576244Y-148688681D01*
X187254310Y-148893775D01*
X187244942Y-148899183D01*
X186906376Y-149075430D01*
X186896572Y-149080002D01*
X186543921Y-149226075D01*
X186533755Y-149229775D01*
X186169721Y-149344554D01*
X186159272Y-149347354D01*
X185786610Y-149429971D01*
X185775957Y-149431849D01*
X185397526Y-149481671D01*
X185386750Y-149482614D01*
X185002703Y-149499382D01*
X184997294Y-149499500D01*
X105002706Y-149499500D01*
X104997297Y-149499382D01*
X104613249Y-149482614D01*
X104602473Y-149481671D01*
X104224042Y-149431849D01*
X104213389Y-149429971D01*
X103840727Y-149347354D01*
X103830278Y-149344554D01*
X103466244Y-149229775D01*
X103456078Y-149226075D01*
X103103427Y-149080002D01*
X103093623Y-149075430D01*
X102755057Y-148899183D01*
X102745689Y-148893775D01*
X102423755Y-148688681D01*
X102414894Y-148682476D01*
X102112069Y-148450110D01*
X102103782Y-148443156D01*
X101822364Y-148185284D01*
X101814715Y-148177635D01*
X101556843Y-147896217D01*
X101549889Y-147887930D01*
X101317523Y-147585105D01*
X101311318Y-147576244D01*
X101106224Y-147254310D01*
X101100816Y-147244942D01*
X100924569Y-146906376D01*
X100919997Y-146896572D01*
X100773924Y-146543921D01*
X100770224Y-146533755D01*
X100714071Y-146355659D01*
X100655442Y-146169710D01*
X100652648Y-146159284D01*
X100570025Y-145786597D01*
X100568152Y-145775971D01*
X100518326Y-145397506D01*
X100517386Y-145386771D01*
X100500618Y-145002702D01*
X100500559Y-145000000D01*
X100995176Y-145000000D01*
X101014461Y-145392550D01*
X101072129Y-145781308D01*
X101167625Y-146162549D01*
X101300016Y-146532559D01*
X101300023Y-146532575D01*
X101468062Y-146887864D01*
X101670109Y-147224958D01*
X101904228Y-147540632D01*
X102000068Y-147646376D01*
X102000069Y-147646376D01*
X103313098Y-146333347D01*
X103380076Y-146420635D01*
X103579365Y-146619924D01*
X103666651Y-146686900D01*
X102353622Y-147999929D01*
X102353622Y-147999930D01*
X102459367Y-148095771D01*
X102775041Y-148329890D01*
X103112135Y-148531937D01*
X103467424Y-148699976D01*
X103467440Y-148699983D01*
X103837450Y-148832374D01*
X104218691Y-148927870D01*
X104607449Y-148985538D01*
X105000000Y-149004823D01*
X105392550Y-148985538D01*
X105781308Y-148927870D01*
X106162549Y-148832374D01*
X106532559Y-148699983D01*
X106532575Y-148699976D01*
X106887864Y-148531937D01*
X107224958Y-148329890D01*
X107540632Y-148095770D01*
X107646376Y-147999929D01*
X106333348Y-146686901D01*
X106420635Y-146619924D01*
X106619924Y-146420635D01*
X106686901Y-146333348D01*
X107999929Y-147646376D01*
X108095770Y-147540632D01*
X108329890Y-147224958D01*
X108531937Y-146887864D01*
X108699976Y-146532575D01*
X108699983Y-146532559D01*
X108832374Y-146162549D01*
X108927870Y-145781308D01*
X108985538Y-145392550D01*
X109004823Y-145000000D01*
X108985538Y-144607449D01*
X108927870Y-144218691D01*
X108898674Y-144102135D01*
X118649500Y-144102135D01*
X118649500Y-145897870D01*
X118649501Y-145897876D01*
X118655908Y-145957483D01*
X118706202Y-146092328D01*
X118706206Y-146092335D01*
X118792452Y-146207544D01*
X118792455Y-146207547D01*
X118907664Y-146293793D01*
X118907671Y-146293797D01*
X119042517Y-146344091D01*
X119042516Y-146344091D01*
X119049444Y-146344835D01*
X119102127Y-146350500D01*
X120897872Y-146350499D01*
X120957483Y-146344091D01*
X121092331Y-146293796D01*
X121207546Y-146207546D01*
X121293796Y-146092331D01*
X121342810Y-145960916D01*
X121384681Y-145904984D01*
X121450145Y-145880566D01*
X121518418Y-145895417D01*
X121546673Y-145916569D01*
X121668599Y-146038495D01*
X121765384Y-146106265D01*
X121862165Y-146174032D01*
X121862167Y-146174033D01*
X121862170Y-146174035D01*
X122076337Y-146273903D01*
X122304592Y-146335063D01*
X122481034Y-146350500D01*
X122539999Y-146355659D01*
X122540000Y-146355659D01*
X122540001Y-146355659D01*
X122598966Y-146350500D01*
X122775408Y-146335063D01*
X123003663Y-146273903D01*
X123217830Y-146174035D01*
X123411401Y-146038495D01*
X123578495Y-145871401D01*
X123708425Y-145685842D01*
X123763002Y-145642217D01*
X123832500Y-145635023D01*
X123894855Y-145666546D01*
X123911575Y-145685842D01*
X124041500Y-145871395D01*
X124041505Y-145871401D01*
X124208599Y-146038495D01*
X124305384Y-146106265D01*
X124402165Y-146174032D01*
X124402167Y-146174033D01*
X124402170Y-146174035D01*
X124616337Y-146273903D01*
X124844592Y-146335063D01*
X125021034Y-146350500D01*
X125079999Y-146355659D01*
X125080000Y-146355659D01*
X125080001Y-146355659D01*
X125138966Y-146350500D01*
X125315408Y-146335063D01*
X125543663Y-146273903D01*
X125757830Y-146174035D01*
X125951401Y-146038495D01*
X126118495Y-145871401D01*
X126254035Y-145677830D01*
X126353903Y-145463663D01*
X126415063Y-145235408D01*
X126435659Y-145000000D01*
X126415063Y-144764592D01*
X126353903Y-144536337D01*
X126254035Y-144322171D01*
X126248425Y-144314158D01*
X126118494Y-144128597D01*
X126092032Y-144102135D01*
X133649500Y-144102135D01*
X133649500Y-145897870D01*
X133649501Y-145897876D01*
X133655908Y-145957483D01*
X133706202Y-146092328D01*
X133706206Y-146092335D01*
X133792452Y-146207544D01*
X133792455Y-146207547D01*
X133907664Y-146293793D01*
X133907671Y-146293797D01*
X134042517Y-146344091D01*
X134042516Y-146344091D01*
X134049444Y-146344835D01*
X134102127Y-146350500D01*
X135897872Y-146350499D01*
X135957483Y-146344091D01*
X136092331Y-146293796D01*
X136207546Y-146207546D01*
X136293796Y-146092331D01*
X136342810Y-145960916D01*
X136384681Y-145904984D01*
X136450145Y-145880566D01*
X136518418Y-145895417D01*
X136546673Y-145916569D01*
X136668599Y-146038495D01*
X136765384Y-146106265D01*
X136862165Y-146174032D01*
X136862167Y-146174033D01*
X136862170Y-146174035D01*
X137076337Y-146273903D01*
X137304592Y-146335063D01*
X137481034Y-146350500D01*
X137539999Y-146355659D01*
X137540000Y-146355659D01*
X137540001Y-146355659D01*
X137598966Y-146350500D01*
X137775408Y-146335063D01*
X138003663Y-146273903D01*
X138217830Y-146174035D01*
X138411401Y-146038495D01*
X138578495Y-145871401D01*
X138708425Y-145685842D01*
X138763002Y-145642217D01*
X138832500Y-145635023D01*
X138894855Y-145666546D01*
X138911575Y-145685842D01*
X139041500Y-145871395D01*
X139041505Y-145871401D01*
X139208599Y-146038495D01*
X139305384Y-146106265D01*
X139402165Y-146174032D01*
X139402167Y-146174033D01*
X139402170Y-146174035D01*
X139616337Y-146273903D01*
X139844592Y-146335063D01*
X140021034Y-146350500D01*
X140079999Y-146355659D01*
X140080000Y-146355659D01*
X140080001Y-146355659D01*
X140138966Y-146350500D01*
X140315408Y-146335063D01*
X140543663Y-146273903D01*
X140757830Y-146174035D01*
X140951401Y-146038495D01*
X141118495Y-145871401D01*
X141254035Y-145677830D01*
X141353903Y-145463663D01*
X141415063Y-145235408D01*
X141435659Y-145000000D01*
X141415063Y-144764592D01*
X141353903Y-144536337D01*
X141254035Y-144322171D01*
X141248425Y-144314158D01*
X141118494Y-144128597D01*
X141092032Y-144102135D01*
X148649500Y-144102135D01*
X148649500Y-145897870D01*
X148649501Y-145897876D01*
X148655908Y-145957483D01*
X148706202Y-146092328D01*
X148706206Y-146092335D01*
X148792452Y-146207544D01*
X148792455Y-146207547D01*
X148907664Y-146293793D01*
X148907671Y-146293797D01*
X149042517Y-146344091D01*
X149042516Y-146344091D01*
X149049444Y-146344835D01*
X149102127Y-146350500D01*
X150897872Y-146350499D01*
X150957483Y-146344091D01*
X151092331Y-146293796D01*
X151207546Y-146207546D01*
X151293796Y-146092331D01*
X151342810Y-145960916D01*
X151384681Y-145904984D01*
X151450145Y-145880566D01*
X151518418Y-145895417D01*
X151546673Y-145916569D01*
X151668599Y-146038495D01*
X151765384Y-146106265D01*
X151862165Y-146174032D01*
X151862167Y-146174033D01*
X151862170Y-146174035D01*
X152076337Y-146273903D01*
X152304592Y-146335063D01*
X152481034Y-146350500D01*
X152539999Y-146355659D01*
X152540000Y-146355659D01*
X152540001Y-146355659D01*
X152598966Y-146350500D01*
X152775408Y-146335063D01*
X153003663Y-146273903D01*
X153217830Y-146174035D01*
X153411401Y-146038495D01*
X153578495Y-145871401D01*
X153708425Y-145685842D01*
X153763002Y-145642217D01*
X153832500Y-145635023D01*
X153894855Y-145666546D01*
X153911575Y-145685842D01*
X154041500Y-145871395D01*
X154041505Y-145871401D01*
X154208599Y-146038495D01*
X154305384Y-146106265D01*
X154402165Y-146174032D01*
X154402167Y-146174033D01*
X154402170Y-146174035D01*
X154616337Y-146273903D01*
X154844592Y-146335063D01*
X155021034Y-146350500D01*
X155079999Y-146355659D01*
X155080000Y-146355659D01*
X155080001Y-146355659D01*
X155138966Y-146350500D01*
X155315408Y-146335063D01*
X155543663Y-146273903D01*
X155757830Y-146174035D01*
X155951401Y-146038495D01*
X156118495Y-145871401D01*
X156254035Y-145677830D01*
X156353903Y-145463663D01*
X156415063Y-145235408D01*
X156435659Y-145000000D01*
X156415063Y-144764592D01*
X156353903Y-144536337D01*
X156254035Y-144322171D01*
X156248425Y-144314158D01*
X156118494Y-144128597D01*
X156092052Y-144102155D01*
X163650000Y-144102155D01*
X163650000Y-144750000D01*
X164566988Y-144750000D01*
X164534075Y-144807007D01*
X164500000Y-144934174D01*
X164500000Y-145065826D01*
X164534075Y-145192993D01*
X164566988Y-145250000D01*
X163650000Y-145250000D01*
X163650000Y-145897844D01*
X163656401Y-145957372D01*
X163656403Y-145957379D01*
X163706645Y-146092086D01*
X163706649Y-146092093D01*
X163792809Y-146207187D01*
X163792812Y-146207190D01*
X163907906Y-146293350D01*
X163907913Y-146293354D01*
X164042620Y-146343596D01*
X164042627Y-146343598D01*
X164102155Y-146349999D01*
X164102172Y-146350000D01*
X164750000Y-146350000D01*
X164750000Y-145433012D01*
X164807007Y-145465925D01*
X164934174Y-145500000D01*
X165065826Y-145500000D01*
X165192993Y-145465925D01*
X165250000Y-145433012D01*
X165250000Y-146350000D01*
X165897828Y-146350000D01*
X165897844Y-146349999D01*
X165957372Y-146343598D01*
X165957379Y-146343596D01*
X166092086Y-146293354D01*
X166092093Y-146293350D01*
X166207187Y-146207190D01*
X166207190Y-146207187D01*
X166293350Y-146092093D01*
X166293354Y-146092086D01*
X166342614Y-145960013D01*
X166384485Y-145904079D01*
X166449949Y-145879662D01*
X166518222Y-145894513D01*
X166546477Y-145915665D01*
X166668917Y-146038105D01*
X166862421Y-146173600D01*
X167076507Y-146273429D01*
X167076516Y-146273433D01*
X167290000Y-146330634D01*
X167290000Y-145433012D01*
X167347007Y-145465925D01*
X167474174Y-145500000D01*
X167605826Y-145500000D01*
X167732993Y-145465925D01*
X167790000Y-145433012D01*
X167790000Y-146330633D01*
X168003483Y-146273433D01*
X168003492Y-146273429D01*
X168217578Y-146173600D01*
X168411082Y-146038105D01*
X168578105Y-145871082D01*
X168708425Y-145684968D01*
X168763002Y-145641344D01*
X168832501Y-145634151D01*
X168894855Y-145665673D01*
X168911575Y-145684968D01*
X169041894Y-145871082D01*
X169208917Y-146038105D01*
X169402421Y-146173600D01*
X169616507Y-146273429D01*
X169616516Y-146273433D01*
X169830000Y-146330634D01*
X169830000Y-145433012D01*
X169887007Y-145465925D01*
X170014174Y-145500000D01*
X170145826Y-145500000D01*
X170272993Y-145465925D01*
X170330000Y-145433012D01*
X170330000Y-146330633D01*
X170543483Y-146273433D01*
X170543492Y-146273429D01*
X170757578Y-146173600D01*
X170951082Y-146038105D01*
X171118105Y-145871082D01*
X171253600Y-145677578D01*
X171353429Y-145463492D01*
X171353432Y-145463486D01*
X171410636Y-145250000D01*
X170513012Y-145250000D01*
X170545925Y-145192993D01*
X170580000Y-145065826D01*
X170580000Y-145000000D01*
X180995176Y-145000000D01*
X181014461Y-145392550D01*
X181072129Y-145781308D01*
X181167625Y-146162549D01*
X181300016Y-146532559D01*
X181300023Y-146532575D01*
X181468062Y-146887864D01*
X181670109Y-147224958D01*
X181904228Y-147540632D01*
X182000068Y-147646376D01*
X182000069Y-147646376D01*
X183313098Y-146333347D01*
X183380076Y-146420635D01*
X183579365Y-146619924D01*
X183666651Y-146686900D01*
X182353622Y-147999929D01*
X182353622Y-147999930D01*
X182459367Y-148095771D01*
X182775041Y-148329890D01*
X183112135Y-148531937D01*
X183467424Y-148699976D01*
X183467440Y-148699983D01*
X183837450Y-148832374D01*
X184218691Y-148927870D01*
X184607449Y-148985538D01*
X185000000Y-149004823D01*
X185392550Y-148985538D01*
X185781308Y-148927870D01*
X186162549Y-148832374D01*
X186532559Y-148699983D01*
X186532575Y-148699976D01*
X186887864Y-148531937D01*
X187224958Y-148329890D01*
X187540632Y-148095770D01*
X187646376Y-147999929D01*
X186333348Y-146686901D01*
X186420635Y-146619924D01*
X186619924Y-146420635D01*
X186686901Y-146333348D01*
X187999929Y-147646376D01*
X188095770Y-147540632D01*
X188329890Y-147224958D01*
X188531937Y-146887864D01*
X188699976Y-146532575D01*
X188699983Y-146532559D01*
X188832374Y-146162549D01*
X188927870Y-145781308D01*
X188985538Y-145392550D01*
X189004823Y-145000000D01*
X188985538Y-144607449D01*
X188927870Y-144218691D01*
X188832374Y-143837450D01*
X188699983Y-143467440D01*
X188699976Y-143467424D01*
X188531937Y-143112135D01*
X188329890Y-142775041D01*
X188095771Y-142459367D01*
X187999930Y-142353622D01*
X187999929Y-142353622D01*
X186686900Y-143666650D01*
X186619924Y-143579365D01*
X186420635Y-143380076D01*
X186333348Y-143313098D01*
X187646376Y-142000069D01*
X187646376Y-142000068D01*
X187540632Y-141904228D01*
X187224958Y-141670109D01*
X186887864Y-141468062D01*
X186532575Y-141300023D01*
X186532559Y-141300016D01*
X186162549Y-141167625D01*
X185781308Y-141072129D01*
X185392550Y-141014461D01*
X185000000Y-140995176D01*
X184607449Y-141014461D01*
X184218691Y-141072129D01*
X183837450Y-141167625D01*
X183467440Y-141300016D01*
X183467424Y-141300023D01*
X183112135Y-141468062D01*
X182775041Y-141670109D01*
X182459368Y-141904228D01*
X182353622Y-142000069D01*
X183666651Y-143313098D01*
X183579365Y-143380076D01*
X183380076Y-143579365D01*
X183313098Y-143666651D01*
X182000069Y-142353622D01*
X181904228Y-142459368D01*
X181670109Y-142775041D01*
X181468062Y-143112135D01*
X181300023Y-143467424D01*
X181300016Y-143467440D01*
X181167625Y-143837450D01*
X181072129Y-144218691D01*
X181014461Y-144607449D01*
X180995176Y-145000000D01*
X170580000Y-145000000D01*
X170580000Y-144934174D01*
X170545925Y-144807007D01*
X170513012Y-144750000D01*
X171410636Y-144750000D01*
X171410635Y-144749999D01*
X171353432Y-144536513D01*
X171353429Y-144536507D01*
X171253600Y-144322422D01*
X171253599Y-144322420D01*
X171118113Y-144128926D01*
X171118108Y-144128920D01*
X170951082Y-143961894D01*
X170757578Y-143826399D01*
X170543492Y-143726570D01*
X170543486Y-143726567D01*
X170330000Y-143669364D01*
X170330000Y-144566988D01*
X170272993Y-144534075D01*
X170145826Y-144500000D01*
X170014174Y-144500000D01*
X169887007Y-144534075D01*
X169830000Y-144566988D01*
X169830000Y-143669364D01*
X169829999Y-143669364D01*
X169616513Y-143726567D01*
X169616507Y-143726570D01*
X169402422Y-143826399D01*
X169402420Y-143826400D01*
X169208926Y-143961886D01*
X169208920Y-143961891D01*
X169041891Y-144128920D01*
X169041890Y-144128922D01*
X168911575Y-144315031D01*
X168856998Y-144358655D01*
X168787499Y-144365848D01*
X168725145Y-144334326D01*
X168708425Y-144315031D01*
X168578109Y-144128922D01*
X168578108Y-144128920D01*
X168411082Y-143961894D01*
X168217578Y-143826399D01*
X168003492Y-143726570D01*
X168003486Y-143726567D01*
X167790000Y-143669364D01*
X167790000Y-144566988D01*
X167732993Y-144534075D01*
X167605826Y-144500000D01*
X167474174Y-144500000D01*
X167347007Y-144534075D01*
X167290000Y-144566988D01*
X167290000Y-143669364D01*
X167289999Y-143669364D01*
X167076513Y-143726567D01*
X167076507Y-143726570D01*
X166862422Y-143826399D01*
X166862420Y-143826400D01*
X166668926Y-143961886D01*
X166546477Y-144084335D01*
X166485154Y-144117819D01*
X166415462Y-144112835D01*
X166359529Y-144070963D01*
X166342614Y-144039986D01*
X166293354Y-143907913D01*
X166293350Y-143907906D01*
X166207190Y-143792812D01*
X166207187Y-143792809D01*
X166092093Y-143706649D01*
X166092086Y-143706645D01*
X165957379Y-143656403D01*
X165957372Y-143656401D01*
X165897844Y-143650000D01*
X165250000Y-143650000D01*
X165250000Y-144566988D01*
X165192993Y-144534075D01*
X165065826Y-144500000D01*
X164934174Y-144500000D01*
X164807007Y-144534075D01*
X164750000Y-144566988D01*
X164750000Y-143650000D01*
X164102155Y-143650000D01*
X164042627Y-143656401D01*
X164042620Y-143656403D01*
X163907913Y-143706645D01*
X163907906Y-143706649D01*
X163792812Y-143792809D01*
X163792809Y-143792812D01*
X163706649Y-143907906D01*
X163706645Y-143907913D01*
X163656403Y-144042620D01*
X163656401Y-144042627D01*
X163650000Y-144102155D01*
X156092052Y-144102155D01*
X155951402Y-143961506D01*
X155951395Y-143961501D01*
X155757834Y-143825967D01*
X155757830Y-143825965D01*
X155686727Y-143792809D01*
X155543663Y-143726097D01*
X155543659Y-143726096D01*
X155543655Y-143726094D01*
X155315413Y-143664938D01*
X155315403Y-143664936D01*
X155080001Y-143644341D01*
X155079999Y-143644341D01*
X154844596Y-143664936D01*
X154844586Y-143664938D01*
X154616344Y-143726094D01*
X154616335Y-143726098D01*
X154402171Y-143825964D01*
X154402169Y-143825965D01*
X154208597Y-143961505D01*
X154041505Y-144128597D01*
X153911575Y-144314158D01*
X153856998Y-144357783D01*
X153787500Y-144364977D01*
X153725145Y-144333454D01*
X153708425Y-144314158D01*
X153578494Y-144128597D01*
X153411402Y-143961506D01*
X153411395Y-143961501D01*
X153217834Y-143825967D01*
X153217830Y-143825965D01*
X153146727Y-143792809D01*
X153003663Y-143726097D01*
X153003659Y-143726096D01*
X153003655Y-143726094D01*
X152775413Y-143664938D01*
X152775403Y-143664936D01*
X152540001Y-143644341D01*
X152539999Y-143644341D01*
X152304596Y-143664936D01*
X152304586Y-143664938D01*
X152076344Y-143726094D01*
X152076335Y-143726098D01*
X151862171Y-143825964D01*
X151862169Y-143825965D01*
X151668600Y-143961503D01*
X151546673Y-144083430D01*
X151485350Y-144116914D01*
X151415658Y-144111930D01*
X151359725Y-144070058D01*
X151342810Y-144039081D01*
X151293797Y-143907671D01*
X151293793Y-143907664D01*
X151207547Y-143792455D01*
X151207544Y-143792452D01*
X151092335Y-143706206D01*
X151092328Y-143706202D01*
X150957482Y-143655908D01*
X150957483Y-143655908D01*
X150897883Y-143649501D01*
X150897881Y-143649500D01*
X150897873Y-143649500D01*
X150897864Y-143649500D01*
X149102129Y-143649500D01*
X149102123Y-143649501D01*
X149042516Y-143655908D01*
X148907671Y-143706202D01*
X148907664Y-143706206D01*
X148792455Y-143792452D01*
X148792452Y-143792455D01*
X148706206Y-143907664D01*
X148706202Y-143907671D01*
X148655908Y-144042517D01*
X148649501Y-144102116D01*
X148649500Y-144102135D01*
X141092032Y-144102135D01*
X140951402Y-143961506D01*
X140951395Y-143961501D01*
X140757834Y-143825967D01*
X140757830Y-143825965D01*
X140686727Y-143792809D01*
X140543663Y-143726097D01*
X140543659Y-143726096D01*
X140543655Y-143726094D01*
X140315413Y-143664938D01*
X140315403Y-143664936D01*
X140080001Y-143644341D01*
X140079999Y-143644341D01*
X139844596Y-143664936D01*
X139844586Y-143664938D01*
X139616344Y-143726094D01*
X139616335Y-143726098D01*
X139402171Y-143825964D01*
X139402169Y-143825965D01*
X139208597Y-143961505D01*
X139041505Y-144128597D01*
X138911575Y-144314158D01*
X138856998Y-144357783D01*
X138787500Y-144364977D01*
X138725145Y-144333454D01*
X138708425Y-144314158D01*
X138578494Y-144128597D01*
X138411402Y-143961506D01*
X138411395Y-143961501D01*
X138217834Y-143825967D01*
X138217830Y-143825965D01*
X138146727Y-143792809D01*
X138003663Y-143726097D01*
X138003659Y-143726096D01*
X138003655Y-143726094D01*
X137775413Y-143664938D01*
X137775403Y-143664936D01*
X137540001Y-143644341D01*
X137539999Y-143644341D01*
X137304596Y-143664936D01*
X137304586Y-143664938D01*
X137076344Y-143726094D01*
X137076335Y-143726098D01*
X136862171Y-143825964D01*
X136862169Y-143825965D01*
X136668600Y-143961503D01*
X136546673Y-144083430D01*
X136485350Y-144116914D01*
X136415658Y-144111930D01*
X136359725Y-144070058D01*
X136342810Y-144039081D01*
X136293797Y-143907671D01*
X136293793Y-143907664D01*
X136207547Y-143792455D01*
X136207544Y-143792452D01*
X136092335Y-143706206D01*
X136092328Y-143706202D01*
X135957482Y-143655908D01*
X135957483Y-143655908D01*
X135897883Y-143649501D01*
X135897881Y-143649500D01*
X135897873Y-143649500D01*
X135897864Y-143649500D01*
X134102129Y-143649500D01*
X134102123Y-143649501D01*
X134042516Y-143655908D01*
X133907671Y-143706202D01*
X133907664Y-143706206D01*
X133792455Y-143792452D01*
X133792452Y-143792455D01*
X133706206Y-143907664D01*
X133706202Y-143907671D01*
X133655908Y-144042517D01*
X133649501Y-144102116D01*
X133649500Y-144102135D01*
X126092032Y-144102135D01*
X125951402Y-143961506D01*
X125951395Y-143961501D01*
X125757834Y-143825967D01*
X125757830Y-143825965D01*
X125686727Y-143792809D01*
X125543663Y-143726097D01*
X125543659Y-143726096D01*
X125543655Y-143726094D01*
X125315413Y-143664938D01*
X125315403Y-143664936D01*
X125080001Y-143644341D01*
X125079999Y-143644341D01*
X124844596Y-143664936D01*
X124844586Y-143664938D01*
X124616344Y-143726094D01*
X124616335Y-143726098D01*
X124402171Y-143825964D01*
X124402169Y-143825965D01*
X124208597Y-143961505D01*
X124041505Y-144128597D01*
X123911575Y-144314158D01*
X123856998Y-144357783D01*
X123787500Y-144364977D01*
X123725145Y-144333454D01*
X123708425Y-144314158D01*
X123578494Y-144128597D01*
X123411402Y-143961506D01*
X123411395Y-143961501D01*
X123217834Y-143825967D01*
X123217830Y-143825965D01*
X123146727Y-143792809D01*
X123003663Y-143726097D01*
X123003659Y-143726096D01*
X123003655Y-143726094D01*
X122775413Y-143664938D01*
X122775403Y-143664936D01*
X122540001Y-143644341D01*
X122539999Y-143644341D01*
X122304596Y-143664936D01*
X122304586Y-143664938D01*
X122076344Y-143726094D01*
X122076335Y-143726098D01*
X121862171Y-143825964D01*
X121862169Y-143825965D01*
X121668600Y-143961503D01*
X121546673Y-144083430D01*
X121485350Y-144116914D01*
X121415658Y-144111930D01*
X121359725Y-144070058D01*
X121342810Y-144039081D01*
X121293797Y-143907671D01*
X121293793Y-143907664D01*
X121207547Y-143792455D01*
X121207544Y-143792452D01*
X121092335Y-143706206D01*
X121092328Y-143706202D01*
X120957482Y-143655908D01*
X120957483Y-143655908D01*
X120897883Y-143649501D01*
X120897881Y-143649500D01*
X120897873Y-143649500D01*
X120897864Y-143649500D01*
X119102129Y-143649500D01*
X119102123Y-143649501D01*
X119042516Y-143655908D01*
X118907671Y-143706202D01*
X118907664Y-143706206D01*
X118792455Y-143792452D01*
X118792452Y-143792455D01*
X118706206Y-143907664D01*
X118706202Y-143907671D01*
X118655908Y-144042517D01*
X118649501Y-144102116D01*
X118649500Y-144102135D01*
X108898674Y-144102135D01*
X108832374Y-143837450D01*
X108699983Y-143467440D01*
X108699976Y-143467424D01*
X108531937Y-143112135D01*
X108329890Y-142775041D01*
X108095771Y-142459367D01*
X107999930Y-142353622D01*
X107999929Y-142353622D01*
X106686900Y-143666650D01*
X106619924Y-143579365D01*
X106420635Y-143380076D01*
X106333348Y-143313098D01*
X107646376Y-142000069D01*
X107646376Y-142000068D01*
X107540632Y-141904228D01*
X107224958Y-141670109D01*
X106887864Y-141468062D01*
X106532575Y-141300023D01*
X106532559Y-141300016D01*
X106162549Y-141167625D01*
X105781308Y-141072129D01*
X105392550Y-141014461D01*
X105000000Y-140995176D01*
X104607449Y-141014461D01*
X104218691Y-141072129D01*
X103837450Y-141167625D01*
X103467440Y-141300016D01*
X103467424Y-141300023D01*
X103112135Y-141468062D01*
X102775041Y-141670109D01*
X102459368Y-141904228D01*
X102353622Y-142000069D01*
X103666651Y-143313098D01*
X103579365Y-143380076D01*
X103380076Y-143579365D01*
X103313098Y-143666651D01*
X102000069Y-142353622D01*
X101904228Y-142459368D01*
X101670109Y-142775041D01*
X101468062Y-143112135D01*
X101300023Y-143467424D01*
X101300016Y-143467440D01*
X101167625Y-143837450D01*
X101072129Y-144218691D01*
X101014461Y-144607449D01*
X100995176Y-145000000D01*
X100500559Y-145000000D01*
X100500500Y-144997293D01*
X100500500Y-116092999D01*
X112374341Y-116092999D01*
X112374341Y-116093000D01*
X112394936Y-116328403D01*
X112394938Y-116328413D01*
X112456094Y-116556655D01*
X112456096Y-116556659D01*
X112456097Y-116556663D01*
X112460000Y-116565032D01*
X112555965Y-116770830D01*
X112555967Y-116770834D01*
X112664281Y-116925521D01*
X112691501Y-116964396D01*
X112691506Y-116964402D01*
X112858597Y-117131493D01*
X112858603Y-117131498D01*
X113044158Y-117261425D01*
X113087783Y-117316002D01*
X113094977Y-117385500D01*
X113063454Y-117447855D01*
X113044158Y-117464575D01*
X112858597Y-117594505D01*
X112691505Y-117761597D01*
X112555965Y-117955169D01*
X112555964Y-117955171D01*
X112456098Y-118169335D01*
X112456094Y-118169344D01*
X112394938Y-118397586D01*
X112394936Y-118397596D01*
X112374341Y-118632999D01*
X112374341Y-118633000D01*
X112394936Y-118868403D01*
X112394938Y-118868413D01*
X112456094Y-119096655D01*
X112456096Y-119096659D01*
X112456097Y-119096663D01*
X112460000Y-119105032D01*
X112555965Y-119310830D01*
X112555967Y-119310834D01*
X112664281Y-119465521D01*
X112691501Y-119504396D01*
X112691506Y-119504402D01*
X112858597Y-119671493D01*
X112858603Y-119671498D01*
X113044158Y-119801425D01*
X113087783Y-119856002D01*
X113094977Y-119925500D01*
X113063454Y-119987855D01*
X113044158Y-120004575D01*
X112858597Y-120134505D01*
X112691505Y-120301597D01*
X112555965Y-120495169D01*
X112555964Y-120495171D01*
X112456098Y-120709335D01*
X112456094Y-120709344D01*
X112394938Y-120937586D01*
X112394936Y-120937596D01*
X112374341Y-121172999D01*
X112374341Y-121173000D01*
X112394936Y-121408403D01*
X112394938Y-121408413D01*
X112456094Y-121636655D01*
X112456096Y-121636659D01*
X112456097Y-121636663D01*
X112460000Y-121645032D01*
X112555965Y-121850830D01*
X112555967Y-121850834D01*
X112664281Y-122005521D01*
X112691501Y-122044396D01*
X112691506Y-122044402D01*
X112858597Y-122211493D01*
X112858603Y-122211498D01*
X113044158Y-122341425D01*
X113087783Y-122396002D01*
X113094977Y-122465500D01*
X113063454Y-122527855D01*
X113044158Y-122544575D01*
X112858597Y-122674505D01*
X112691505Y-122841597D01*
X112555965Y-123035169D01*
X112555964Y-123035171D01*
X112456098Y-123249335D01*
X112456094Y-123249344D01*
X112394938Y-123477586D01*
X112394936Y-123477596D01*
X112374341Y-123712999D01*
X112374341Y-123713000D01*
X112394936Y-123948403D01*
X112394938Y-123948413D01*
X112456094Y-124176655D01*
X112456096Y-124176659D01*
X112456097Y-124176663D01*
X112460000Y-124185032D01*
X112555965Y-124390830D01*
X112555967Y-124390834D01*
X112664281Y-124545521D01*
X112691505Y-124584401D01*
X112858599Y-124751495D01*
X113044594Y-124881730D01*
X113088218Y-124936307D01*
X113095411Y-125005806D01*
X113063889Y-125068160D01*
X113044593Y-125084880D01*
X112968626Y-125138072D01*
X112968625Y-125138072D01*
X113600590Y-125770037D01*
X113537007Y-125787075D01*
X113422993Y-125852901D01*
X113329901Y-125945993D01*
X113264075Y-126060007D01*
X113247037Y-126123590D01*
X112615072Y-125491625D01*
X112556401Y-125575419D01*
X112456570Y-125789507D01*
X112456566Y-125789516D01*
X112395432Y-126017673D01*
X112395430Y-126017684D01*
X112374843Y-126252998D01*
X112374843Y-126253001D01*
X112395430Y-126488315D01*
X112395432Y-126488326D01*
X112456566Y-126716483D01*
X112456570Y-126716492D01*
X112556400Y-126930579D01*
X112556402Y-126930583D01*
X112615072Y-127014373D01*
X112615073Y-127014373D01*
X113247037Y-126382409D01*
X113264075Y-126445993D01*
X113329901Y-126560007D01*
X113422993Y-126653099D01*
X113537007Y-126718925D01*
X113600590Y-126735962D01*
X112968625Y-127367925D01*
X113045031Y-127421425D01*
X113088655Y-127476002D01*
X113095848Y-127545501D01*
X113064326Y-127607855D01*
X113045029Y-127624576D01*
X112968625Y-127678072D01*
X113600590Y-128310037D01*
X113537007Y-128327075D01*
X113422993Y-128392901D01*
X113329901Y-128485993D01*
X113264075Y-128600007D01*
X113247037Y-128663590D01*
X112615072Y-128031625D01*
X112556401Y-128115419D01*
X112456570Y-128329507D01*
X112456566Y-128329516D01*
X112395432Y-128557673D01*
X112395430Y-128557684D01*
X112374843Y-128792998D01*
X112374843Y-128793001D01*
X112395430Y-129028315D01*
X112395432Y-129028326D01*
X112456566Y-129256483D01*
X112456570Y-129256492D01*
X112556400Y-129470579D01*
X112556402Y-129470583D01*
X112615072Y-129554373D01*
X112615073Y-129554373D01*
X113247037Y-128922409D01*
X113264075Y-128985993D01*
X113329901Y-129100007D01*
X113422993Y-129193099D01*
X113537007Y-129258925D01*
X113600590Y-129275962D01*
X112968625Y-129907925D01*
X113045031Y-129961425D01*
X113088655Y-130016002D01*
X113095848Y-130085501D01*
X113064326Y-130147855D01*
X113045029Y-130164576D01*
X112968625Y-130218072D01*
X113600590Y-130850037D01*
X113537007Y-130867075D01*
X113422993Y-130932901D01*
X113329901Y-131025993D01*
X113264075Y-131140007D01*
X113247037Y-131203590D01*
X112615072Y-130571625D01*
X112556401Y-130655419D01*
X112456570Y-130869507D01*
X112456566Y-130869516D01*
X112395432Y-131097673D01*
X112395430Y-131097684D01*
X112374843Y-131332998D01*
X112374843Y-131333001D01*
X112395430Y-131568315D01*
X112395432Y-131568326D01*
X112456566Y-131796483D01*
X112456570Y-131796492D01*
X112556400Y-132010579D01*
X112556402Y-132010583D01*
X112615072Y-132094373D01*
X112615073Y-132094373D01*
X113247037Y-131462409D01*
X113264075Y-131525993D01*
X113329901Y-131640007D01*
X113422993Y-131733099D01*
X113537007Y-131798925D01*
X113600590Y-131815962D01*
X112968625Y-132447925D01*
X113044594Y-132501119D01*
X113088219Y-132555696D01*
X113095413Y-132625194D01*
X113063890Y-132687549D01*
X113044595Y-132704269D01*
X112858594Y-132834508D01*
X112691505Y-133001597D01*
X112555965Y-133195169D01*
X112555964Y-133195171D01*
X112456098Y-133409335D01*
X112456094Y-133409344D01*
X112394938Y-133637586D01*
X112394936Y-133637596D01*
X112374341Y-133872999D01*
X112374341Y-133873000D01*
X112394936Y-134108403D01*
X112394938Y-134108413D01*
X112456094Y-134336655D01*
X112456096Y-134336659D01*
X112456097Y-134336663D01*
X112540499Y-134517663D01*
X112555965Y-134550830D01*
X112555967Y-134550834D01*
X112662670Y-134703220D01*
X112691505Y-134744401D01*
X112858599Y-134911495D01*
X112901675Y-134941657D01*
X113052165Y-135047032D01*
X113052167Y-135047033D01*
X113052170Y-135047035D01*
X113266337Y-135146903D01*
X113494592Y-135208063D01*
X113671034Y-135223500D01*
X113729999Y-135228659D01*
X113730000Y-135228659D01*
X113730001Y-135228659D01*
X113788966Y-135223500D01*
X113965408Y-135208063D01*
X114193663Y-135146903D01*
X114407830Y-135047035D01*
X114601401Y-134911495D01*
X114768495Y-134744401D01*
X114768504Y-134744388D01*
X114769636Y-134743040D01*
X114770293Y-134742602D01*
X114772323Y-134740573D01*
X114772730Y-134740980D01*
X114827805Y-134704334D01*
X114897666Y-134703220D01*
X114957038Y-134740053D01*
X114982335Y-134783733D01*
X114985186Y-134792334D01*
X115077288Y-134941656D01*
X115201344Y-135065712D01*
X115350666Y-135157814D01*
X115517203Y-135212999D01*
X115619991Y-135223500D01*
X116920008Y-135223499D01*
X117022797Y-135212999D01*
X117189334Y-135157814D01*
X117338656Y-135065712D01*
X117462712Y-134941656D01*
X117554814Y-134792334D01*
X117609999Y-134625797D01*
X117620500Y-134523009D01*
X117620499Y-133222992D01*
X117609999Y-133120203D01*
X117554814Y-132953666D01*
X117462712Y-132804344D01*
X117338656Y-132680288D01*
X117189334Y-132588186D01*
X117116966Y-132564205D01*
X117059522Y-132524433D01*
X117032699Y-132459917D01*
X117032585Y-132449137D01*
X116399409Y-131815962D01*
X116462993Y-131798925D01*
X116577007Y-131733099D01*
X116670099Y-131640007D01*
X116735925Y-131525993D01*
X116752962Y-131462410D01*
X117384925Y-132094373D01*
X117384926Y-132094373D01*
X117443598Y-132010582D01*
X117443600Y-132010578D01*
X117543429Y-131796492D01*
X117543433Y-131796483D01*
X117604567Y-131568326D01*
X117604569Y-131568315D01*
X117625157Y-131333001D01*
X117625157Y-131332998D01*
X117604569Y-131097684D01*
X117604567Y-131097673D01*
X117543433Y-130869516D01*
X117543429Y-130869507D01*
X117443600Y-130655423D01*
X117443599Y-130655421D01*
X117384925Y-130571626D01*
X117384925Y-130571625D01*
X116752962Y-131203589D01*
X116735925Y-131140007D01*
X116670099Y-131025993D01*
X116577007Y-130932901D01*
X116462993Y-130867075D01*
X116399410Y-130850037D01*
X117031373Y-130218073D01*
X116954969Y-130164576D01*
X116911344Y-130109999D01*
X116904150Y-130040501D01*
X116935672Y-129978146D01*
X116954968Y-129961425D01*
X117031373Y-129907925D01*
X116399409Y-129275962D01*
X116462993Y-129258925D01*
X116577007Y-129193099D01*
X116670099Y-129100007D01*
X116735925Y-128985993D01*
X116752962Y-128922410D01*
X117384925Y-129554373D01*
X117384926Y-129554373D01*
X117443598Y-129470582D01*
X117443600Y-129470578D01*
X117543429Y-129256492D01*
X117543433Y-129256483D01*
X117604567Y-129028326D01*
X117604569Y-129028315D01*
X117625157Y-128793001D01*
X117625157Y-128792998D01*
X117604569Y-128557684D01*
X117604567Y-128557673D01*
X117543433Y-128329516D01*
X117543429Y-128329507D01*
X117443600Y-128115423D01*
X117443599Y-128115421D01*
X117384925Y-128031626D01*
X117384925Y-128031625D01*
X116752962Y-128663589D01*
X116735925Y-128600007D01*
X116670099Y-128485993D01*
X116577007Y-128392901D01*
X116462993Y-128327075D01*
X116399410Y-128310037D01*
X117031373Y-127678073D01*
X116954969Y-127624576D01*
X116911344Y-127569999D01*
X116904150Y-127500501D01*
X116935672Y-127438146D01*
X116954968Y-127421425D01*
X117031373Y-127367925D01*
X116399409Y-126735962D01*
X116462993Y-126718925D01*
X116577007Y-126653099D01*
X116670099Y-126560007D01*
X116735925Y-126445993D01*
X116752962Y-126382410D01*
X117384925Y-127014373D01*
X117384926Y-127014373D01*
X117443598Y-126930582D01*
X117443600Y-126930578D01*
X117543429Y-126716492D01*
X117543433Y-126716483D01*
X117604567Y-126488326D01*
X117604569Y-126488315D01*
X117625157Y-126253001D01*
X117625157Y-126252998D01*
X117604569Y-126017684D01*
X117604567Y-126017673D01*
X117543433Y-125789516D01*
X117543429Y-125789507D01*
X117443600Y-125575423D01*
X117443599Y-125575421D01*
X117384925Y-125491626D01*
X117384925Y-125491625D01*
X116752962Y-126123589D01*
X116735925Y-126060007D01*
X116670099Y-125945993D01*
X116577007Y-125852901D01*
X116462993Y-125787075D01*
X116399410Y-125770037D01*
X117031373Y-125138073D01*
X117031373Y-125138072D01*
X116955405Y-125084880D01*
X116911780Y-125030304D01*
X116904586Y-124960805D01*
X116936108Y-124898451D01*
X116955399Y-124881734D01*
X117141401Y-124751495D01*
X117308495Y-124584401D01*
X117444035Y-124390830D01*
X117543903Y-124176663D01*
X117605063Y-123948408D01*
X117625659Y-123713000D01*
X117605063Y-123477592D01*
X117543903Y-123249337D01*
X117444035Y-123035171D01*
X117438425Y-123027158D01*
X117308494Y-122841597D01*
X117141402Y-122674506D01*
X117141396Y-122674501D01*
X116955842Y-122544575D01*
X116912217Y-122489998D01*
X116905023Y-122420500D01*
X116936546Y-122358145D01*
X116955842Y-122341425D01*
X116978026Y-122325891D01*
X117141401Y-122211495D01*
X117308495Y-122044401D01*
X117444035Y-121850830D01*
X117543903Y-121636663D01*
X117605063Y-121408408D01*
X117625659Y-121173000D01*
X117605063Y-120937592D01*
X117543903Y-120709337D01*
X117444035Y-120495171D01*
X117438425Y-120487158D01*
X117308494Y-120301597D01*
X117141402Y-120134506D01*
X117141396Y-120134501D01*
X116955842Y-120004575D01*
X116912217Y-119949998D01*
X116905023Y-119880500D01*
X116936546Y-119818145D01*
X116955842Y-119801425D01*
X116978026Y-119785891D01*
X117141401Y-119671495D01*
X117308495Y-119504401D01*
X117444035Y-119310830D01*
X117543903Y-119096663D01*
X117605063Y-118868408D01*
X117625659Y-118633000D01*
X117605063Y-118397592D01*
X117543903Y-118169337D01*
X117444035Y-117955171D01*
X117438425Y-117947158D01*
X117308494Y-117761597D01*
X117141402Y-117594506D01*
X117141396Y-117594501D01*
X116955842Y-117464575D01*
X116912217Y-117409998D01*
X116905023Y-117340500D01*
X116936546Y-117278145D01*
X116955842Y-117261425D01*
X116978026Y-117245891D01*
X117141401Y-117131495D01*
X117308495Y-116964401D01*
X117444035Y-116770830D01*
X117543903Y-116556663D01*
X117605063Y-116328408D01*
X117625659Y-116093000D01*
X117625659Y-116092999D01*
X127374341Y-116092999D01*
X127374341Y-116093000D01*
X127394936Y-116328403D01*
X127394938Y-116328413D01*
X127456094Y-116556655D01*
X127456096Y-116556659D01*
X127456097Y-116556663D01*
X127460000Y-116565032D01*
X127555965Y-116770830D01*
X127555967Y-116770834D01*
X127664281Y-116925521D01*
X127691501Y-116964396D01*
X127691506Y-116964402D01*
X127858597Y-117131493D01*
X127858603Y-117131498D01*
X128044158Y-117261425D01*
X128087783Y-117316002D01*
X128094977Y-117385500D01*
X128063454Y-117447855D01*
X128044158Y-117464575D01*
X127858597Y-117594505D01*
X127691505Y-117761597D01*
X127555965Y-117955169D01*
X127555964Y-117955171D01*
X127456098Y-118169335D01*
X127456094Y-118169344D01*
X127394938Y-118397586D01*
X127394936Y-118397596D01*
X127374341Y-118632999D01*
X127374341Y-118633000D01*
X127394936Y-118868403D01*
X127394938Y-118868413D01*
X127456094Y-119096655D01*
X127456096Y-119096659D01*
X127456097Y-119096663D01*
X127460000Y-119105032D01*
X127555965Y-119310830D01*
X127555967Y-119310834D01*
X127664281Y-119465521D01*
X127691501Y-119504396D01*
X127691506Y-119504402D01*
X127858597Y-119671493D01*
X127858603Y-119671498D01*
X128044158Y-119801425D01*
X128087783Y-119856002D01*
X128094977Y-119925500D01*
X128063454Y-119987855D01*
X128044158Y-120004575D01*
X127858597Y-120134505D01*
X127691505Y-120301597D01*
X127555965Y-120495169D01*
X127555964Y-120495171D01*
X127456098Y-120709335D01*
X127456094Y-120709344D01*
X127394938Y-120937586D01*
X127394936Y-120937596D01*
X127374341Y-121172999D01*
X127374341Y-121173000D01*
X127394936Y-121408403D01*
X127394938Y-121408413D01*
X127456094Y-121636655D01*
X127456096Y-121636659D01*
X127456097Y-121636663D01*
X127460000Y-121645032D01*
X127555965Y-121850830D01*
X127555967Y-121850834D01*
X127664281Y-122005521D01*
X127691501Y-122044396D01*
X127691506Y-122044402D01*
X127858597Y-122211493D01*
X127858603Y-122211498D01*
X128044158Y-122341425D01*
X128087783Y-122396002D01*
X128094977Y-122465500D01*
X128063454Y-122527855D01*
X128044158Y-122544575D01*
X127858597Y-122674505D01*
X127691505Y-122841597D01*
X127555965Y-123035169D01*
X127555964Y-123035171D01*
X127456098Y-123249335D01*
X127456094Y-123249344D01*
X127394938Y-123477586D01*
X127394936Y-123477596D01*
X127374341Y-123712999D01*
X127374341Y-123713000D01*
X127394936Y-123948403D01*
X127394938Y-123948413D01*
X127456094Y-124176655D01*
X127456096Y-124176659D01*
X127456097Y-124176663D01*
X127460000Y-124185032D01*
X127555965Y-124390830D01*
X127555967Y-124390834D01*
X127664281Y-124545521D01*
X127691505Y-124584401D01*
X127858599Y-124751495D01*
X128044594Y-124881730D01*
X128088218Y-124936307D01*
X128095411Y-125005806D01*
X128063889Y-125068160D01*
X128044593Y-125084880D01*
X127968626Y-125138072D01*
X127968625Y-125138072D01*
X128600590Y-125770037D01*
X128537007Y-125787075D01*
X128422993Y-125852901D01*
X128329901Y-125945993D01*
X128264075Y-126060007D01*
X128247037Y-126123590D01*
X127615072Y-125491625D01*
X127556401Y-125575419D01*
X127456570Y-125789507D01*
X127456566Y-125789516D01*
X127395432Y-126017673D01*
X127395430Y-126017684D01*
X127374843Y-126252998D01*
X127374843Y-126253001D01*
X127395430Y-126488315D01*
X127395432Y-126488326D01*
X127456566Y-126716483D01*
X127456570Y-126716492D01*
X127556400Y-126930579D01*
X127556402Y-126930583D01*
X127615072Y-127014373D01*
X127615073Y-127014373D01*
X128247037Y-126382409D01*
X128264075Y-126445993D01*
X128329901Y-126560007D01*
X128422993Y-126653099D01*
X128537007Y-126718925D01*
X128600590Y-126735962D01*
X127968625Y-127367925D01*
X128045031Y-127421425D01*
X128088655Y-127476002D01*
X128095848Y-127545501D01*
X128064326Y-127607855D01*
X128045029Y-127624576D01*
X127968625Y-127678072D01*
X128600590Y-128310037D01*
X128537007Y-128327075D01*
X128422993Y-128392901D01*
X128329901Y-128485993D01*
X128264075Y-128600007D01*
X128247037Y-128663590D01*
X127615072Y-128031625D01*
X127556401Y-128115419D01*
X127456570Y-128329507D01*
X127456566Y-128329516D01*
X127395432Y-128557673D01*
X127395430Y-128557684D01*
X127374843Y-128792998D01*
X127374843Y-128793001D01*
X127395430Y-129028315D01*
X127395432Y-129028326D01*
X127456566Y-129256483D01*
X127456570Y-129256492D01*
X127556400Y-129470579D01*
X127556402Y-129470583D01*
X127615072Y-129554373D01*
X127615073Y-129554373D01*
X128247037Y-128922409D01*
X128264075Y-128985993D01*
X128329901Y-129100007D01*
X128422993Y-129193099D01*
X128537007Y-129258925D01*
X128600590Y-129275962D01*
X127968625Y-129907925D01*
X128045031Y-129961425D01*
X128088655Y-130016002D01*
X128095848Y-130085501D01*
X128064326Y-130147855D01*
X128045029Y-130164576D01*
X127968625Y-130218072D01*
X128600590Y-130850037D01*
X128537007Y-130867075D01*
X128422993Y-130932901D01*
X128329901Y-131025993D01*
X128264075Y-131140007D01*
X128247037Y-131203590D01*
X127615072Y-130571625D01*
X127556401Y-130655419D01*
X127456570Y-130869507D01*
X127456566Y-130869516D01*
X127395432Y-131097673D01*
X127395430Y-131097684D01*
X127374843Y-131332998D01*
X127374843Y-131333001D01*
X127395430Y-131568315D01*
X127395432Y-131568326D01*
X127456566Y-131796483D01*
X127456570Y-131796492D01*
X127556400Y-132010579D01*
X127556402Y-132010583D01*
X127615072Y-132094373D01*
X127615073Y-132094373D01*
X128247037Y-131462409D01*
X128264075Y-131525993D01*
X128329901Y-131640007D01*
X128422993Y-131733099D01*
X128537007Y-131798925D01*
X128600590Y-131815962D01*
X127968625Y-132447925D01*
X128044594Y-132501119D01*
X128088219Y-132555696D01*
X128095413Y-132625194D01*
X128063890Y-132687549D01*
X128044595Y-132704269D01*
X127858594Y-132834508D01*
X127691505Y-133001597D01*
X127555965Y-133195169D01*
X127555964Y-133195171D01*
X127456098Y-133409335D01*
X127456094Y-133409344D01*
X127394938Y-133637586D01*
X127394936Y-133637596D01*
X127374341Y-133872999D01*
X127374341Y-133873000D01*
X127394936Y-134108403D01*
X127394938Y-134108413D01*
X127456094Y-134336655D01*
X127456096Y-134336659D01*
X127456097Y-134336663D01*
X127540499Y-134517663D01*
X127555965Y-134550830D01*
X127555967Y-134550834D01*
X127662670Y-134703220D01*
X127691505Y-134744401D01*
X127858599Y-134911495D01*
X127901675Y-134941657D01*
X128052165Y-135047032D01*
X128052167Y-135047033D01*
X128052170Y-135047035D01*
X128266337Y-135146903D01*
X128494592Y-135208063D01*
X128671034Y-135223500D01*
X128729999Y-135228659D01*
X128730000Y-135228659D01*
X128730001Y-135228659D01*
X128788966Y-135223500D01*
X128965408Y-135208063D01*
X129193663Y-135146903D01*
X129407830Y-135047035D01*
X129601401Y-134911495D01*
X129768495Y-134744401D01*
X129768504Y-134744388D01*
X129769636Y-134743040D01*
X129770293Y-134742602D01*
X129772323Y-134740573D01*
X129772730Y-134740980D01*
X129827805Y-134704334D01*
X129897666Y-134703220D01*
X129957038Y-134740053D01*
X129982335Y-134783733D01*
X129985186Y-134792334D01*
X130077288Y-134941656D01*
X130201344Y-135065712D01*
X130350666Y-135157814D01*
X130517203Y-135212999D01*
X130619991Y-135223500D01*
X131920008Y-135223499D01*
X132022797Y-135212999D01*
X132189334Y-135157814D01*
X132338656Y-135065712D01*
X132462712Y-134941656D01*
X132554814Y-134792334D01*
X132609999Y-134625797D01*
X132620500Y-134523009D01*
X132620499Y-133222992D01*
X132609999Y-133120203D01*
X132554814Y-132953666D01*
X132462712Y-132804344D01*
X132338656Y-132680288D01*
X132189334Y-132588186D01*
X132116966Y-132564205D01*
X132059522Y-132524433D01*
X132032699Y-132459917D01*
X132032585Y-132449137D01*
X131399409Y-131815962D01*
X131462993Y-131798925D01*
X131577007Y-131733099D01*
X131670099Y-131640007D01*
X131735925Y-131525993D01*
X131752962Y-131462410D01*
X132384925Y-132094373D01*
X132384926Y-132094373D01*
X132443598Y-132010582D01*
X132443600Y-132010578D01*
X132543429Y-131796492D01*
X132543433Y-131796483D01*
X132604567Y-131568326D01*
X132604569Y-131568315D01*
X132625157Y-131333001D01*
X132625157Y-131332998D01*
X132604569Y-131097684D01*
X132604567Y-131097673D01*
X132543433Y-130869516D01*
X132543429Y-130869507D01*
X132443600Y-130655423D01*
X132443599Y-130655421D01*
X132384925Y-130571626D01*
X132384925Y-130571625D01*
X131752962Y-131203589D01*
X131735925Y-131140007D01*
X131670099Y-131025993D01*
X131577007Y-130932901D01*
X131462993Y-130867075D01*
X131399410Y-130850037D01*
X132031373Y-130218073D01*
X131954969Y-130164576D01*
X131911344Y-130109999D01*
X131904150Y-130040501D01*
X131935672Y-129978146D01*
X131954968Y-129961425D01*
X132031373Y-129907925D01*
X131399409Y-129275962D01*
X131462993Y-129258925D01*
X131577007Y-129193099D01*
X131670099Y-129100007D01*
X131735925Y-128985993D01*
X131752962Y-128922410D01*
X132384925Y-129554373D01*
X132384926Y-129554373D01*
X132443598Y-129470582D01*
X132443600Y-129470578D01*
X132543429Y-129256492D01*
X132543433Y-129256483D01*
X132604567Y-129028326D01*
X132604569Y-129028315D01*
X132625157Y-128793001D01*
X132625157Y-128792998D01*
X132604569Y-128557684D01*
X132604567Y-128557673D01*
X132543433Y-128329516D01*
X132543429Y-128329507D01*
X132443600Y-128115423D01*
X132443599Y-128115421D01*
X132384925Y-128031626D01*
X132384925Y-128031625D01*
X131752962Y-128663589D01*
X131735925Y-128600007D01*
X131670099Y-128485993D01*
X131577007Y-128392901D01*
X131462993Y-128327075D01*
X131399410Y-128310037D01*
X132031373Y-127678073D01*
X131954969Y-127624576D01*
X131911344Y-127569999D01*
X131904150Y-127500501D01*
X131935672Y-127438146D01*
X131954968Y-127421425D01*
X132031373Y-127367925D01*
X131399409Y-126735962D01*
X131462993Y-126718925D01*
X131577007Y-126653099D01*
X131670099Y-126560007D01*
X131735925Y-126445993D01*
X131752962Y-126382410D01*
X132384925Y-127014373D01*
X132384926Y-127014373D01*
X132443598Y-126930582D01*
X132443600Y-126930578D01*
X132543429Y-126716492D01*
X132543433Y-126716483D01*
X132604567Y-126488326D01*
X132604569Y-126488315D01*
X132625157Y-126253001D01*
X132625157Y-126252998D01*
X132604569Y-126017684D01*
X132604567Y-126017673D01*
X132543433Y-125789516D01*
X132543429Y-125789507D01*
X132443600Y-125575423D01*
X132443599Y-125575421D01*
X132384925Y-125491626D01*
X132384925Y-125491625D01*
X131752962Y-126123589D01*
X131735925Y-126060007D01*
X131670099Y-125945993D01*
X131577007Y-125852901D01*
X131462993Y-125787075D01*
X131399410Y-125770037D01*
X132031373Y-125138073D01*
X132031373Y-125138072D01*
X131955405Y-125084880D01*
X131911780Y-125030304D01*
X131904586Y-124960805D01*
X131936108Y-124898451D01*
X131955399Y-124881734D01*
X132141401Y-124751495D01*
X132308495Y-124584401D01*
X132444035Y-124390830D01*
X132543903Y-124176663D01*
X132605063Y-123948408D01*
X132625659Y-123713000D01*
X132605063Y-123477592D01*
X132543903Y-123249337D01*
X132444035Y-123035171D01*
X132438425Y-123027158D01*
X132308494Y-122841597D01*
X132141402Y-122674506D01*
X132141396Y-122674501D01*
X131955842Y-122544575D01*
X131912217Y-122489998D01*
X131905023Y-122420500D01*
X131936546Y-122358145D01*
X131955842Y-122341425D01*
X131978026Y-122325891D01*
X132141401Y-122211495D01*
X132308495Y-122044401D01*
X132444035Y-121850830D01*
X132543903Y-121636663D01*
X132605063Y-121408408D01*
X132625659Y-121173000D01*
X132605063Y-120937592D01*
X132543903Y-120709337D01*
X132444035Y-120495171D01*
X132438425Y-120487158D01*
X132308494Y-120301597D01*
X132141402Y-120134506D01*
X132141396Y-120134501D01*
X131955842Y-120004575D01*
X131912217Y-119949998D01*
X131905023Y-119880500D01*
X131936546Y-119818145D01*
X131955842Y-119801425D01*
X131978026Y-119785891D01*
X132141401Y-119671495D01*
X132308495Y-119504401D01*
X132444035Y-119310830D01*
X132543903Y-119096663D01*
X132605063Y-118868408D01*
X132625659Y-118633000D01*
X132605063Y-118397592D01*
X132543903Y-118169337D01*
X132444035Y-117955171D01*
X132438425Y-117947158D01*
X132308494Y-117761597D01*
X132141402Y-117594506D01*
X132141396Y-117594501D01*
X131955842Y-117464575D01*
X131912217Y-117409998D01*
X131905023Y-117340500D01*
X131936546Y-117278145D01*
X131955842Y-117261425D01*
X131978026Y-117245891D01*
X132141401Y-117131495D01*
X132308495Y-116964401D01*
X132444035Y-116770830D01*
X132543903Y-116556663D01*
X132605063Y-116328408D01*
X132625659Y-116093000D01*
X132625659Y-116092999D01*
X142374341Y-116092999D01*
X142374341Y-116093000D01*
X142394936Y-116328403D01*
X142394938Y-116328413D01*
X142456094Y-116556655D01*
X142456096Y-116556659D01*
X142456097Y-116556663D01*
X142460000Y-116565032D01*
X142555965Y-116770830D01*
X142555967Y-116770834D01*
X142664281Y-116925521D01*
X142691501Y-116964396D01*
X142691506Y-116964402D01*
X142858597Y-117131493D01*
X142858603Y-117131498D01*
X143044158Y-117261425D01*
X143087783Y-117316002D01*
X143094977Y-117385500D01*
X143063454Y-117447855D01*
X143044158Y-117464575D01*
X142858597Y-117594505D01*
X142691505Y-117761597D01*
X142555965Y-117955169D01*
X142555964Y-117955171D01*
X142456098Y-118169335D01*
X142456094Y-118169344D01*
X142394938Y-118397586D01*
X142394936Y-118397596D01*
X142374341Y-118632999D01*
X142374341Y-118633000D01*
X142394936Y-118868403D01*
X142394938Y-118868413D01*
X142456094Y-119096655D01*
X142456096Y-119096659D01*
X142456097Y-119096663D01*
X142460000Y-119105032D01*
X142555965Y-119310830D01*
X142555967Y-119310834D01*
X142664281Y-119465521D01*
X142691501Y-119504396D01*
X142691506Y-119504402D01*
X142858597Y-119671493D01*
X142858603Y-119671498D01*
X143044158Y-119801425D01*
X143087783Y-119856002D01*
X143094977Y-119925500D01*
X143063454Y-119987855D01*
X143044158Y-120004575D01*
X142858597Y-120134505D01*
X142691505Y-120301597D01*
X142555965Y-120495169D01*
X142555964Y-120495171D01*
X142456098Y-120709335D01*
X142456094Y-120709344D01*
X142394938Y-120937586D01*
X142394936Y-120937596D01*
X142374341Y-121172999D01*
X142374341Y-121173000D01*
X142394936Y-121408403D01*
X142394938Y-121408413D01*
X142456094Y-121636655D01*
X142456096Y-121636659D01*
X142456097Y-121636663D01*
X142460000Y-121645032D01*
X142555965Y-121850830D01*
X142555967Y-121850834D01*
X142664281Y-122005521D01*
X142691501Y-122044396D01*
X142691506Y-122044402D01*
X142858597Y-122211493D01*
X142858603Y-122211498D01*
X143044158Y-122341425D01*
X143087783Y-122396002D01*
X143094977Y-122465500D01*
X143063454Y-122527855D01*
X143044158Y-122544575D01*
X142858597Y-122674505D01*
X142691505Y-122841597D01*
X142555965Y-123035169D01*
X142555964Y-123035171D01*
X142456098Y-123249335D01*
X142456094Y-123249344D01*
X142394938Y-123477586D01*
X142394936Y-123477596D01*
X142374341Y-123712999D01*
X142374341Y-123713000D01*
X142394936Y-123948403D01*
X142394938Y-123948413D01*
X142456094Y-124176655D01*
X142456096Y-124176659D01*
X142456097Y-124176663D01*
X142460000Y-124185032D01*
X142555965Y-124390830D01*
X142555967Y-124390834D01*
X142664281Y-124545521D01*
X142691505Y-124584401D01*
X142858599Y-124751495D01*
X143044594Y-124881730D01*
X143088218Y-124936307D01*
X143095411Y-125005806D01*
X143063889Y-125068160D01*
X143044593Y-125084880D01*
X142968626Y-125138072D01*
X142968625Y-125138072D01*
X143600590Y-125770037D01*
X143537007Y-125787075D01*
X143422993Y-125852901D01*
X143329901Y-125945993D01*
X143264075Y-126060007D01*
X143247037Y-126123590D01*
X142615072Y-125491625D01*
X142556401Y-125575419D01*
X142456570Y-125789507D01*
X142456566Y-125789516D01*
X142395432Y-126017673D01*
X142395430Y-126017684D01*
X142374843Y-126252998D01*
X142374843Y-126253001D01*
X142395430Y-126488315D01*
X142395432Y-126488326D01*
X142456566Y-126716483D01*
X142456570Y-126716492D01*
X142556400Y-126930579D01*
X142556402Y-126930583D01*
X142615072Y-127014373D01*
X142615073Y-127014373D01*
X143247037Y-126382409D01*
X143264075Y-126445993D01*
X143329901Y-126560007D01*
X143422993Y-126653099D01*
X143537007Y-126718925D01*
X143600590Y-126735962D01*
X142968625Y-127367925D01*
X143045031Y-127421425D01*
X143088655Y-127476002D01*
X143095848Y-127545501D01*
X143064326Y-127607855D01*
X143045029Y-127624576D01*
X142968625Y-127678072D01*
X143600590Y-128310037D01*
X143537007Y-128327075D01*
X143422993Y-128392901D01*
X143329901Y-128485993D01*
X143264075Y-128600007D01*
X143247037Y-128663590D01*
X142615072Y-128031625D01*
X142556401Y-128115419D01*
X142456570Y-128329507D01*
X142456566Y-128329516D01*
X142395432Y-128557673D01*
X142395430Y-128557684D01*
X142374843Y-128792998D01*
X142374843Y-128793001D01*
X142395430Y-129028315D01*
X142395432Y-129028326D01*
X142456566Y-129256483D01*
X142456570Y-129256492D01*
X142556400Y-129470579D01*
X142556402Y-129470583D01*
X142615072Y-129554373D01*
X142615073Y-129554373D01*
X143247037Y-128922409D01*
X143264075Y-128985993D01*
X143329901Y-129100007D01*
X143422993Y-129193099D01*
X143537007Y-129258925D01*
X143600590Y-129275962D01*
X142968625Y-129907925D01*
X143045031Y-129961425D01*
X143088655Y-130016002D01*
X143095848Y-130085501D01*
X143064326Y-130147855D01*
X143045029Y-130164576D01*
X142968625Y-130218072D01*
X143600590Y-130850037D01*
X143537007Y-130867075D01*
X143422993Y-130932901D01*
X143329901Y-131025993D01*
X143264075Y-131140007D01*
X143247037Y-131203590D01*
X142615072Y-130571625D01*
X142556401Y-130655419D01*
X142456570Y-130869507D01*
X142456566Y-130869516D01*
X142395432Y-131097673D01*
X142395430Y-131097684D01*
X142374843Y-131332998D01*
X142374843Y-131333001D01*
X142395430Y-131568315D01*
X142395432Y-131568326D01*
X142456566Y-131796483D01*
X142456570Y-131796492D01*
X142556400Y-132010579D01*
X142556402Y-132010583D01*
X142615072Y-132094373D01*
X142615073Y-132094373D01*
X143247037Y-131462409D01*
X143264075Y-131525993D01*
X143329901Y-131640007D01*
X143422993Y-131733099D01*
X143537007Y-131798925D01*
X143600590Y-131815962D01*
X142968625Y-132447925D01*
X143044594Y-132501119D01*
X143088219Y-132555696D01*
X143095413Y-132625194D01*
X143063890Y-132687549D01*
X143044595Y-132704269D01*
X142858594Y-132834508D01*
X142691505Y-133001597D01*
X142555965Y-133195169D01*
X142555964Y-133195171D01*
X142456098Y-133409335D01*
X142456094Y-133409344D01*
X142394938Y-133637586D01*
X142394936Y-133637596D01*
X142374341Y-133872999D01*
X142374341Y-133873000D01*
X142394936Y-134108403D01*
X142394938Y-134108413D01*
X142456094Y-134336655D01*
X142456096Y-134336659D01*
X142456097Y-134336663D01*
X142540499Y-134517663D01*
X142555965Y-134550830D01*
X142555967Y-134550834D01*
X142662670Y-134703220D01*
X142691505Y-134744401D01*
X142858599Y-134911495D01*
X142901675Y-134941657D01*
X143052165Y-135047032D01*
X143052167Y-135047033D01*
X143052170Y-135047035D01*
X143266337Y-135146903D01*
X143494592Y-135208063D01*
X143671034Y-135223500D01*
X143729999Y-135228659D01*
X143730000Y-135228659D01*
X143730001Y-135228659D01*
X143788966Y-135223500D01*
X143965408Y-135208063D01*
X144193663Y-135146903D01*
X144407830Y-135047035D01*
X144601401Y-134911495D01*
X144768495Y-134744401D01*
X144768504Y-134744388D01*
X144769636Y-134743040D01*
X144770293Y-134742602D01*
X144772323Y-134740573D01*
X144772730Y-134740980D01*
X144827805Y-134704334D01*
X144897666Y-134703220D01*
X144957038Y-134740053D01*
X144982335Y-134783733D01*
X144985186Y-134792334D01*
X145077288Y-134941656D01*
X145201344Y-135065712D01*
X145350666Y-135157814D01*
X145517203Y-135212999D01*
X145619991Y-135223500D01*
X146920008Y-135223499D01*
X147022797Y-135212999D01*
X147189334Y-135157814D01*
X147338656Y-135065712D01*
X147462712Y-134941656D01*
X147554814Y-134792334D01*
X147609999Y-134625797D01*
X147620500Y-134523009D01*
X147620499Y-133222992D01*
X147609999Y-133120203D01*
X147554814Y-132953666D01*
X147462712Y-132804344D01*
X147338656Y-132680288D01*
X147189334Y-132588186D01*
X147116966Y-132564205D01*
X147059522Y-132524433D01*
X147032699Y-132459917D01*
X147032585Y-132449137D01*
X146399409Y-131815962D01*
X146462993Y-131798925D01*
X146577007Y-131733099D01*
X146670099Y-131640007D01*
X146735925Y-131525993D01*
X146752962Y-131462410D01*
X147384925Y-132094373D01*
X147384926Y-132094373D01*
X147443598Y-132010582D01*
X147443600Y-132010578D01*
X147543429Y-131796492D01*
X147543433Y-131796483D01*
X147604567Y-131568326D01*
X147604569Y-131568315D01*
X147625157Y-131333001D01*
X147625157Y-131332998D01*
X147604569Y-131097684D01*
X147604567Y-131097673D01*
X147543433Y-130869516D01*
X147543429Y-130869507D01*
X147443600Y-130655423D01*
X147443599Y-130655421D01*
X147384925Y-130571626D01*
X147384925Y-130571625D01*
X146752962Y-131203589D01*
X146735925Y-131140007D01*
X146670099Y-131025993D01*
X146577007Y-130932901D01*
X146462993Y-130867075D01*
X146399410Y-130850037D01*
X147031373Y-130218073D01*
X146954969Y-130164576D01*
X146911344Y-130109999D01*
X146904150Y-130040501D01*
X146935672Y-129978146D01*
X146954968Y-129961425D01*
X147031373Y-129907925D01*
X146399409Y-129275962D01*
X146462993Y-129258925D01*
X146577007Y-129193099D01*
X146670099Y-129100007D01*
X146735925Y-128985993D01*
X146752962Y-128922410D01*
X147384925Y-129554373D01*
X147384926Y-129554373D01*
X147443598Y-129470582D01*
X147443600Y-129470578D01*
X147543429Y-129256492D01*
X147543433Y-129256483D01*
X147604567Y-129028326D01*
X147604569Y-129028315D01*
X147625157Y-128793001D01*
X147625157Y-128792998D01*
X147604569Y-128557684D01*
X147604567Y-128557673D01*
X147543433Y-128329516D01*
X147543429Y-128329507D01*
X147443600Y-128115423D01*
X147443599Y-128115421D01*
X147384925Y-128031626D01*
X147384925Y-128031625D01*
X146752962Y-128663589D01*
X146735925Y-128600007D01*
X146670099Y-128485993D01*
X146577007Y-128392901D01*
X146462993Y-128327075D01*
X146399410Y-128310037D01*
X147031373Y-127678073D01*
X146954969Y-127624576D01*
X146911344Y-127569999D01*
X146904150Y-127500501D01*
X146935672Y-127438146D01*
X146954968Y-127421425D01*
X147031373Y-127367925D01*
X146399409Y-126735962D01*
X146462993Y-126718925D01*
X146577007Y-126653099D01*
X146670099Y-126560007D01*
X146735925Y-126445993D01*
X146752962Y-126382410D01*
X147384925Y-127014373D01*
X147384926Y-127014373D01*
X147443598Y-126930582D01*
X147443600Y-126930578D01*
X147543429Y-126716492D01*
X147543433Y-126716483D01*
X147604567Y-126488326D01*
X147604569Y-126488315D01*
X147625157Y-126253001D01*
X147625157Y-126252998D01*
X147604569Y-126017684D01*
X147604567Y-126017673D01*
X147543433Y-125789516D01*
X147543429Y-125789507D01*
X147443600Y-125575423D01*
X147443599Y-125575421D01*
X147384925Y-125491626D01*
X147384925Y-125491625D01*
X146752962Y-126123589D01*
X146735925Y-126060007D01*
X146670099Y-125945993D01*
X146577007Y-125852901D01*
X146462993Y-125787075D01*
X146399410Y-125770037D01*
X147031373Y-125138073D01*
X147031373Y-125138072D01*
X146955405Y-125084880D01*
X146911780Y-125030304D01*
X146904586Y-124960805D01*
X146936108Y-124898451D01*
X146955399Y-124881734D01*
X147141401Y-124751495D01*
X147308495Y-124584401D01*
X147444035Y-124390830D01*
X147543903Y-124176663D01*
X147605063Y-123948408D01*
X147625659Y-123713000D01*
X147605063Y-123477592D01*
X147543903Y-123249337D01*
X147444035Y-123035171D01*
X147438425Y-123027158D01*
X147308494Y-122841597D01*
X147141402Y-122674506D01*
X147141396Y-122674501D01*
X146955842Y-122544575D01*
X146912217Y-122489998D01*
X146905023Y-122420500D01*
X146936546Y-122358145D01*
X146955842Y-122341425D01*
X146978026Y-122325891D01*
X147141401Y-122211495D01*
X147308495Y-122044401D01*
X147444035Y-121850830D01*
X147543903Y-121636663D01*
X147605063Y-121408408D01*
X147625659Y-121173000D01*
X147605063Y-120937592D01*
X147543903Y-120709337D01*
X147444035Y-120495171D01*
X147438425Y-120487158D01*
X147308494Y-120301597D01*
X147141402Y-120134506D01*
X147141396Y-120134501D01*
X146955842Y-120004575D01*
X146912217Y-119949998D01*
X146905023Y-119880500D01*
X146936546Y-119818145D01*
X146955842Y-119801425D01*
X146978026Y-119785891D01*
X147141401Y-119671495D01*
X147308495Y-119504401D01*
X147444035Y-119310830D01*
X147543903Y-119096663D01*
X147605063Y-118868408D01*
X147625659Y-118633000D01*
X147605063Y-118397592D01*
X147543903Y-118169337D01*
X147444035Y-117955171D01*
X147438425Y-117947158D01*
X147308494Y-117761597D01*
X147141402Y-117594506D01*
X147141396Y-117594501D01*
X146955842Y-117464575D01*
X146912217Y-117409998D01*
X146905023Y-117340500D01*
X146936546Y-117278145D01*
X146955842Y-117261425D01*
X146978026Y-117245891D01*
X147141401Y-117131495D01*
X147308495Y-116964401D01*
X147444035Y-116770830D01*
X147543903Y-116556663D01*
X147605063Y-116328408D01*
X147625659Y-116093000D01*
X147625659Y-116092999D01*
X157374341Y-116092999D01*
X157374341Y-116093000D01*
X157394936Y-116328403D01*
X157394938Y-116328413D01*
X157456094Y-116556655D01*
X157456096Y-116556659D01*
X157456097Y-116556663D01*
X157460000Y-116565032D01*
X157555965Y-116770830D01*
X157555967Y-116770834D01*
X157664281Y-116925521D01*
X157691501Y-116964396D01*
X157691506Y-116964402D01*
X157858597Y-117131493D01*
X157858603Y-117131498D01*
X158044158Y-117261425D01*
X158087783Y-117316002D01*
X158094977Y-117385500D01*
X158063454Y-117447855D01*
X158044158Y-117464575D01*
X157858597Y-117594505D01*
X157691505Y-117761597D01*
X157555965Y-117955169D01*
X157555964Y-117955171D01*
X157456098Y-118169335D01*
X157456094Y-118169344D01*
X157394938Y-118397586D01*
X157394936Y-118397596D01*
X157374341Y-118632999D01*
X157374341Y-118633000D01*
X157394936Y-118868403D01*
X157394938Y-118868413D01*
X157456094Y-119096655D01*
X157456096Y-119096659D01*
X157456097Y-119096663D01*
X157460000Y-119105032D01*
X157555965Y-119310830D01*
X157555967Y-119310834D01*
X157664281Y-119465521D01*
X157691501Y-119504396D01*
X157691506Y-119504402D01*
X157858597Y-119671493D01*
X157858603Y-119671498D01*
X158044158Y-119801425D01*
X158087783Y-119856002D01*
X158094977Y-119925500D01*
X158063454Y-119987855D01*
X158044158Y-120004575D01*
X157858597Y-120134505D01*
X157691505Y-120301597D01*
X157555965Y-120495169D01*
X157555964Y-120495171D01*
X157456098Y-120709335D01*
X157456094Y-120709344D01*
X157394938Y-120937586D01*
X157394936Y-120937596D01*
X157374341Y-121172999D01*
X157374341Y-121173000D01*
X157394936Y-121408403D01*
X157394938Y-121408413D01*
X157456094Y-121636655D01*
X157456096Y-121636659D01*
X157456097Y-121636663D01*
X157460000Y-121645032D01*
X157555965Y-121850830D01*
X157555967Y-121850834D01*
X157664281Y-122005521D01*
X157691501Y-122044396D01*
X157691506Y-122044402D01*
X157858597Y-122211493D01*
X157858603Y-122211498D01*
X158044158Y-122341425D01*
X158087783Y-122396002D01*
X158094977Y-122465500D01*
X158063454Y-122527855D01*
X158044158Y-122544575D01*
X157858597Y-122674505D01*
X157691505Y-122841597D01*
X157555965Y-123035169D01*
X157555964Y-123035171D01*
X157456098Y-123249335D01*
X157456094Y-123249344D01*
X157394938Y-123477586D01*
X157394936Y-123477596D01*
X157374341Y-123712999D01*
X157374341Y-123713000D01*
X157394936Y-123948403D01*
X157394938Y-123948413D01*
X157456094Y-124176655D01*
X157456096Y-124176659D01*
X157456097Y-124176663D01*
X157460000Y-124185032D01*
X157555965Y-124390830D01*
X157555967Y-124390834D01*
X157664281Y-124545521D01*
X157691505Y-124584401D01*
X157858599Y-124751495D01*
X158044594Y-124881730D01*
X158088218Y-124936307D01*
X158095411Y-125005806D01*
X158063889Y-125068160D01*
X158044593Y-125084880D01*
X157968626Y-125138072D01*
X157968625Y-125138072D01*
X158600590Y-125770037D01*
X158537007Y-125787075D01*
X158422993Y-125852901D01*
X158329901Y-125945993D01*
X158264075Y-126060007D01*
X158247037Y-126123589D01*
X157615072Y-125491625D01*
X157556401Y-125575419D01*
X157456570Y-125789507D01*
X157456566Y-125789516D01*
X157395432Y-126017673D01*
X157395430Y-126017684D01*
X157374843Y-126252998D01*
X157374843Y-126253001D01*
X157395430Y-126488315D01*
X157395432Y-126488326D01*
X157456566Y-126716483D01*
X157456570Y-126716492D01*
X157556400Y-126930579D01*
X157556402Y-126930583D01*
X157615072Y-127014373D01*
X157615073Y-127014373D01*
X158247037Y-126382409D01*
X158264075Y-126445993D01*
X158329901Y-126560007D01*
X158422993Y-126653099D01*
X158537007Y-126718925D01*
X158600590Y-126735962D01*
X157968625Y-127367925D01*
X158045031Y-127421425D01*
X158088655Y-127476002D01*
X158095848Y-127545501D01*
X158064326Y-127607855D01*
X158045029Y-127624576D01*
X157968625Y-127678072D01*
X158600590Y-128310037D01*
X158537007Y-128327075D01*
X158422993Y-128392901D01*
X158329901Y-128485993D01*
X158264075Y-128600007D01*
X158247037Y-128663589D01*
X157615072Y-128031625D01*
X157556401Y-128115419D01*
X157456570Y-128329507D01*
X157456566Y-128329516D01*
X157395432Y-128557673D01*
X157395430Y-128557684D01*
X157374843Y-128792998D01*
X157374843Y-128793001D01*
X157395430Y-129028315D01*
X157395432Y-129028326D01*
X157456566Y-129256483D01*
X157456570Y-129256492D01*
X157556400Y-129470579D01*
X157556402Y-129470583D01*
X157615072Y-129554373D01*
X157615073Y-129554373D01*
X158247037Y-128922409D01*
X158264075Y-128985993D01*
X158329901Y-129100007D01*
X158422993Y-129193099D01*
X158537007Y-129258925D01*
X158600590Y-129275962D01*
X157968625Y-129907925D01*
X158045031Y-129961425D01*
X158088655Y-130016002D01*
X158095848Y-130085501D01*
X158064326Y-130147855D01*
X158045029Y-130164576D01*
X157968625Y-130218072D01*
X158600590Y-130850037D01*
X158537007Y-130867075D01*
X158422993Y-130932901D01*
X158329901Y-131025993D01*
X158264075Y-131140007D01*
X158247037Y-131203589D01*
X157615072Y-130571625D01*
X157556401Y-130655419D01*
X157456570Y-130869507D01*
X157456566Y-130869516D01*
X157395432Y-131097673D01*
X157395430Y-131097684D01*
X157374843Y-131332998D01*
X157374843Y-131333001D01*
X157395430Y-131568315D01*
X157395432Y-131568326D01*
X157456566Y-131796483D01*
X157456570Y-131796492D01*
X157556400Y-132010579D01*
X157556402Y-132010583D01*
X157615072Y-132094373D01*
X157615073Y-132094373D01*
X158247037Y-131462409D01*
X158264075Y-131525993D01*
X158329901Y-131640007D01*
X158422993Y-131733099D01*
X158537007Y-131798925D01*
X158600590Y-131815962D01*
X157968625Y-132447925D01*
X158044594Y-132501119D01*
X158088219Y-132555696D01*
X158095413Y-132625194D01*
X158063890Y-132687549D01*
X158044595Y-132704269D01*
X157858594Y-132834508D01*
X157691505Y-133001597D01*
X157555965Y-133195169D01*
X157555964Y-133195171D01*
X157456098Y-133409335D01*
X157456094Y-133409344D01*
X157394938Y-133637586D01*
X157394936Y-133637596D01*
X157374341Y-133872999D01*
X157374341Y-133873000D01*
X157394936Y-134108403D01*
X157394938Y-134108413D01*
X157456094Y-134336655D01*
X157456096Y-134336659D01*
X157456097Y-134336663D01*
X157540499Y-134517663D01*
X157555965Y-134550830D01*
X157555967Y-134550834D01*
X157662670Y-134703220D01*
X157691505Y-134744401D01*
X157858599Y-134911495D01*
X157901675Y-134941657D01*
X158052165Y-135047032D01*
X158052167Y-135047033D01*
X158052170Y-135047035D01*
X158266337Y-135146903D01*
X158494592Y-135208063D01*
X158671034Y-135223500D01*
X158729999Y-135228659D01*
X158730000Y-135228659D01*
X158730001Y-135228659D01*
X158788966Y-135223500D01*
X158965408Y-135208063D01*
X159193663Y-135146903D01*
X159407830Y-135047035D01*
X159601401Y-134911495D01*
X159768495Y-134744401D01*
X159768504Y-134744388D01*
X159769636Y-134743040D01*
X159770293Y-134742602D01*
X159772323Y-134740573D01*
X159772730Y-134740980D01*
X159827805Y-134704334D01*
X159897666Y-134703220D01*
X159957038Y-134740053D01*
X159982335Y-134783733D01*
X159985186Y-134792334D01*
X160077288Y-134941656D01*
X160201344Y-135065712D01*
X160350666Y-135157814D01*
X160517203Y-135212999D01*
X160619991Y-135223500D01*
X161920008Y-135223499D01*
X162022797Y-135212999D01*
X162189334Y-135157814D01*
X162338656Y-135065712D01*
X162462712Y-134941656D01*
X162554814Y-134792334D01*
X162609999Y-134625797D01*
X162620500Y-134523009D01*
X162620499Y-133222992D01*
X162609999Y-133120203D01*
X162554814Y-132953666D01*
X162462712Y-132804344D01*
X162338656Y-132680288D01*
X162189334Y-132588186D01*
X162116966Y-132564205D01*
X162059522Y-132524433D01*
X162032699Y-132459917D01*
X162032585Y-132449137D01*
X161399409Y-131815962D01*
X161462993Y-131798925D01*
X161577007Y-131733099D01*
X161670099Y-131640007D01*
X161735925Y-131525993D01*
X161752962Y-131462410D01*
X162384925Y-132094373D01*
X162384926Y-132094373D01*
X162443598Y-132010582D01*
X162443600Y-132010578D01*
X162543429Y-131796492D01*
X162543433Y-131796483D01*
X162604567Y-131568326D01*
X162604569Y-131568315D01*
X162625157Y-131333001D01*
X162625157Y-131332998D01*
X162604569Y-131097684D01*
X162604567Y-131097673D01*
X162543433Y-130869516D01*
X162543429Y-130869507D01*
X162443600Y-130655423D01*
X162443599Y-130655421D01*
X162384925Y-130571626D01*
X162384925Y-130571625D01*
X161752962Y-131203589D01*
X161735925Y-131140007D01*
X161670099Y-131025993D01*
X161577007Y-130932901D01*
X161462993Y-130867075D01*
X161399410Y-130850037D01*
X162031373Y-130218073D01*
X161954969Y-130164576D01*
X161911344Y-130109999D01*
X161904150Y-130040501D01*
X161935672Y-129978146D01*
X161954968Y-129961425D01*
X162031373Y-129907925D01*
X161399409Y-129275962D01*
X161462993Y-129258925D01*
X161577007Y-129193099D01*
X161670099Y-129100007D01*
X161735925Y-128985993D01*
X161752962Y-128922410D01*
X162384925Y-129554373D01*
X162384926Y-129554373D01*
X162443598Y-129470582D01*
X162443600Y-129470578D01*
X162543429Y-129256492D01*
X162543433Y-129256483D01*
X162604567Y-129028326D01*
X162604569Y-129028315D01*
X162625157Y-128793001D01*
X162625157Y-128792998D01*
X162604569Y-128557684D01*
X162604567Y-128557673D01*
X162543433Y-128329516D01*
X162543429Y-128329507D01*
X162443600Y-128115423D01*
X162443599Y-128115421D01*
X162384925Y-128031626D01*
X162384925Y-128031625D01*
X161752962Y-128663589D01*
X161735925Y-128600007D01*
X161670099Y-128485993D01*
X161577007Y-128392901D01*
X161462993Y-128327075D01*
X161399410Y-128310037D01*
X162031373Y-127678073D01*
X161954969Y-127624576D01*
X161911344Y-127569999D01*
X161904150Y-127500501D01*
X161935672Y-127438146D01*
X161954968Y-127421425D01*
X162031373Y-127367925D01*
X161399409Y-126735962D01*
X161462993Y-126718925D01*
X161577007Y-126653099D01*
X161670099Y-126560007D01*
X161735925Y-126445993D01*
X161752962Y-126382410D01*
X162384925Y-127014373D01*
X162384926Y-127014373D01*
X162443598Y-126930582D01*
X162443600Y-126930578D01*
X162543429Y-126716492D01*
X162543433Y-126716483D01*
X162604567Y-126488326D01*
X162604569Y-126488315D01*
X162625157Y-126253001D01*
X162625157Y-126252998D01*
X162604569Y-126017684D01*
X162604567Y-126017673D01*
X162543433Y-125789516D01*
X162543429Y-125789507D01*
X162443600Y-125575423D01*
X162443599Y-125575421D01*
X162384925Y-125491626D01*
X162384925Y-125491625D01*
X161752962Y-126123589D01*
X161735925Y-126060007D01*
X161670099Y-125945993D01*
X161577007Y-125852901D01*
X161462993Y-125787075D01*
X161399410Y-125770037D01*
X162031373Y-125138073D01*
X162031373Y-125138072D01*
X161955405Y-125084880D01*
X161911780Y-125030304D01*
X161904586Y-124960805D01*
X161936108Y-124898451D01*
X161955399Y-124881734D01*
X162141401Y-124751495D01*
X162308495Y-124584401D01*
X162444035Y-124390830D01*
X162543903Y-124176663D01*
X162605063Y-123948408D01*
X162625659Y-123713000D01*
X162605063Y-123477592D01*
X162543903Y-123249337D01*
X162444035Y-123035171D01*
X162438425Y-123027158D01*
X162308494Y-122841597D01*
X162141402Y-122674506D01*
X162141396Y-122674501D01*
X161955842Y-122544575D01*
X161912217Y-122489998D01*
X161905023Y-122420500D01*
X161936546Y-122358145D01*
X161955842Y-122341425D01*
X161978026Y-122325891D01*
X162141401Y-122211495D01*
X162308495Y-122044401D01*
X162444035Y-121850830D01*
X162543903Y-121636663D01*
X162605063Y-121408408D01*
X162625659Y-121173000D01*
X162605063Y-120937592D01*
X162543903Y-120709337D01*
X162444035Y-120495171D01*
X162438425Y-120487158D01*
X162308494Y-120301597D01*
X162141402Y-120134506D01*
X162141396Y-120134501D01*
X161955842Y-120004575D01*
X161912217Y-119949998D01*
X161905023Y-119880500D01*
X161936546Y-119818145D01*
X161955842Y-119801425D01*
X161978026Y-119785891D01*
X162141401Y-119671495D01*
X162308495Y-119504401D01*
X162444035Y-119310830D01*
X162543903Y-119096663D01*
X162605063Y-118868408D01*
X162625659Y-118633000D01*
X162605063Y-118397592D01*
X162543903Y-118169337D01*
X162444035Y-117955171D01*
X162438425Y-117947158D01*
X162308494Y-117761597D01*
X162141402Y-117594506D01*
X162141396Y-117594501D01*
X161955842Y-117464575D01*
X161912217Y-117409998D01*
X161905023Y-117340500D01*
X161936546Y-117278145D01*
X161955842Y-117261425D01*
X161978026Y-117245891D01*
X162141401Y-117131495D01*
X162308495Y-116964401D01*
X162444035Y-116770830D01*
X162543903Y-116556663D01*
X162605063Y-116328408D01*
X162625659Y-116093000D01*
X162625659Y-116092999D01*
X172374341Y-116092999D01*
X172374341Y-116093000D01*
X172394936Y-116328403D01*
X172394938Y-116328413D01*
X172456094Y-116556655D01*
X172456096Y-116556659D01*
X172456097Y-116556663D01*
X172460000Y-116565032D01*
X172555965Y-116770830D01*
X172555967Y-116770834D01*
X172664281Y-116925521D01*
X172691501Y-116964396D01*
X172691506Y-116964402D01*
X172858597Y-117131493D01*
X172858603Y-117131498D01*
X173044158Y-117261425D01*
X173087783Y-117316002D01*
X173094977Y-117385500D01*
X173063454Y-117447855D01*
X173044158Y-117464575D01*
X172858597Y-117594505D01*
X172691505Y-117761597D01*
X172555965Y-117955169D01*
X172555964Y-117955171D01*
X172456098Y-118169335D01*
X172456094Y-118169344D01*
X172394938Y-118397586D01*
X172394936Y-118397596D01*
X172374341Y-118632999D01*
X172374341Y-118633000D01*
X172394936Y-118868403D01*
X172394938Y-118868413D01*
X172456094Y-119096655D01*
X172456096Y-119096659D01*
X172456097Y-119096663D01*
X172460000Y-119105032D01*
X172555965Y-119310830D01*
X172555967Y-119310834D01*
X172664281Y-119465521D01*
X172691501Y-119504396D01*
X172691506Y-119504402D01*
X172858597Y-119671493D01*
X172858603Y-119671498D01*
X173044158Y-119801425D01*
X173087783Y-119856002D01*
X173094977Y-119925500D01*
X173063454Y-119987855D01*
X173044158Y-120004575D01*
X172858597Y-120134505D01*
X172691505Y-120301597D01*
X172555965Y-120495169D01*
X172555964Y-120495171D01*
X172456098Y-120709335D01*
X172456094Y-120709344D01*
X172394938Y-120937586D01*
X172394936Y-120937596D01*
X172374341Y-121172999D01*
X172374341Y-121173000D01*
X172394936Y-121408403D01*
X172394938Y-121408413D01*
X172456094Y-121636655D01*
X172456096Y-121636659D01*
X172456097Y-121636663D01*
X172460000Y-121645032D01*
X172555965Y-121850830D01*
X172555967Y-121850834D01*
X172664281Y-122005521D01*
X172691501Y-122044396D01*
X172691506Y-122044402D01*
X172858597Y-122211493D01*
X172858603Y-122211498D01*
X173044158Y-122341425D01*
X173087783Y-122396002D01*
X173094977Y-122465500D01*
X173063454Y-122527855D01*
X173044158Y-122544575D01*
X172858597Y-122674505D01*
X172691505Y-122841597D01*
X172555965Y-123035169D01*
X172555964Y-123035171D01*
X172456098Y-123249335D01*
X172456094Y-123249344D01*
X172394938Y-123477586D01*
X172394936Y-123477596D01*
X172374341Y-123712999D01*
X172374341Y-123713000D01*
X172394936Y-123948403D01*
X172394938Y-123948413D01*
X172456094Y-124176655D01*
X172456096Y-124176659D01*
X172456097Y-124176663D01*
X172460000Y-124185032D01*
X172555965Y-124390830D01*
X172555967Y-124390834D01*
X172664281Y-124545521D01*
X172691505Y-124584401D01*
X172858599Y-124751495D01*
X173044594Y-124881730D01*
X173088218Y-124936307D01*
X173095411Y-125005806D01*
X173063889Y-125068160D01*
X173044593Y-125084880D01*
X172968626Y-125138072D01*
X172968625Y-125138072D01*
X173600590Y-125770037D01*
X173537007Y-125787075D01*
X173422993Y-125852901D01*
X173329901Y-125945993D01*
X173264075Y-126060007D01*
X173247037Y-126123589D01*
X172615072Y-125491625D01*
X172556401Y-125575419D01*
X172456570Y-125789507D01*
X172456566Y-125789516D01*
X172395432Y-126017673D01*
X172395430Y-126017684D01*
X172374843Y-126252998D01*
X172374843Y-126253001D01*
X172395430Y-126488315D01*
X172395432Y-126488326D01*
X172456566Y-126716483D01*
X172456570Y-126716492D01*
X172556400Y-126930579D01*
X172556402Y-126930583D01*
X172615072Y-127014373D01*
X172615073Y-127014373D01*
X173247037Y-126382409D01*
X173264075Y-126445993D01*
X173329901Y-126560007D01*
X173422993Y-126653099D01*
X173537007Y-126718925D01*
X173600590Y-126735962D01*
X172968625Y-127367925D01*
X173045031Y-127421425D01*
X173088655Y-127476002D01*
X173095848Y-127545501D01*
X173064326Y-127607855D01*
X173045029Y-127624576D01*
X172968625Y-127678072D01*
X173600590Y-128310037D01*
X173537007Y-128327075D01*
X173422993Y-128392901D01*
X173329901Y-128485993D01*
X173264075Y-128600007D01*
X173247037Y-128663589D01*
X172615072Y-128031625D01*
X172556401Y-128115419D01*
X172456570Y-128329507D01*
X172456566Y-128329516D01*
X172395432Y-128557673D01*
X172395430Y-128557684D01*
X172374843Y-128792998D01*
X172374843Y-128793001D01*
X172395430Y-129028315D01*
X172395432Y-129028326D01*
X172456566Y-129256483D01*
X172456570Y-129256492D01*
X172556400Y-129470579D01*
X172556402Y-129470583D01*
X172615072Y-129554373D01*
X172615073Y-129554373D01*
X173247037Y-128922409D01*
X173264075Y-128985993D01*
X173329901Y-129100007D01*
X173422993Y-129193099D01*
X173537007Y-129258925D01*
X173600590Y-129275962D01*
X172968625Y-129907925D01*
X173045031Y-129961425D01*
X173088655Y-130016002D01*
X173095848Y-130085501D01*
X173064326Y-130147855D01*
X173045029Y-130164576D01*
X172968625Y-130218072D01*
X173600590Y-130850037D01*
X173537007Y-130867075D01*
X173422993Y-130932901D01*
X173329901Y-131025993D01*
X173264075Y-131140007D01*
X173247037Y-131203589D01*
X172615072Y-130571625D01*
X172556401Y-130655419D01*
X172456570Y-130869507D01*
X172456566Y-130869516D01*
X172395432Y-131097673D01*
X172395430Y-131097684D01*
X172374843Y-131332998D01*
X172374843Y-131333001D01*
X172395430Y-131568315D01*
X172395432Y-131568326D01*
X172456566Y-131796483D01*
X172456570Y-131796492D01*
X172556400Y-132010579D01*
X172556402Y-132010583D01*
X172615072Y-132094373D01*
X172615073Y-132094373D01*
X173247037Y-131462409D01*
X173264075Y-131525993D01*
X173329901Y-131640007D01*
X173422993Y-131733099D01*
X173537007Y-131798925D01*
X173600590Y-131815962D01*
X172968625Y-132447925D01*
X173044594Y-132501119D01*
X173088219Y-132555696D01*
X173095413Y-132625194D01*
X173063890Y-132687549D01*
X173044595Y-132704269D01*
X172858594Y-132834508D01*
X172691505Y-133001597D01*
X172555965Y-133195169D01*
X172555964Y-133195171D01*
X172456098Y-133409335D01*
X172456094Y-133409344D01*
X172394938Y-133637586D01*
X172394936Y-133637596D01*
X172374341Y-133872999D01*
X172374341Y-133873000D01*
X172394936Y-134108403D01*
X172394938Y-134108413D01*
X172456094Y-134336655D01*
X172456096Y-134336659D01*
X172456097Y-134336663D01*
X172540499Y-134517663D01*
X172555965Y-134550830D01*
X172555967Y-134550834D01*
X172662670Y-134703220D01*
X172691505Y-134744401D01*
X172858599Y-134911495D01*
X172901675Y-134941657D01*
X173052165Y-135047032D01*
X173052167Y-135047033D01*
X173052170Y-135047035D01*
X173266337Y-135146903D01*
X173494592Y-135208063D01*
X173671034Y-135223500D01*
X173729999Y-135228659D01*
X173730000Y-135228659D01*
X173730001Y-135228659D01*
X173788966Y-135223500D01*
X173965408Y-135208063D01*
X174193663Y-135146903D01*
X174407830Y-135047035D01*
X174601401Y-134911495D01*
X174768495Y-134744401D01*
X174768504Y-134744388D01*
X174769636Y-134743040D01*
X174770293Y-134742602D01*
X174772323Y-134740573D01*
X174772730Y-134740980D01*
X174827805Y-134704334D01*
X174897666Y-134703220D01*
X174957038Y-134740053D01*
X174982335Y-134783733D01*
X174985186Y-134792334D01*
X175077288Y-134941656D01*
X175201344Y-135065712D01*
X175350666Y-135157814D01*
X175517203Y-135212999D01*
X175619991Y-135223500D01*
X176920008Y-135223499D01*
X177022797Y-135212999D01*
X177189334Y-135157814D01*
X177338656Y-135065712D01*
X177462712Y-134941656D01*
X177554814Y-134792334D01*
X177609999Y-134625797D01*
X177620500Y-134523009D01*
X177620499Y-133222992D01*
X177609999Y-133120203D01*
X177554814Y-132953666D01*
X177462712Y-132804344D01*
X177338656Y-132680288D01*
X177189334Y-132588186D01*
X177116966Y-132564205D01*
X177059522Y-132524433D01*
X177032699Y-132459917D01*
X177032585Y-132449137D01*
X176399409Y-131815962D01*
X176462993Y-131798925D01*
X176577007Y-131733099D01*
X176670099Y-131640007D01*
X176735925Y-131525993D01*
X176752962Y-131462410D01*
X177384925Y-132094373D01*
X177384926Y-132094373D01*
X177443598Y-132010582D01*
X177443600Y-132010578D01*
X177543429Y-131796492D01*
X177543433Y-131796483D01*
X177604567Y-131568326D01*
X177604569Y-131568315D01*
X177625157Y-131333001D01*
X177625157Y-131332998D01*
X177604569Y-131097684D01*
X177604567Y-131097673D01*
X177543433Y-130869516D01*
X177543429Y-130869507D01*
X177443600Y-130655423D01*
X177443599Y-130655421D01*
X177384925Y-130571626D01*
X177384925Y-130571625D01*
X176752962Y-131203589D01*
X176735925Y-131140007D01*
X176670099Y-131025993D01*
X176577007Y-130932901D01*
X176462993Y-130867075D01*
X176399410Y-130850037D01*
X177031373Y-130218073D01*
X176954969Y-130164576D01*
X176911344Y-130109999D01*
X176904150Y-130040501D01*
X176935672Y-129978146D01*
X176954968Y-129961425D01*
X177031373Y-129907925D01*
X176399409Y-129275962D01*
X176462993Y-129258925D01*
X176577007Y-129193099D01*
X176670099Y-129100007D01*
X176735925Y-128985993D01*
X176752962Y-128922410D01*
X177384925Y-129554373D01*
X177384926Y-129554373D01*
X177443598Y-129470582D01*
X177443600Y-129470578D01*
X177543429Y-129256492D01*
X177543433Y-129256483D01*
X177604567Y-129028326D01*
X177604569Y-129028315D01*
X177625157Y-128793001D01*
X177625157Y-128792998D01*
X177604569Y-128557684D01*
X177604567Y-128557673D01*
X177543433Y-128329516D01*
X177543429Y-128329507D01*
X177443600Y-128115423D01*
X177443599Y-128115421D01*
X177384925Y-128031626D01*
X177384925Y-128031625D01*
X176752962Y-128663589D01*
X176735925Y-128600007D01*
X176670099Y-128485993D01*
X176577007Y-128392901D01*
X176462993Y-128327075D01*
X176399410Y-128310037D01*
X177031373Y-127678073D01*
X176954969Y-127624576D01*
X176911344Y-127569999D01*
X176904150Y-127500501D01*
X176935672Y-127438146D01*
X176954968Y-127421425D01*
X177031373Y-127367925D01*
X176399409Y-126735962D01*
X176462993Y-126718925D01*
X176577007Y-126653099D01*
X176670099Y-126560007D01*
X176735925Y-126445993D01*
X176752962Y-126382410D01*
X177384925Y-127014373D01*
X177384926Y-127014373D01*
X177443598Y-126930582D01*
X177443600Y-126930578D01*
X177543429Y-126716492D01*
X177543433Y-126716483D01*
X177604567Y-126488326D01*
X177604569Y-126488315D01*
X177625157Y-126253001D01*
X177625157Y-126252998D01*
X177604569Y-126017684D01*
X177604567Y-126017673D01*
X177543433Y-125789516D01*
X177543429Y-125789507D01*
X177443600Y-125575423D01*
X177443599Y-125575421D01*
X177384925Y-125491626D01*
X177384925Y-125491625D01*
X176752962Y-126123589D01*
X176735925Y-126060007D01*
X176670099Y-125945993D01*
X176577007Y-125852901D01*
X176462993Y-125787075D01*
X176399410Y-125770037D01*
X177031373Y-125138073D01*
X177031373Y-125138072D01*
X176955405Y-125084880D01*
X176911780Y-125030304D01*
X176904586Y-124960805D01*
X176936108Y-124898451D01*
X176955399Y-124881734D01*
X177141401Y-124751495D01*
X177308495Y-124584401D01*
X177444035Y-124390830D01*
X177543903Y-124176663D01*
X177605063Y-123948408D01*
X177625659Y-123713000D01*
X177605063Y-123477592D01*
X177543903Y-123249337D01*
X177444035Y-123035171D01*
X177438425Y-123027158D01*
X177308494Y-122841597D01*
X177141402Y-122674506D01*
X177141396Y-122674501D01*
X176955842Y-122544575D01*
X176912217Y-122489998D01*
X176905023Y-122420500D01*
X176936546Y-122358145D01*
X176955842Y-122341425D01*
X176978026Y-122325891D01*
X177141401Y-122211495D01*
X177308495Y-122044401D01*
X177444035Y-121850830D01*
X177543903Y-121636663D01*
X177605063Y-121408408D01*
X177625659Y-121173000D01*
X177605063Y-120937592D01*
X177543903Y-120709337D01*
X177444035Y-120495171D01*
X177438425Y-120487158D01*
X177308494Y-120301597D01*
X177141402Y-120134506D01*
X177141396Y-120134501D01*
X176955842Y-120004575D01*
X176912217Y-119949998D01*
X176905023Y-119880500D01*
X176936546Y-119818145D01*
X176955842Y-119801425D01*
X176978026Y-119785891D01*
X177141401Y-119671495D01*
X177308495Y-119504401D01*
X177444035Y-119310830D01*
X177543903Y-119096663D01*
X177605063Y-118868408D01*
X177625659Y-118633000D01*
X177605063Y-118397592D01*
X177543903Y-118169337D01*
X177444035Y-117955171D01*
X177438425Y-117947158D01*
X177308494Y-117761597D01*
X177141402Y-117594506D01*
X177141396Y-117594501D01*
X176955842Y-117464575D01*
X176912217Y-117409998D01*
X176905023Y-117340500D01*
X176936546Y-117278145D01*
X176955842Y-117261425D01*
X176978026Y-117245891D01*
X177141401Y-117131495D01*
X177308495Y-116964401D01*
X177444035Y-116770830D01*
X177543903Y-116556663D01*
X177605063Y-116328408D01*
X177625659Y-116093000D01*
X177605063Y-115857592D01*
X177543903Y-115629337D01*
X177444035Y-115415171D01*
X177438425Y-115407158D01*
X177308494Y-115221597D01*
X177141402Y-115054506D01*
X177141395Y-115054501D01*
X176947834Y-114918967D01*
X176947830Y-114918965D01*
X176947828Y-114918964D01*
X176733663Y-114819097D01*
X176733659Y-114819096D01*
X176733655Y-114819094D01*
X176505413Y-114757938D01*
X176505403Y-114757936D01*
X176270001Y-114737341D01*
X176269999Y-114737341D01*
X176034596Y-114757936D01*
X176034586Y-114757938D01*
X175806344Y-114819094D01*
X175806335Y-114819098D01*
X175592171Y-114918964D01*
X175592169Y-114918965D01*
X175398597Y-115054505D01*
X175231505Y-115221597D01*
X175101575Y-115407158D01*
X175046998Y-115450783D01*
X174977500Y-115457977D01*
X174915145Y-115426454D01*
X174898425Y-115407158D01*
X174768494Y-115221597D01*
X174601402Y-115054506D01*
X174601395Y-115054501D01*
X174407834Y-114918967D01*
X174407830Y-114918965D01*
X174407828Y-114918964D01*
X174193663Y-114819097D01*
X174193659Y-114819096D01*
X174193655Y-114819094D01*
X173965413Y-114757938D01*
X173965403Y-114757936D01*
X173730001Y-114737341D01*
X173729999Y-114737341D01*
X173494596Y-114757936D01*
X173494586Y-114757938D01*
X173266344Y-114819094D01*
X173266335Y-114819098D01*
X173052171Y-114918964D01*
X173052169Y-114918965D01*
X172858597Y-115054505D01*
X172691505Y-115221597D01*
X172555965Y-115415169D01*
X172555964Y-115415171D01*
X172456098Y-115629335D01*
X172456094Y-115629344D01*
X172394938Y-115857586D01*
X172394936Y-115857596D01*
X172374341Y-116092999D01*
X162625659Y-116092999D01*
X162605063Y-115857592D01*
X162543903Y-115629337D01*
X162444035Y-115415171D01*
X162438425Y-115407158D01*
X162308494Y-115221597D01*
X162141402Y-115054506D01*
X162141395Y-115054501D01*
X161947834Y-114918967D01*
X161947830Y-114918965D01*
X161947828Y-114918964D01*
X161733663Y-114819097D01*
X161733659Y-114819096D01*
X161733655Y-114819094D01*
X161505413Y-114757938D01*
X161505403Y-114757936D01*
X161270001Y-114737341D01*
X161269999Y-114737341D01*
X161034596Y-114757936D01*
X161034586Y-114757938D01*
X160806344Y-114819094D01*
X160806335Y-114819098D01*
X160592171Y-114918964D01*
X160592169Y-114918965D01*
X160398597Y-115054505D01*
X160231505Y-115221597D01*
X160101575Y-115407158D01*
X160046998Y-115450783D01*
X159977500Y-115457977D01*
X159915145Y-115426454D01*
X159898425Y-115407158D01*
X159768494Y-115221597D01*
X159601402Y-115054506D01*
X159601395Y-115054501D01*
X159407834Y-114918967D01*
X159407830Y-114918965D01*
X159407828Y-114918964D01*
X159193663Y-114819097D01*
X159193659Y-114819096D01*
X159193655Y-114819094D01*
X158965413Y-114757938D01*
X158965403Y-114757936D01*
X158730001Y-114737341D01*
X158729999Y-114737341D01*
X158494596Y-114757936D01*
X158494586Y-114757938D01*
X158266344Y-114819094D01*
X158266335Y-114819098D01*
X158052171Y-114918964D01*
X158052169Y-114918965D01*
X157858597Y-115054505D01*
X157691505Y-115221597D01*
X157555965Y-115415169D01*
X157555964Y-115415171D01*
X157456098Y-115629335D01*
X157456094Y-115629344D01*
X157394938Y-115857586D01*
X157394936Y-115857596D01*
X157374341Y-116092999D01*
X147625659Y-116092999D01*
X147605063Y-115857592D01*
X147543903Y-115629337D01*
X147444035Y-115415171D01*
X147438425Y-115407158D01*
X147308494Y-115221597D01*
X147141402Y-115054506D01*
X147141395Y-115054501D01*
X146947834Y-114918967D01*
X146947830Y-114918965D01*
X146947828Y-114918964D01*
X146733663Y-114819097D01*
X146733659Y-114819096D01*
X146733655Y-114819094D01*
X146505413Y-114757938D01*
X146505403Y-114757936D01*
X146270001Y-114737341D01*
X146269999Y-114737341D01*
X146034596Y-114757936D01*
X146034586Y-114757938D01*
X145806344Y-114819094D01*
X145806335Y-114819098D01*
X145592171Y-114918964D01*
X145592169Y-114918965D01*
X145398597Y-115054505D01*
X145231505Y-115221597D01*
X145101575Y-115407158D01*
X145046998Y-115450783D01*
X144977500Y-115457977D01*
X144915145Y-115426454D01*
X144898425Y-115407158D01*
X144768494Y-115221597D01*
X144601402Y-115054506D01*
X144601395Y-115054501D01*
X144407834Y-114918967D01*
X144407830Y-114918965D01*
X144407828Y-114918964D01*
X144193663Y-114819097D01*
X144193659Y-114819096D01*
X144193655Y-114819094D01*
X143965413Y-114757938D01*
X143965403Y-114757936D01*
X143730001Y-114737341D01*
X143729999Y-114737341D01*
X143494596Y-114757936D01*
X143494586Y-114757938D01*
X143266344Y-114819094D01*
X143266335Y-114819098D01*
X143052171Y-114918964D01*
X143052169Y-114918965D01*
X142858597Y-115054505D01*
X142691505Y-115221597D01*
X142555965Y-115415169D01*
X142555964Y-115415171D01*
X142456098Y-115629335D01*
X142456094Y-115629344D01*
X142394938Y-115857586D01*
X142394936Y-115857596D01*
X142374341Y-116092999D01*
X132625659Y-116092999D01*
X132605063Y-115857592D01*
X132543903Y-115629337D01*
X132444035Y-115415171D01*
X132438425Y-115407158D01*
X132308494Y-115221597D01*
X132141402Y-115054506D01*
X132141395Y-115054501D01*
X131947834Y-114918967D01*
X131947830Y-114918965D01*
X131947828Y-114918964D01*
X131733663Y-114819097D01*
X131733659Y-114819096D01*
X131733655Y-114819094D01*
X131505413Y-114757938D01*
X131505403Y-114757936D01*
X131270001Y-114737341D01*
X131269999Y-114737341D01*
X131034596Y-114757936D01*
X131034586Y-114757938D01*
X130806344Y-114819094D01*
X130806335Y-114819098D01*
X130592171Y-114918964D01*
X130592169Y-114918965D01*
X130398597Y-115054505D01*
X130231505Y-115221597D01*
X130101575Y-115407158D01*
X130046998Y-115450783D01*
X129977500Y-115457977D01*
X129915145Y-115426454D01*
X129898425Y-115407158D01*
X129768494Y-115221597D01*
X129601402Y-115054506D01*
X129601395Y-115054501D01*
X129407834Y-114918967D01*
X129407830Y-114918965D01*
X129407828Y-114918964D01*
X129193663Y-114819097D01*
X129193659Y-114819096D01*
X129193655Y-114819094D01*
X128965413Y-114757938D01*
X128965403Y-114757936D01*
X128730001Y-114737341D01*
X128729999Y-114737341D01*
X128494596Y-114757936D01*
X128494586Y-114757938D01*
X128266344Y-114819094D01*
X128266335Y-114819098D01*
X128052171Y-114918964D01*
X128052169Y-114918965D01*
X127858597Y-115054505D01*
X127691505Y-115221597D01*
X127555965Y-115415169D01*
X127555964Y-115415171D01*
X127456098Y-115629335D01*
X127456094Y-115629344D01*
X127394938Y-115857586D01*
X127394936Y-115857596D01*
X127374341Y-116092999D01*
X117625659Y-116092999D01*
X117605063Y-115857592D01*
X117543903Y-115629337D01*
X117444035Y-115415171D01*
X117438425Y-115407158D01*
X117308494Y-115221597D01*
X117141402Y-115054506D01*
X117141395Y-115054501D01*
X116947834Y-114918967D01*
X116947830Y-114918965D01*
X116947828Y-114918964D01*
X116733663Y-114819097D01*
X116733659Y-114819096D01*
X116733655Y-114819094D01*
X116505413Y-114757938D01*
X116505403Y-114757936D01*
X116270001Y-114737341D01*
X116269999Y-114737341D01*
X116034596Y-114757936D01*
X116034586Y-114757938D01*
X115806344Y-114819094D01*
X115806335Y-114819098D01*
X115592171Y-114918964D01*
X115592169Y-114918965D01*
X115398597Y-115054505D01*
X115231505Y-115221597D01*
X115101575Y-115407158D01*
X115046998Y-115450783D01*
X114977500Y-115457977D01*
X114915145Y-115426454D01*
X114898425Y-115407158D01*
X114768494Y-115221597D01*
X114601402Y-115054506D01*
X114601395Y-115054501D01*
X114407834Y-114918967D01*
X114407830Y-114918965D01*
X114407828Y-114918964D01*
X114193663Y-114819097D01*
X114193659Y-114819096D01*
X114193655Y-114819094D01*
X113965413Y-114757938D01*
X113965403Y-114757936D01*
X113730001Y-114737341D01*
X113729999Y-114737341D01*
X113494596Y-114757936D01*
X113494586Y-114757938D01*
X113266344Y-114819094D01*
X113266335Y-114819098D01*
X113052171Y-114918964D01*
X113052169Y-114918965D01*
X112858597Y-115054505D01*
X112691505Y-115221597D01*
X112555965Y-115415169D01*
X112555964Y-115415171D01*
X112456098Y-115629335D01*
X112456094Y-115629344D01*
X112394938Y-115857586D01*
X112394936Y-115857596D01*
X112374341Y-116092999D01*
X100500500Y-116092999D01*
X100500500Y-105002706D01*
X100500559Y-105000000D01*
X100995176Y-105000000D01*
X101014461Y-105392550D01*
X101072129Y-105781308D01*
X101167625Y-106162549D01*
X101300016Y-106532559D01*
X101300023Y-106532575D01*
X101468062Y-106887864D01*
X101670109Y-107224958D01*
X101904228Y-107540632D01*
X102000068Y-107646376D01*
X102000069Y-107646376D01*
X103313098Y-106333347D01*
X103380076Y-106420635D01*
X103579365Y-106619924D01*
X103666651Y-106686900D01*
X102353622Y-107999929D01*
X102353622Y-107999930D01*
X102459367Y-108095771D01*
X102775041Y-108329890D01*
X103112135Y-108531937D01*
X103467424Y-108699976D01*
X103467440Y-108699983D01*
X103837450Y-108832374D01*
X104218691Y-108927870D01*
X104607449Y-108985538D01*
X105000000Y-109004823D01*
X105392550Y-108985538D01*
X105781308Y-108927870D01*
X106162549Y-108832374D01*
X106532559Y-108699983D01*
X106532575Y-108699976D01*
X106887864Y-108531937D01*
X107224958Y-108329890D01*
X107540632Y-108095770D01*
X107646376Y-107999929D01*
X106333348Y-106686901D01*
X106420635Y-106619924D01*
X106619924Y-106420635D01*
X106686901Y-106333348D01*
X107999929Y-107646376D01*
X108095770Y-107540632D01*
X108329890Y-107224958D01*
X108531937Y-106887864D01*
X108699976Y-106532575D01*
X108699983Y-106532559D01*
X108828995Y-106171993D01*
X118594700Y-106171993D01*
X118594700Y-106172006D01*
X118613864Y-106403297D01*
X118613866Y-106403308D01*
X118670842Y-106628300D01*
X118764075Y-106840848D01*
X118891016Y-107035147D01*
X118891019Y-107035151D01*
X118891021Y-107035153D01*
X119048216Y-107205913D01*
X119048219Y-107205915D01*
X119048222Y-107205918D01*
X119231365Y-107348464D01*
X119231371Y-107348468D01*
X119231374Y-107348470D01*
X119435497Y-107458936D01*
X119489479Y-107477468D01*
X119655015Y-107534297D01*
X119655017Y-107534297D01*
X119655019Y-107534298D01*
X119883951Y-107572500D01*
X119883952Y-107572500D01*
X120116048Y-107572500D01*
X120116049Y-107572500D01*
X120344981Y-107534298D01*
X120564503Y-107458936D01*
X120768626Y-107348470D01*
X120951784Y-107205913D01*
X121108979Y-107035153D01*
X121235924Y-106840849D01*
X121329157Y-106628300D01*
X121386134Y-106403305D01*
X121386516Y-106398697D01*
X121405300Y-106172006D01*
X121405300Y-106171993D01*
X121386135Y-105940702D01*
X121386133Y-105940691D01*
X121329157Y-105715699D01*
X121235924Y-105503151D01*
X121108983Y-105308852D01*
X121108980Y-105308849D01*
X121108979Y-105308847D01*
X121014195Y-105205884D01*
X120983275Y-105143232D01*
X120991135Y-105073806D01*
X121035283Y-105019651D01*
X121062095Y-105005722D01*
X121142326Y-104975798D01*
X121142326Y-104975797D01*
X121142331Y-104975796D01*
X121257546Y-104889546D01*
X121343796Y-104774331D01*
X121394091Y-104639483D01*
X121400500Y-104579873D01*
X121400499Y-103602998D01*
X123916532Y-103602998D01*
X123916532Y-103603001D01*
X123936364Y-103829686D01*
X123936366Y-103829697D01*
X123995258Y-104049488D01*
X123995261Y-104049497D01*
X124091431Y-104255732D01*
X124091432Y-104255734D01*
X124221954Y-104442141D01*
X124382858Y-104603045D01*
X124382861Y-104603047D01*
X124569266Y-104733568D01*
X124627865Y-104760893D01*
X124680305Y-104807065D01*
X124699457Y-104874258D01*
X124679242Y-104941139D01*
X124627867Y-104985657D01*
X124569515Y-105012867D01*
X124383179Y-105143342D01*
X124222342Y-105304179D01*
X124091865Y-105490517D01*
X123995734Y-105696673D01*
X123995730Y-105696682D01*
X123943127Y-105892999D01*
X123943128Y-105893000D01*
X124906314Y-105893000D01*
X124901920Y-105897394D01*
X124849259Y-105988606D01*
X124822000Y-106090339D01*
X124822000Y-106195661D01*
X124849259Y-106297394D01*
X124901920Y-106388606D01*
X124906314Y-106393000D01*
X123943128Y-106393000D01*
X123995730Y-106589317D01*
X123995734Y-106589326D01*
X124091865Y-106795482D01*
X124222342Y-106981820D01*
X124383179Y-107142657D01*
X124569517Y-107273134D01*
X124775673Y-107369265D01*
X124775682Y-107369269D01*
X124971999Y-107421872D01*
X124972000Y-107421871D01*
X124972000Y-106458686D01*
X124976394Y-106463080D01*
X125067606Y-106515741D01*
X125169339Y-106543000D01*
X125274661Y-106543000D01*
X125376394Y-106515741D01*
X125467606Y-106463080D01*
X125472000Y-106458686D01*
X125472000Y-107421872D01*
X125668317Y-107369269D01*
X125668326Y-107369265D01*
X125874482Y-107273134D01*
X126060820Y-107142657D01*
X126221657Y-106981820D01*
X126352134Y-106795482D01*
X126448265Y-106589326D01*
X126448269Y-106589317D01*
X126500872Y-106393000D01*
X125537686Y-106393000D01*
X125542080Y-106388606D01*
X125594741Y-106297394D01*
X125622000Y-106195661D01*
X125622000Y-106171993D01*
X133594700Y-106171993D01*
X133594700Y-106172006D01*
X133613864Y-106403297D01*
X133613866Y-106403308D01*
X133670842Y-106628300D01*
X133764075Y-106840848D01*
X133891016Y-107035147D01*
X133891019Y-107035151D01*
X133891021Y-107035153D01*
X134048216Y-107205913D01*
X134048219Y-107205915D01*
X134048222Y-107205918D01*
X134231365Y-107348464D01*
X134231371Y-107348468D01*
X134231374Y-107348470D01*
X134435497Y-107458936D01*
X134489479Y-107477468D01*
X134655015Y-107534297D01*
X134655017Y-107534297D01*
X134655019Y-107534298D01*
X134883951Y-107572500D01*
X134883952Y-107572500D01*
X135116048Y-107572500D01*
X135116049Y-107572500D01*
X135344981Y-107534298D01*
X135564503Y-107458936D01*
X135768626Y-107348470D01*
X135951784Y-107205913D01*
X136108979Y-107035153D01*
X136235924Y-106840849D01*
X136329157Y-106628300D01*
X136386134Y-106403305D01*
X136386516Y-106398697D01*
X136405300Y-106172006D01*
X136405300Y-106171993D01*
X136386135Y-105940702D01*
X136386133Y-105940691D01*
X136329157Y-105715699D01*
X136235924Y-105503151D01*
X136108983Y-105308852D01*
X136108980Y-105308849D01*
X136108979Y-105308847D01*
X136014195Y-105205884D01*
X135983275Y-105143232D01*
X135991135Y-105073806D01*
X136035283Y-105019651D01*
X136062095Y-105005722D01*
X136142326Y-104975798D01*
X136142326Y-104975797D01*
X136142331Y-104975796D01*
X136257546Y-104889546D01*
X136343796Y-104774331D01*
X136394091Y-104639483D01*
X136400500Y-104579873D01*
X136400499Y-103631998D01*
X138902532Y-103631998D01*
X138902532Y-103632001D01*
X138922364Y-103858686D01*
X138922366Y-103858697D01*
X138981258Y-104078488D01*
X138981261Y-104078497D01*
X139077431Y-104284732D01*
X139077432Y-104284734D01*
X139207954Y-104471141D01*
X139368858Y-104632045D01*
X139415693Y-104664839D01*
X139555266Y-104762568D01*
X139613865Y-104789893D01*
X139666305Y-104836065D01*
X139685457Y-104903258D01*
X139665242Y-104970139D01*
X139613867Y-105014657D01*
X139555515Y-105041867D01*
X139369179Y-105172342D01*
X139208342Y-105333179D01*
X139077865Y-105519517D01*
X138981734Y-105725673D01*
X138981730Y-105725682D01*
X138929127Y-105921999D01*
X138929128Y-105922000D01*
X139892314Y-105922000D01*
X139887920Y-105926394D01*
X139835259Y-106017606D01*
X139808000Y-106119339D01*
X139808000Y-106224661D01*
X139835259Y-106326394D01*
X139887920Y-106417606D01*
X139892314Y-106422000D01*
X138929128Y-106422000D01*
X138981730Y-106618317D01*
X138981734Y-106618326D01*
X139077865Y-106824482D01*
X139208342Y-107010820D01*
X139369179Y-107171657D01*
X139555517Y-107302134D01*
X139761673Y-107398265D01*
X139761682Y-107398269D01*
X139957999Y-107450872D01*
X139958000Y-107450871D01*
X139958000Y-106487686D01*
X139962394Y-106492080D01*
X140053606Y-106544741D01*
X140155339Y-106572000D01*
X140260661Y-106572000D01*
X140362394Y-106544741D01*
X140453606Y-106492080D01*
X140458000Y-106487686D01*
X140458000Y-107450872D01*
X140654317Y-107398269D01*
X140654326Y-107398265D01*
X140860482Y-107302134D01*
X141046820Y-107171657D01*
X141207657Y-107010820D01*
X141338134Y-106824482D01*
X141434265Y-106618326D01*
X141434269Y-106618317D01*
X141486872Y-106422000D01*
X140523686Y-106422000D01*
X140528080Y-106417606D01*
X140580741Y-106326394D01*
X140608000Y-106224661D01*
X140608000Y-106171993D01*
X148594700Y-106171993D01*
X148594700Y-106172006D01*
X148613864Y-106403297D01*
X148613866Y-106403308D01*
X148670842Y-106628300D01*
X148764075Y-106840848D01*
X148891016Y-107035147D01*
X148891019Y-107035151D01*
X148891021Y-107035153D01*
X149048216Y-107205913D01*
X149048219Y-107205915D01*
X149048222Y-107205918D01*
X149231365Y-107348464D01*
X149231371Y-107348468D01*
X149231374Y-107348470D01*
X149435497Y-107458936D01*
X149489479Y-107477468D01*
X149655015Y-107534297D01*
X149655017Y-107534297D01*
X149655019Y-107534298D01*
X149883951Y-107572500D01*
X149883952Y-107572500D01*
X150116048Y-107572500D01*
X150116049Y-107572500D01*
X150344981Y-107534298D01*
X150564503Y-107458936D01*
X150768626Y-107348470D01*
X150951784Y-107205913D01*
X151108979Y-107035153D01*
X151235924Y-106840849D01*
X151329157Y-106628300D01*
X151386134Y-106403305D01*
X151386516Y-106398697D01*
X151405300Y-106172006D01*
X151405300Y-106171998D01*
X153902532Y-106171998D01*
X153902532Y-106172001D01*
X153922364Y-106398686D01*
X153922366Y-106398697D01*
X153981258Y-106618488D01*
X153981261Y-106618497D01*
X154077431Y-106824732D01*
X154077432Y-106824734D01*
X154207954Y-107011141D01*
X154368858Y-107172045D01*
X154368861Y-107172047D01*
X154555266Y-107302568D01*
X154761504Y-107398739D01*
X154981308Y-107457635D01*
X155143230Y-107471801D01*
X155207998Y-107477468D01*
X155208000Y-107477468D01*
X155208002Y-107477468D01*
X155264673Y-107472509D01*
X155434692Y-107457635D01*
X155654496Y-107398739D01*
X155860734Y-107302568D01*
X156047139Y-107172047D01*
X156208047Y-107011139D01*
X156338568Y-106824734D01*
X156434739Y-106618496D01*
X156493635Y-106398692D01*
X156511398Y-106195661D01*
X156513468Y-106172001D01*
X156513468Y-106171998D01*
X156497423Y-105988606D01*
X156493635Y-105945308D01*
X156434739Y-105725504D01*
X156338568Y-105519266D01*
X156208047Y-105332861D01*
X156208045Y-105332858D01*
X156047141Y-105171954D01*
X155860735Y-105041433D01*
X155860736Y-105041433D01*
X155860734Y-105041432D01*
X155802132Y-105014105D01*
X155786113Y-105000000D01*
X180995176Y-105000000D01*
X181014461Y-105392550D01*
X181072129Y-105781308D01*
X181167625Y-106162549D01*
X181300016Y-106532559D01*
X181300023Y-106532575D01*
X181468062Y-106887864D01*
X181670109Y-107224958D01*
X181904228Y-107540632D01*
X182000068Y-107646376D01*
X182000069Y-107646376D01*
X183313098Y-106333347D01*
X183380076Y-106420635D01*
X183579365Y-106619924D01*
X183666651Y-106686900D01*
X182353622Y-107999929D01*
X182353622Y-107999930D01*
X182459367Y-108095771D01*
X182775041Y-108329890D01*
X183112135Y-108531937D01*
X183467424Y-108699976D01*
X183467440Y-108699983D01*
X183837450Y-108832374D01*
X184218691Y-108927870D01*
X184607449Y-108985538D01*
X185000000Y-109004823D01*
X185392550Y-108985538D01*
X185781308Y-108927870D01*
X186162549Y-108832374D01*
X186532559Y-108699983D01*
X186532575Y-108699976D01*
X186887864Y-108531937D01*
X187224958Y-108329890D01*
X187540632Y-108095770D01*
X187646376Y-107999929D01*
X186333348Y-106686901D01*
X186420635Y-106619924D01*
X186619924Y-106420635D01*
X186686901Y-106333348D01*
X187999929Y-107646376D01*
X188095770Y-107540632D01*
X188329890Y-107224958D01*
X188531937Y-106887864D01*
X188699976Y-106532575D01*
X188699983Y-106532559D01*
X188832374Y-106162549D01*
X188927870Y-105781308D01*
X188985538Y-105392550D01*
X189004823Y-105000000D01*
X188985538Y-104607449D01*
X188927870Y-104218691D01*
X188832374Y-103837450D01*
X188699983Y-103467440D01*
X188699976Y-103467424D01*
X188531937Y-103112135D01*
X188329890Y-102775041D01*
X188095771Y-102459367D01*
X187999930Y-102353622D01*
X187999929Y-102353622D01*
X186686900Y-103666650D01*
X186619924Y-103579365D01*
X186420635Y-103380076D01*
X186333348Y-103313098D01*
X187646376Y-102000069D01*
X187646376Y-102000068D01*
X187540632Y-101904228D01*
X187224958Y-101670109D01*
X186887864Y-101468062D01*
X186532575Y-101300023D01*
X186532559Y-101300016D01*
X186162549Y-101167625D01*
X185781308Y-101072129D01*
X185392550Y-101014461D01*
X185000000Y-100995176D01*
X184607449Y-101014461D01*
X184218691Y-101072129D01*
X183837450Y-101167625D01*
X183467440Y-101300016D01*
X183467424Y-101300023D01*
X183112135Y-101468062D01*
X182775041Y-101670109D01*
X182459368Y-101904228D01*
X182353622Y-102000069D01*
X183666651Y-103313098D01*
X183579365Y-103380076D01*
X183380076Y-103579365D01*
X183313098Y-103666651D01*
X182000069Y-102353622D01*
X181904228Y-102459368D01*
X181670109Y-102775041D01*
X181468062Y-103112135D01*
X181300023Y-103467424D01*
X181300016Y-103467440D01*
X181167625Y-103837450D01*
X181072129Y-104218691D01*
X181014461Y-104607449D01*
X180995176Y-105000000D01*
X155786113Y-105000000D01*
X155749694Y-104967933D01*
X155730543Y-104900739D01*
X155750759Y-104833858D01*
X155802135Y-104789341D01*
X155860482Y-104762133D01*
X155933471Y-104711024D01*
X155254447Y-104032000D01*
X155260661Y-104032000D01*
X155362394Y-104004741D01*
X155453606Y-103952080D01*
X155528080Y-103877606D01*
X155580741Y-103786394D01*
X155608000Y-103684661D01*
X155608000Y-103678447D01*
X156287024Y-104357471D01*
X156338136Y-104284478D01*
X156434264Y-104078331D01*
X156434269Y-104078317D01*
X156493139Y-103858610D01*
X156493141Y-103858599D01*
X156512966Y-103632002D01*
X156512966Y-103631997D01*
X156493141Y-103405400D01*
X156493139Y-103405389D01*
X156434269Y-103185682D01*
X156434264Y-103185668D01*
X156338136Y-102979521D01*
X156338132Y-102979513D01*
X156287025Y-102906526D01*
X155608000Y-103585551D01*
X155608000Y-103579339D01*
X155580741Y-103477606D01*
X155528080Y-103386394D01*
X155453606Y-103311920D01*
X155362394Y-103259259D01*
X155260661Y-103232000D01*
X155254448Y-103232000D01*
X155933472Y-102552974D01*
X155860478Y-102501863D01*
X155654331Y-102405735D01*
X155654317Y-102405730D01*
X155434610Y-102346860D01*
X155434599Y-102346858D01*
X155208002Y-102327034D01*
X155207998Y-102327034D01*
X154981400Y-102346858D01*
X154981389Y-102346860D01*
X154761682Y-102405730D01*
X154761673Y-102405734D01*
X154555516Y-102501866D01*
X154555512Y-102501868D01*
X154482526Y-102552973D01*
X154482526Y-102552974D01*
X155161553Y-103232000D01*
X155155339Y-103232000D01*
X155053606Y-103259259D01*
X154962394Y-103311920D01*
X154887920Y-103386394D01*
X154835259Y-103477606D01*
X154808000Y-103579339D01*
X154808000Y-103585552D01*
X154128974Y-102906526D01*
X154128973Y-102906526D01*
X154077868Y-102979512D01*
X154077866Y-102979516D01*
X153981734Y-103185673D01*
X153981730Y-103185682D01*
X153922860Y-103405389D01*
X153922858Y-103405400D01*
X153903034Y-103631997D01*
X153903034Y-103632002D01*
X153922858Y-103858599D01*
X153922860Y-103858610D01*
X153981730Y-104078317D01*
X153981735Y-104078331D01*
X154077863Y-104284478D01*
X154128974Y-104357472D01*
X154808000Y-103678446D01*
X154808000Y-103684661D01*
X154835259Y-103786394D01*
X154887920Y-103877606D01*
X154962394Y-103952080D01*
X155053606Y-104004741D01*
X155155339Y-104032000D01*
X155161553Y-104032000D01*
X154482526Y-104711025D01*
X154555513Y-104762132D01*
X154555521Y-104762136D01*
X154613864Y-104789342D01*
X154666304Y-104835514D01*
X154685456Y-104902707D01*
X154665241Y-104969589D01*
X154613866Y-105014105D01*
X154555272Y-105041428D01*
X154555265Y-105041432D01*
X154368858Y-105171954D01*
X154207954Y-105332858D01*
X154077432Y-105519265D01*
X154077431Y-105519267D01*
X153981261Y-105725502D01*
X153981258Y-105725511D01*
X153922366Y-105945302D01*
X153922364Y-105945313D01*
X153902532Y-106171998D01*
X151405300Y-106171998D01*
X151405300Y-106171993D01*
X151386135Y-105940702D01*
X151386133Y-105940691D01*
X151329157Y-105715699D01*
X151235924Y-105503151D01*
X151108983Y-105308852D01*
X151108980Y-105308849D01*
X151108979Y-105308847D01*
X151014195Y-105205884D01*
X150983275Y-105143232D01*
X150991135Y-105073806D01*
X151035283Y-105019651D01*
X151062095Y-105005722D01*
X151142326Y-104975798D01*
X151142326Y-104975797D01*
X151142331Y-104975796D01*
X151257546Y-104889546D01*
X151343796Y-104774331D01*
X151394091Y-104639483D01*
X151400500Y-104579873D01*
X151400499Y-102684128D01*
X151394091Y-102624517D01*
X151386048Y-102602953D01*
X151343797Y-102489671D01*
X151343793Y-102489664D01*
X151257547Y-102374455D01*
X151257544Y-102374452D01*
X151142335Y-102288206D01*
X151142328Y-102288202D01*
X151007482Y-102237908D01*
X151007483Y-102237908D01*
X150947883Y-102231501D01*
X150947881Y-102231500D01*
X150947873Y-102231500D01*
X150947864Y-102231500D01*
X149052129Y-102231500D01*
X149052123Y-102231501D01*
X148992516Y-102237908D01*
X148857671Y-102288202D01*
X148857664Y-102288206D01*
X148742455Y-102374452D01*
X148742452Y-102374455D01*
X148656206Y-102489664D01*
X148656202Y-102489671D01*
X148605908Y-102624517D01*
X148605109Y-102631954D01*
X148599501Y-102684123D01*
X148599500Y-102684135D01*
X148599500Y-104579870D01*
X148599501Y-104579876D01*
X148605908Y-104639483D01*
X148656202Y-104774328D01*
X148656206Y-104774335D01*
X148742452Y-104889544D01*
X148742455Y-104889547D01*
X148857664Y-104975793D01*
X148857673Y-104975798D01*
X148937904Y-105005722D01*
X148993838Y-105047593D01*
X149018256Y-105113057D01*
X149003405Y-105181330D01*
X148985802Y-105205886D01*
X148891019Y-105308849D01*
X148764075Y-105503151D01*
X148670842Y-105715699D01*
X148613866Y-105940691D01*
X148613864Y-105940702D01*
X148594700Y-106171993D01*
X140608000Y-106171993D01*
X140608000Y-106119339D01*
X140580741Y-106017606D01*
X140528080Y-105926394D01*
X140523686Y-105922000D01*
X141486872Y-105922000D01*
X141486872Y-105921999D01*
X141434269Y-105725682D01*
X141434265Y-105725673D01*
X141338134Y-105519517D01*
X141207657Y-105333179D01*
X141046820Y-105172342D01*
X140860482Y-105041865D01*
X140802133Y-105014657D01*
X140749694Y-104968484D01*
X140730542Y-104901291D01*
X140750758Y-104834410D01*
X140802129Y-104789895D01*
X140860734Y-104762568D01*
X141047139Y-104632047D01*
X141208047Y-104471139D01*
X141338568Y-104284734D01*
X141434739Y-104078496D01*
X141493635Y-103858692D01*
X141513468Y-103632000D01*
X141493635Y-103405308D01*
X141434739Y-103185504D01*
X141338568Y-102979266D01*
X141208047Y-102792861D01*
X141208045Y-102792858D01*
X141047141Y-102631954D01*
X140860734Y-102501432D01*
X140860732Y-102501431D01*
X140654497Y-102405261D01*
X140654488Y-102405258D01*
X140434697Y-102346366D01*
X140434693Y-102346365D01*
X140434692Y-102346365D01*
X140434691Y-102346364D01*
X140434686Y-102346364D01*
X140208002Y-102326532D01*
X140207998Y-102326532D01*
X139981313Y-102346364D01*
X139981302Y-102346366D01*
X139761511Y-102405258D01*
X139761502Y-102405261D01*
X139555267Y-102501431D01*
X139555265Y-102501432D01*
X139368858Y-102631954D01*
X139207954Y-102792858D01*
X139077432Y-102979265D01*
X139077431Y-102979267D01*
X138981261Y-103185502D01*
X138981258Y-103185511D01*
X138922366Y-103405302D01*
X138922364Y-103405313D01*
X138902532Y-103631998D01*
X136400499Y-103631998D01*
X136400499Y-102684128D01*
X136394091Y-102624517D01*
X136386048Y-102602953D01*
X136343797Y-102489671D01*
X136343793Y-102489664D01*
X136257547Y-102374455D01*
X136257544Y-102374452D01*
X136142335Y-102288206D01*
X136142328Y-102288202D01*
X136007482Y-102237908D01*
X136007483Y-102237908D01*
X135947883Y-102231501D01*
X135947881Y-102231500D01*
X135947873Y-102231500D01*
X135947864Y-102231500D01*
X134052129Y-102231500D01*
X134052123Y-102231501D01*
X133992516Y-102237908D01*
X133857671Y-102288202D01*
X133857664Y-102288206D01*
X133742455Y-102374452D01*
X133742452Y-102374455D01*
X133656206Y-102489664D01*
X133656202Y-102489671D01*
X133605908Y-102624517D01*
X133605109Y-102631954D01*
X133599501Y-102684123D01*
X133599500Y-102684135D01*
X133599500Y-104579870D01*
X133599501Y-104579876D01*
X133605908Y-104639483D01*
X133656202Y-104774328D01*
X133656206Y-104774335D01*
X133742452Y-104889544D01*
X133742455Y-104889547D01*
X133857664Y-104975793D01*
X133857673Y-104975798D01*
X133937904Y-105005722D01*
X133993838Y-105047593D01*
X134018256Y-105113057D01*
X134003405Y-105181330D01*
X133985802Y-105205886D01*
X133891019Y-105308849D01*
X133764075Y-105503151D01*
X133670842Y-105715699D01*
X133613866Y-105940691D01*
X133613864Y-105940702D01*
X133594700Y-106171993D01*
X125622000Y-106171993D01*
X125622000Y-106090339D01*
X125594741Y-105988606D01*
X125542080Y-105897394D01*
X125537686Y-105893000D01*
X126500872Y-105893000D01*
X126500872Y-105892999D01*
X126448269Y-105696682D01*
X126448265Y-105696673D01*
X126352134Y-105490517D01*
X126221657Y-105304179D01*
X126060820Y-105143342D01*
X125874482Y-105012865D01*
X125816133Y-104985657D01*
X125763694Y-104939484D01*
X125744542Y-104872291D01*
X125764758Y-104805410D01*
X125816129Y-104760895D01*
X125874734Y-104733568D01*
X126061139Y-104603047D01*
X126222047Y-104442139D01*
X126352568Y-104255734D01*
X126448739Y-104049496D01*
X126507635Y-103829692D01*
X126527468Y-103603000D01*
X126507635Y-103376308D01*
X126456511Y-103185511D01*
X126448741Y-103156511D01*
X126448738Y-103156502D01*
X126428049Y-103112135D01*
X126352568Y-102950266D01*
X126222047Y-102763861D01*
X126222045Y-102763858D01*
X126061141Y-102602954D01*
X125874734Y-102472432D01*
X125874732Y-102472431D01*
X125668497Y-102376261D01*
X125668488Y-102376258D01*
X125448697Y-102317366D01*
X125448693Y-102317365D01*
X125448692Y-102317365D01*
X125448691Y-102317364D01*
X125448686Y-102317364D01*
X125222002Y-102297532D01*
X125221998Y-102297532D01*
X124995313Y-102317364D01*
X124995302Y-102317366D01*
X124775511Y-102376258D01*
X124775502Y-102376261D01*
X124569267Y-102472431D01*
X124569265Y-102472432D01*
X124382858Y-102602954D01*
X124221954Y-102763858D01*
X124091432Y-102950265D01*
X124091431Y-102950267D01*
X123995261Y-103156502D01*
X123995258Y-103156511D01*
X123936366Y-103376302D01*
X123936364Y-103376313D01*
X123916532Y-103602998D01*
X121400499Y-103602998D01*
X121400499Y-102684128D01*
X121394091Y-102624517D01*
X121386048Y-102602953D01*
X121343797Y-102489671D01*
X121343793Y-102489664D01*
X121257547Y-102374455D01*
X121257544Y-102374452D01*
X121142335Y-102288206D01*
X121142328Y-102288202D01*
X121007482Y-102237908D01*
X121007483Y-102237908D01*
X120947883Y-102231501D01*
X120947881Y-102231500D01*
X120947873Y-102231500D01*
X120947864Y-102231500D01*
X119052129Y-102231500D01*
X119052123Y-102231501D01*
X118992516Y-102237908D01*
X118857671Y-102288202D01*
X118857664Y-102288206D01*
X118742455Y-102374452D01*
X118742452Y-102374455D01*
X118656206Y-102489664D01*
X118656202Y-102489671D01*
X118605908Y-102624517D01*
X118605109Y-102631954D01*
X118599501Y-102684123D01*
X118599500Y-102684135D01*
X118599500Y-104579870D01*
X118599501Y-104579876D01*
X118605908Y-104639483D01*
X118656202Y-104774328D01*
X118656206Y-104774335D01*
X118742452Y-104889544D01*
X118742455Y-104889547D01*
X118857664Y-104975793D01*
X118857673Y-104975798D01*
X118937904Y-105005722D01*
X118993838Y-105047593D01*
X119018256Y-105113057D01*
X119003405Y-105181330D01*
X118985802Y-105205886D01*
X118891019Y-105308849D01*
X118764075Y-105503151D01*
X118670842Y-105715699D01*
X118613866Y-105940691D01*
X118613864Y-105940702D01*
X118594700Y-106171993D01*
X108828995Y-106171993D01*
X108832374Y-106162549D01*
X108927870Y-105781308D01*
X108985538Y-105392550D01*
X109004823Y-105000000D01*
X108985538Y-104607449D01*
X108927870Y-104218691D01*
X108832374Y-103837450D01*
X108699983Y-103467440D01*
X108699976Y-103467424D01*
X108531937Y-103112135D01*
X108329890Y-102775041D01*
X108095771Y-102459367D01*
X107999930Y-102353622D01*
X107999929Y-102353622D01*
X106686900Y-103666650D01*
X106619924Y-103579365D01*
X106420635Y-103380076D01*
X106333348Y-103313098D01*
X107646376Y-102000069D01*
X107646376Y-102000068D01*
X107540632Y-101904228D01*
X107224958Y-101670109D01*
X106887864Y-101468062D01*
X106532575Y-101300023D01*
X106532559Y-101300016D01*
X106162549Y-101167625D01*
X105781308Y-101072129D01*
X105392550Y-101014461D01*
X105000000Y-100995176D01*
X104607449Y-101014461D01*
X104218691Y-101072129D01*
X103837450Y-101167625D01*
X103467440Y-101300016D01*
X103467424Y-101300023D01*
X103112135Y-101468062D01*
X102775041Y-101670109D01*
X102459368Y-101904228D01*
X102353622Y-102000069D01*
X103666651Y-103313098D01*
X103579365Y-103380076D01*
X103380076Y-103579365D01*
X103313098Y-103666651D01*
X102000069Y-102353622D01*
X101904228Y-102459368D01*
X101670109Y-102775041D01*
X101468062Y-103112135D01*
X101300023Y-103467424D01*
X101300016Y-103467440D01*
X101167625Y-103837450D01*
X101072129Y-104218691D01*
X101014461Y-104607449D01*
X100995176Y-105000000D01*
X100500559Y-105000000D01*
X100500618Y-104997297D01*
X100504748Y-104902707D01*
X100517386Y-104613226D01*
X100518326Y-104602495D01*
X100568152Y-104224025D01*
X100570025Y-104213405D01*
X100652649Y-103840709D01*
X100655440Y-103830295D01*
X100770230Y-103466227D01*
X100773917Y-103456095D01*
X100920003Y-103103412D01*
X100924561Y-103093638D01*
X101100822Y-102755045D01*
X101106217Y-102745700D01*
X101311325Y-102423744D01*
X101317515Y-102414905D01*
X101549896Y-102112060D01*
X101556834Y-102103791D01*
X101814726Y-101822352D01*
X101822352Y-101814726D01*
X102103791Y-101556834D01*
X102112060Y-101549896D01*
X102414905Y-101317515D01*
X102423744Y-101311325D01*
X102745700Y-101106217D01*
X102755045Y-101100822D01*
X103093638Y-100924561D01*
X103103412Y-100920003D01*
X103456095Y-100773917D01*
X103466227Y-100770230D01*
X103830295Y-100655440D01*
X103840709Y-100652649D01*
X104213405Y-100570025D01*
X104224025Y-100568152D01*
X104602495Y-100518326D01*
X104613226Y-100517386D01*
X104997297Y-100500617D01*
X105002706Y-100500500D01*
X105065892Y-100500500D01*
X184934108Y-100500500D01*
X184997294Y-100500500D01*
X185002702Y-100500617D01*
G37*
%TD.AperFunction*%
%TD*%
M02*
