%TF.GenerationSoftware,KiCad,Pcbnew,8.0.2*%
%TF.CreationDate,2024-05-02T10:02:13-07:00*%
%TF.ProjectId,busboard-1,62757362-6f61-4726-942d-312e6b696361,rev?*%
%TF.SameCoordinates,Original*%
%TF.FileFunction,Soldermask,Top*%
%TF.FilePolarity,Negative*%
%FSLAX46Y46*%
G04 Gerber Fmt 4.6, Leading zero omitted, Abs format (unit mm)*
G04 Created by KiCad (PCBNEW 8.0.2) date 2024-05-02 10:02:13*
%MOMM*%
%LPD*%
G01*
G04 APERTURE LIST*
G04 Aperture macros list*
%AMRoundRect*
0 Rectangle with rounded corners*
0 $1 Rounding radius*
0 $2 $3 $4 $5 $6 $7 $8 $9 X,Y pos of 4 corners*
0 Add a 4 corners polygon primitive as box body*
4,1,4,$2,$3,$4,$5,$6,$7,$8,$9,$2,$3,0*
0 Add four circle primitives for the rounded corners*
1,1,$1+$1,$2,$3*
1,1,$1+$1,$4,$5*
1,1,$1+$1,$6,$7*
1,1,$1+$1,$8,$9*
0 Add four rect primitives between the rounded corners*
20,1,$1+$1,$2,$3,$4,$5,0*
20,1,$1+$1,$4,$5,$6,$7,0*
20,1,$1+$1,$6,$7,$8,$9,0*
20,1,$1+$1,$8,$9,$2,$3,0*%
G04 Aperture macros list end*
%ADD10C,1.600000*%
%ADD11O,1.600000X1.600000*%
%ADD12R,1.700000X1.700000*%
%ADD13O,1.700000X1.700000*%
%ADD14C,7.000000*%
%ADD15R,1.800000X1.800000*%
%ADD16C,1.800000*%
%ADD17RoundRect,0.250000X0.600000X0.600000X-0.600000X0.600000X-0.600000X-0.600000X0.600000X-0.600000X0*%
%ADD18C,1.700000*%
G04 APERTURE END LIST*
D10*
%TO.C,R1*%
X125222000Y-103603000D03*
D11*
X125222000Y-106143000D03*
%TD*%
D12*
%TO.C,J6*%
X120000000Y-145000000D03*
D13*
X122540000Y-145000000D03*
X125080000Y-145000000D03*
%TD*%
D14*
%TO.C,H4*%
X185000000Y-145000000D03*
%TD*%
D15*
%TO.C,D3*%
X150000000Y-103632000D03*
D16*
X150000000Y-106172000D03*
%TD*%
D14*
%TO.C,H1*%
X105000000Y-105000000D03*
%TD*%
D17*
%TO.C,J5*%
X176270000Y-133873000D03*
D18*
X173730000Y-133873000D03*
X176270000Y-131333000D03*
X173730000Y-131333000D03*
X176270000Y-128793000D03*
X173730000Y-128793000D03*
X176270000Y-126253000D03*
X173730000Y-126253000D03*
X176270000Y-123713000D03*
X173730000Y-123713000D03*
X176270000Y-121173000D03*
X173730000Y-121173000D03*
X176270000Y-118633000D03*
X173730000Y-118633000D03*
X176270000Y-116093000D03*
X173730000Y-116093000D03*
%TD*%
D10*
%TO.C,R3*%
X155208000Y-103632000D03*
D11*
X155208000Y-106172000D03*
%TD*%
D12*
%TO.C,J7*%
X135000000Y-145000000D03*
D13*
X137540000Y-145000000D03*
X140080000Y-145000000D03*
%TD*%
D10*
%TO.C,R2*%
X140208000Y-103632000D03*
D11*
X140208000Y-106172000D03*
%TD*%
D12*
%TO.C,J8*%
X150000000Y-145000000D03*
D13*
X152540000Y-145000000D03*
X155080000Y-145000000D03*
%TD*%
D15*
%TO.C,D2*%
X135000000Y-103632000D03*
D16*
X135000000Y-106172000D03*
%TD*%
D17*
%TO.C,J3*%
X146270000Y-133873000D03*
D18*
X143730000Y-133873000D03*
X146270000Y-131333000D03*
X143730000Y-131333000D03*
X146270000Y-128793000D03*
X143730000Y-128793000D03*
X146270000Y-126253000D03*
X143730000Y-126253000D03*
X146270000Y-123713000D03*
X143730000Y-123713000D03*
X146270000Y-121173000D03*
X143730000Y-121173000D03*
X146270000Y-118633000D03*
X143730000Y-118633000D03*
X146270000Y-116093000D03*
X143730000Y-116093000D03*
%TD*%
D14*
%TO.C,H3*%
X185000000Y-105000000D03*
%TD*%
D12*
%TO.C,J9*%
X165000000Y-145000000D03*
D13*
X167540000Y-145000000D03*
X170080000Y-145000000D03*
%TD*%
D14*
%TO.C,H2*%
X105000000Y-145000000D03*
%TD*%
D15*
%TO.C,D1*%
X120000000Y-103632000D03*
D16*
X120000000Y-106172000D03*
%TD*%
D17*
%TO.C,J1*%
X116270000Y-133873000D03*
D18*
X113730000Y-133873000D03*
X116270000Y-131333000D03*
X113730000Y-131333000D03*
X116270000Y-128793000D03*
X113730000Y-128793000D03*
X116270000Y-126253000D03*
X113730000Y-126253000D03*
X116270000Y-123713000D03*
X113730000Y-123713000D03*
X116270000Y-121173000D03*
X113730000Y-121173000D03*
X116270000Y-118633000D03*
X113730000Y-118633000D03*
X116270000Y-116093000D03*
X113730000Y-116093000D03*
%TD*%
D17*
%TO.C,J4*%
X161270000Y-133873000D03*
D18*
X158730000Y-133873000D03*
X161270000Y-131333000D03*
X158730000Y-131333000D03*
X161270000Y-128793000D03*
X158730000Y-128793000D03*
X161270000Y-126253000D03*
X158730000Y-126253000D03*
X161270000Y-123713000D03*
X158730000Y-123713000D03*
X161270000Y-121173000D03*
X158730000Y-121173000D03*
X161270000Y-118633000D03*
X158730000Y-118633000D03*
X161270000Y-116093000D03*
X158730000Y-116093000D03*
%TD*%
D17*
%TO.C,J2*%
X131270000Y-133873000D03*
D18*
X128730000Y-133873000D03*
X131270000Y-131333000D03*
X128730000Y-131333000D03*
X131270000Y-128793000D03*
X128730000Y-128793000D03*
X131270000Y-126253000D03*
X128730000Y-126253000D03*
X131270000Y-123713000D03*
X128730000Y-123713000D03*
X131270000Y-121173000D03*
X128730000Y-121173000D03*
X131270000Y-118633000D03*
X128730000Y-118633000D03*
X131270000Y-116093000D03*
X128730000Y-116093000D03*
%TD*%
M02*
